<svg width="32" height="32" viewBox="0 0 32 32" fill="none" xmlns="http://www.w3.org/2000/svg">
<g opacity="0.32">
<rect width="32" height="32" rx="6" fill="#F5F5F5"/>
<path fill-rule="evenodd" clip-rule="evenodd" d="M12 14H9C7.895 14 7 13.105 7 12V9C7 7.895 7.895 7 9 7H12C13.105 7 14 7.895 14 9V12C14 13.105 13.105 14 12 14Z" stroke="#6B757C" stroke-width="1.5" stroke-linecap="round" stroke-linejoin="round"/>
<path fill-rule="evenodd" clip-rule="evenodd" d="M23 14H20C18.895 14 18 13.105 18 12V9C18 7.895 18.895 7 20 7H23C24.105 7 25 7.895 25 9V12C25 13.105 24.105 14 23 14Z" stroke="#6B757C" stroke-width="1.5" stroke-linecap="round" stroke-linejoin="round"/>
<path fill-rule="evenodd" clip-rule="evenodd" d="M12 25H9C7.895 25 7 24.105 7 23V20C7 18.895 7.895 18 9 18H12C13.105 18 14 18.895 14 20V23C14 24.105 13.105 25 12 25Z" stroke="#6B757C" stroke-width="1.5" stroke-linecap="round" stroke-linejoin="round"/>
<path d="M21.5 19V24" stroke="#6B757C" stroke-width="1.5" stroke-linecap="round" stroke-linejoin="round"/>
<path d="M24 21.5H19" stroke="#6B757C" stroke-width="1.5" stroke-linecap="round" stroke-linejoin="round"/>
</g>
</svg>
