<svg xmlns="http://www.w3.org/2000/svg" width="24" height="19" viewBox="0 0 24 19" fill="none">
<path d="M0 4.5C0 2.29086 1.79086 0.5 4 0.5H20C22.2091 0.5 24 2.29086 24 4.5V14.5C24 16.7091 22.2091 18.5 20 18.5H4C1.79086 18.5 0 16.7091 0 14.5V4.5Z" fill="#942B35"/>
<path fill-rule="evenodd" clip-rule="evenodd" d="M15.3333 15.5H8.66659C7.92992 15.5 7.33325 14.9033 7.33325 14.1667V8.83333C7.33325 8.09667 7.92992 7.5 8.66659 7.5H15.3333C16.0699 7.5 16.6666 8.09667 16.6666 8.83333V14.1667C16.6666 14.9033 16.0699 15.5 15.3333 15.5Z" stroke="white" stroke-width="1.5" stroke-linecap="round" stroke-linejoin="round"/>
<path d="M11.9998 12.8932V11.1665" stroke="white" stroke-width="1.5" stroke-linecap="round" stroke-linejoin="round"/>
<path d="M12.3536 10.313C12.5488 10.5082 12.5488 10.8248 12.3536 11.0201C12.1583 11.2153 11.8417 11.2153 11.6464 11.0201C11.4512 10.8248 11.4512 10.5082 11.6464 10.313C11.8417 10.1177 12.1583 10.1177 12.3536 10.313" stroke="white" stroke-width="1.5" stroke-linecap="round" stroke-linejoin="round"/>
<path d="M9.33325 7.5V6.16667V6.16667C9.33325 4.694 10.5273 3.5 11.9999 3.5V3.5C13.4726 3.5 14.6666 4.694 14.6666 6.16667V6.16667V7.5" stroke="white" stroke-width="1.5" stroke-linecap="round" stroke-linejoin="round"/>
</svg>