<svg width="24" height="18" viewBox="0 0 24 18" fill="none" xmlns="http://www.w3.org/2000/svg">
<path d="M0 4C0 1.79086 1.79086 0 4 0H20C22.2091 0 24 1.79086 24 4V14C24 16.2091 22.2091 18 20 18H4C1.79086 18 0 16.2091 0 14V4Z" fill="#9E5D28"/>
<path d="M11.9993 13.8333C11.8613 13.8333 11.7493 13.9453 11.7507 14.0833C11.75 14.2213 11.862 14.3333 12 14.3333C12.138 14.3333 12.25 14.2213 12.25 14.0833C12.25 13.9453 12.138 13.8333 11.9993 13.8333" stroke="white" stroke-width="1.5" stroke-linecap="round" stroke-linejoin="round"/>
<path d="M8 14.3333L16.6667 3" stroke="white" stroke-width="1.5" stroke-linecap="round" stroke-linejoin="round"/>
<path d="M13.4115 7.25859C11.1882 6.83992 8.78686 7.41859 7.06152 9.00059" stroke="white" stroke-width="1.5" stroke-linecap="round" stroke-linejoin="round"/>
<path d="M15.6758 4.29637C12.1358 3.0357 7.93183 3.67104 5.0625 6.20304" stroke="white" stroke-width="1.5" stroke-linecap="round" stroke-linejoin="round"/>
<path d="M15.5117 7.99829C16.0217 8.26829 16.5031 8.59962 16.9391 9.00029" stroke="white" stroke-width="1.5" stroke-linecap="round" stroke-linejoin="round"/>
<path d="M17.6133 5.24829C18.0753 5.53162 18.5239 5.83962 18.9366 6.20296" stroke="white" stroke-width="1.5" stroke-linecap="round" stroke-linejoin="round"/>
<path d="M13.5078 10.6184C14.0318 10.8191 14.5238 11.1277 14.9465 11.5477" stroke="white" stroke-width="1.5" stroke-linecap="round" stroke-linejoin="round"/>
</svg>
