<svg width="32" height="32" viewBox="0 0 32 32" fill="none" xmlns="http://www.w3.org/2000/svg">
<g opacity="0.32">
<rect width="32" height="32" rx="6" fill="#F5F5F5"/>
<path d="M16.0002 25.0038V19.5015" stroke="#6B757C" stroke-width="1.5" stroke-linecap="round" stroke-linejoin="round"/>
<path fill-rule="evenodd" clip-rule="evenodd" d="M18.9016 14.4995H13.0992C11.7158 14.4998 10.5118 15.4455 10.184 16.7895L10.0509 17.3357C9.92349 17.8578 10.0429 18.4094 10.3748 18.8321C10.7066 19.2548 11.2143 19.5016 11.7516 19.5016H20.2552C20.7926 19.5016 21.3002 19.2548 21.6321 18.8321C21.9639 18.4094 22.0833 17.8578 21.9559 17.3357L21.8228 16.7895C21.4944 15.4433 20.2872 14.497 18.9016 14.4995V14.4995Z" stroke="#6B757C" stroke-width="1.5" stroke-linecap="round" stroke-linejoin="round"/>
<path d="M18.7509 14.4995L18.1007 10.5978C18.0389 10.2292 18.1878 9.85682 18.4868 9.63244L19.6013 8.79709C19.9458 8.53872 20.0863 8.08891 19.9501 7.6804C19.8139 7.27188 19.4316 6.99634 19.001 6.99634H12.9985C12.5679 6.99634 12.1856 7.27188 12.0494 7.6804C11.9133 8.08891 12.0538 8.53872 12.3983 8.79709L13.5127 9.63244C13.8117 9.85682 13.9607 10.2292 13.8989 10.5978L13.2486 14.4995" stroke="#6B757C" stroke-width="1.5" stroke-linecap="round" stroke-linejoin="round"/>
</g>
</svg>
