<svg width="32" height="32" viewBox="0 0 32 32" fill="none" xmlns="http://www.w3.org/2000/svg">
<g opacity="0.32">
<rect width="32" height="32" rx="6" fill="#F5F5F5"/>
<path fill-rule="evenodd" clip-rule="evenodd" d="M18.6012 11.5049L21.1592 8.94694C21.1932 8.91294 21.1822 8.85294 21.1382 8.83394C19.6862 8.21294 17.9022 8.47294 16.7052 9.66994C15.5432 10.8319 15.2372 12.4839 15.7882 13.8899L11.9552 17.7229C11.3222 18.3559 11.3222 19.3829 11.9552 20.0169V20.0169C12.5882 20.6499 13.6152 20.6499 14.2492 20.0169L18.1132 16.1529C19.5202 16.7029 21.1712 16.3979 22.3332 15.2359C23.5322 14.0369 23.8502 12.2499 23.1712 10.7979C23.1512 10.7559 23.0932 10.7449 23.0592 10.7779L20.4362 13.3399V13.3399L19.5192 12.4229L18.6012 11.5049Z" stroke="#6B757C" stroke-width="1.5" stroke-linecap="round" stroke-linejoin="round"/>
<path d="M15 6.55469C10.224 7.05469 6.5 11.0927 6.5 16.0017C6.5 21.2487 10.753 25.5017 16 25.5017C20.909 25.5017 24.947 21.7777 25.447 17.0017" stroke="#6B757C" stroke-width="1.5" stroke-linecap="round" stroke-linejoin="round"/>
</g>
</svg>
