<svg width="32" height="32" viewBox="0 0 32 32" fill="none" xmlns="http://www.w3.org/2000/svg">
<rect x="0.5" y="0.5" width="31" height="31" rx="5.5" fill="white"/>
<path fill-rule="evenodd" clip-rule="evenodd" d="M10.5 11H16.5V15H10.5V11Z" stroke="#6B757C" stroke-width="1.5" stroke-linecap="round" stroke-linejoin="round"/>
<path d="M11.5 19H15.5" stroke="#6B757C" stroke-width="1.5" stroke-linecap="round" stroke-linejoin="round"/>
<path d="M7.5 25V9C7.5 7.895 8.395 7 9.5 7H17.5C18.605 7 19.5 7.895 19.5 9V25" stroke="#6B757C" stroke-width="1.5" stroke-linecap="round" stroke-linejoin="round"/>
<path d="M23.5 9L24.914 10.414C25.289 10.789 25.5 11.298 25.5 11.828V21.5C25.5 22.328 24.828 23 24 23V23C23.172 23 22.5 22.328 22.5 21.5V20C22.5 19.448 22.052 19 21.5 19H19.5" stroke="#6B757C" stroke-width="1.5" stroke-linecap="round" stroke-linejoin="round"/>
<path d="M25.4998 16H23.6328C23.0318 16 22.5658 15.473 22.6408 14.876L22.8908 12.876C22.9528 12.376 23.3778 12 23.8828 12H25.4998" stroke="#6B757C" stroke-width="1.5" stroke-linecap="round" stroke-linejoin="round"/>
<path d="M6.5 25H20.5" stroke="#6B757C" stroke-width="1.5" stroke-linecap="round" stroke-linejoin="round"/>
<rect x="0.5" y="0.5" width="31" height="31" rx="5.5" stroke="#D5D8DA"/>
</svg>
