<svg width="32" height="32" viewBox="0 0 32 32" fill="none" xmlns="http://www.w3.org/2000/svg">
<rect x="0.5" y="0.5" width="31" height="31" rx="5.5" fill="white"/>
<path fill-rule="evenodd" clip-rule="evenodd" d="M10 11H9C8.448 11 8 10.552 8 10V9C8 8.448 8.448 8 9 8H10C10.552 8 11 8.448 11 9V10C11 10.552 10.552 11 10 11Z" stroke="#6B757C" stroke-width="1.5"/>
<path fill-rule="evenodd" clip-rule="evenodd" d="M16.5 11H15.5C14.948 11 14.5 10.552 14.5 10V9C14.5 8.448 14.948 8 15.5 8H16.5C17.052 8 17.5 8.448 17.5 9V10C17.5 10.552 17.052 11 16.5 11Z" stroke="#6B757C" stroke-width="1.5"/>
<path fill-rule="evenodd" clip-rule="evenodd" d="M23 11H22C21.448 11 21 10.552 21 10V9C21 8.448 21.448 8 22 8H23C23.552 8 24 8.448 24 9V10C24 10.552 23.552 11 23 11Z" stroke="#6B757C" stroke-width="1.5"/>
<path d="M12 22L16 24L20 22" stroke="#6B757C" stroke-width="1.5" stroke-linecap="round" stroke-linejoin="round"/>
<path fill-rule="evenodd" clip-rule="evenodd" d="M14.5 10V9C14.5 8.448 14.948 8 15.5 8H16.5C17.052 8 17.5 8.448 17.5 9V10C17.5 10.552 17.052 11 16.5 11H15.5C14.948 11 14.5 10.552 14.5 10Z" stroke="#6B757C" stroke-width="1.5"/>
<path fill-rule="evenodd" clip-rule="evenodd" d="M10 17.5H9C8.448 17.5 8 17.052 8 16.5V15.5C8 14.948 8.448 14.5 9 14.5H10C10.552 14.5 11 14.948 11 15.5V16.5C11 17.052 10.552 17.5 10 17.5Z" stroke="#6B757C" stroke-width="1.5"/>
<path fill-rule="evenodd" clip-rule="evenodd" d="M16.5 17.5H15.5C14.948 17.5 14.5 17.052 14.5 16.5V15.5C14.5 14.948 14.948 14.5 15.5 14.5H16.5C17.052 14.5 17.5 14.948 17.5 15.5V16.5C17.5 17.052 17.052 17.5 16.5 17.5Z" stroke="#6B757C" stroke-width="1.5"/>
<path fill-rule="evenodd" clip-rule="evenodd" d="M23 17.5H22C21.448 17.5 21 17.052 21 16.5V15.5C21 14.948 21.448 14.5 22 14.5H23C23.552 14.5 24 14.948 24 15.5V16.5C24 17.052 23.552 17.5 23 17.5Z" stroke="#6B757C" stroke-width="1.5"/>
<rect x="0.5" y="0.5" width="31" height="31" rx="5.5" stroke="#D5D8DA"/>
</svg>
