<svg xmlns="http://www.w3.org/2000/svg" width="24" height="24" viewBox="0 0 24 24" stroke="currentColor" fill="none">
    <path fill-rule="evenodd" clip-rule="evenodd" d="M17 10.032V10V10C17 7.239 14.761 5 12 5V5C9.239 5 7 7.239 7 10V10V10.032V12.504C7 12.828 6.817 13.123 6.528 13.268L6.025 13.519C5.397 13.834 5 14.476 5 15.178V15.178C5 16.202 5.83 17.032 6.854 17.032H17.146C18.17 17.032 19 16.202 19 15.178V15.178C19 14.476 18.603 13.834 17.975 13.52L17.472 13.269C17.183 13.123 17 12.828 17 12.504V10.032Z" stroke-width="1.5" stroke-linecap="round" stroke-linejoin="round"/>
    <path d="M18.9509 6.049C18.2389 4.799 17.2009 3.761 15.9509 3.049" stroke-width="1.5" stroke-linecap="round" stroke-linejoin="round"/>
    <path d="M5.04907 6.049C5.76107 4.799 6.79907 3.761 8.04907 3.049" stroke-width="1.5" stroke-linecap="round" stroke-linejoin="round"/>
    <path fill-rule="evenodd" clip-rule="evenodd" d="M17 10.032V10V10C17 7.239 14.761 5 12 5V5C9.239 5 7 7.239 7 10V10V10.032V12.504C7 12.828 6.817 13.123 6.528 13.268L6.025 13.519C5.397 13.834 5 14.476 5 15.178V15.178C5 16.202 5.83 17.032 6.854 17.032H17.146C18.17 17.032 19 16.202 19 15.178V15.178C19 14.476 18.603 13.834 17.975 13.52L17.472 13.269C17.183 13.123 17 12.828 17 12.504V10.032Z" stroke-width="1.5" stroke-linecap="round" stroke-linejoin="round"/>
    <path d="M18.9509 6.049C18.2389 4.799 17.2009 3.761 15.9509 3.049" stroke-width="1.5" stroke-linecap="round" stroke-linejoin="round"/>
    <path d="M5.04907 6.049C5.76107 4.799 6.79907 3.761 8.04907 3.049" stroke-width="1.5" stroke-linecap="round" stroke-linejoin="round"/>
    <path d="M9.50928 17V17.5122C9.50928 18.1727 9.77179 18.8061 10.239 19.2729C10.7062 19.7398 11.3398 20.0018 12.0003 20.0013V20.0013C12.6609 20.0015 13.2945 19.7393 13.7617 19.2723C14.2289 18.8053 14.4914 18.1718 14.4914 17.5112V17" stroke-width="1.5" stroke-linecap="round" stroke-linejoin="round"/>
</svg>
