<svg width="25" height="24" viewBox="0 0 25 24" stroke="currentColor" fill="none" xmlns="http://www.w3.org/2000/svg">
<path fill-rule="evenodd" clip-rule="evenodd" d="M19.5 20.5H5.5C4.395 20.5 3.5 19.605 3.5 18.5V9.5C3.5 8.395 4.395 7.5 5.5 7.5H19.5C20.605 7.5 21.5 8.395 21.5 9.5V18.5C21.5 19.605 20.605 20.5 19.5 20.5Z" stroke-width="1.5" stroke-linecap="round" stroke-linejoin="round"/>
<path d="M16.6742 7.5V5.5C16.6742 4.395 15.7792 3.5 14.6742 3.5H10.3262C9.22117 3.5 8.32617 4.395 8.32617 5.5V7.5" stroke-width="1.5" stroke-linecap="round" stroke-linejoin="round"/>
<path d="M3.5 9.5L9.851 13.691C10.178 13.907 10.561 14.022 10.953 14.022H14.047C14.439 14.022 14.822 13.907 15.149 13.691L21.5 9.5" stroke-width="1.5" stroke-linecap="round" stroke-linejoin="round"/>
</svg>
