<svg width="24" height="24" viewBox="0 0 24 24" stroke="currentColor" fill="none" xmlns="http://www.w3.org/2000/svg">
<path d="M21.0041 18.5027V20.0033C21.0041 20.5555 20.5559 21.0037 20.0037 21.0037H18.0029C17.4506 21.0037 17.0024 20.5555 17.0024 20.0033V18.5027" stroke-width="1.5" stroke-linecap="round" stroke-linejoin="round"/>
<path d="M6.99825 18.5027V20.0033C6.99825 20.5555 6.55006 21.0037 5.99783 21.0037H3.997C3.44477 21.0037 2.99658 20.5555 2.99658 20.0033V18.5027" stroke-width="1.5" stroke-linecap="round" stroke-linejoin="round"/>
<path fill-rule="evenodd" clip-rule="evenodd" d="M2.99658 18.5027V13.7437C2.99658 12.9474 3.31271 12.1841 3.87595 11.6219L4.99742 10.4994H19.0032L20.1247 11.6209C20.688 12.1841 21.0041 12.9474 21.0041 13.7437V18.5027H2.99658Z" stroke-width="1.5" stroke-linecap="round" stroke-linejoin="round"/>
<path d="M21.0042 14.501L18.0029 14.7511" stroke-width="1.5" stroke-linecap="round" stroke-linejoin="round"/>
<path d="M5.99783 14.7511L2.99658 14.501" stroke-width="1.5" stroke-linecap="round" stroke-linejoin="round"/>
<path d="M7.99854 18.5027L8.99895 15.5015H15.0015L16.0019 18.5027" stroke-width="1.5" stroke-linecap="round" stroke-linejoin="round"/>
<path d="M21.0043 9.49894L19.0034 9.99915" stroke-width="1.5" stroke-linecap="round" stroke-linejoin="round"/>
<path d="M4.99742 9.99915L2.99658 9.49894" stroke-width="1.5" stroke-linecap="round" stroke-linejoin="round"/>
<path d="M4.99756 10.4994V9.99315L5.83391 6.85484C6.12503 5.75939 7.11744 4.99707 8.24991 4.99707H15.8371C16.9946 4.99707 18.001 5.7914 18.2701 6.91787L19.0034 9.99315V10.4994" stroke-width="1.5" stroke-linecap="round" stroke-linejoin="round"/>
</svg>
