<svg width="24px" height="24px" viewBox="0 0 30 30"  stroke="currentColor" fill="none" xmlns="http://www.w3.org/2000/svg">
<path d="M10.998 25.0039H16.0001" stroke-width="1.5" stroke-linecap="round" stroke-linejoin="round"/>
<path d="M13.999 11.9985H18.0007" stroke-width="1.5" stroke-linecap="round" stroke-linejoin="round"/>
<path d="M10.998 19.0014H16.0001" stroke-width="1.5" stroke-linecap="round" stroke-linejoin="round"/>
<path d="M10.998 22.0026H16.0001" stroke-width="1.5" stroke-linecap="round" stroke-linejoin="round"/>
<path d="M21.0022 16H10.998V25.0037" stroke-width="1.5" stroke-linecap="round" stroke-linejoin="round"/>
<path d="M15.9998 25.0038H6.99609V11.8874C6.99609 11.1608 7.39032 10.4914 8.02552 10.1386L15.0284 6.248C15.6328 5.91212 16.3678 5.91212 16.9722 6.248L23.9752 10.1386C24.61 10.4916 25.0036 11.161 25.0036 11.8874V16.0001" stroke-width="1.5" stroke-linecap="round" stroke-linejoin="round"/>
<path fill-rule="evenodd" clip-rule="evenodd" d="M20.0014 19.0015H25.0035C25.556 19.0015 26.0039 19.4494 26.0039 20.0019V25.004C26.0039 25.5565 25.556 26.0044 25.0035 26.0044H20.0014C19.4489 26.0044 19.001 25.5565 19.001 25.004V20.0019C19.001 19.4494 19.4489 19.0015 20.0014 19.0015Z" stroke-width="1.5" stroke-linecap="round" stroke-linejoin="round"/>
<path d="M23.6946 21.7585L22.203 23.2462L21.3086 22.3538" stroke-width="1.5" stroke-linecap="round" stroke-linejoin="round"/>
</svg>
