<svg width="25" height="24" viewBox="0 0 25 24" stroke="currentColor" fill="none" xmlns="http://www.w3.org/2000/svg">
<circle cx="12.3343" cy="12.5047" r="2.00083" stroke-width="1.5" stroke-linecap="round" stroke-linejoin="round"/>
<path d="M16.3345 8.50391L13.8335 11.0049" stroke-width="1.5" stroke-linecap="round" stroke-linejoin="round"/>
<path d="M18.6315 12.508H17.7312" stroke-width="1.5" stroke-linecap="round" stroke-linejoin="round"/>
<path d="M6.02805 12.508H6.92842" stroke-width="1.5" stroke-linecap="round" stroke-linejoin="round"/>
<path d="M12.3298 6.20236V7.10274" stroke-width="1.5" stroke-linecap="round" stroke-linejoin="round"/>
<path d="M7.87424 8.04855L8.32442 8.49874" stroke-width="1.5" stroke-linecap="round" stroke-linejoin="round"/>
<path fill-rule="evenodd" clip-rule="evenodd" d="M12.0523 3.49695C7.21961 3.6991 3.3887 7.64512 3.32963 12.4817C3.32077 15.3833 4.71398 18.1104 7.07023 19.8037C7.73723 20.2697 8.53362 20.5146 9.34718 20.504H15.3277C16.1227 20.5159 16.9017 20.2791 17.5556 19.8267C20.7919 17.5275 22.139 13.3791 20.8712 9.61713C19.6034 5.85513 16.0201 3.3684 12.0523 3.49695Z" stroke-width="1.5" stroke-linecap="round" stroke-linejoin="round"/>
</svg>
