<svg width="16" height="16" viewBox="0 0 16 16" fill="none" xmlns="http://www.w3.org/2000/svg">
<path d="M12.6666 5.33333H9.99992C9.63192 5.33333 9.33325 5.03467 9.33325 4.66667V2" stroke="#6B757C" stroke-linecap="round" stroke-linejoin="round"/>
<path d="M3.33325 8.66667V3.33333C3.33325 2.59667 3.92992 2 4.66659 2H9.44792C9.80125 2 10.1406 2.14067 10.3906 2.39067L12.2759 4.276C12.5259 4.526 12.6666 4.86533 12.6666 5.21867V12.6667C12.6666 13.4033 12.0699 14 11.3333 14H8.66659" stroke="#6B757C" stroke-linecap="round" stroke-linejoin="round"/>
<path d="M6.83122 12.9262C6.16122 13.5962 5.07655 13.5962 4.40655 12.9262C3.73655 12.2562 3.73655 11.1715 4.40655 10.5015C5.07655 9.83152 6.16122 9.83152 6.83122 10.5015C7.50055 11.1715 7.50055 12.2575 6.83122 12.9262" stroke="#6B757C" stroke-linecap="round" stroke-linejoin="round"/>
<path d="M6 7.33333H10" stroke="#6B757C" stroke-linecap="round" stroke-linejoin="round"/>
<path d="M8.6665 9.33333H9.99984" stroke="#6B757C" stroke-linecap="round" stroke-linejoin="round"/>
<path d="M3.33325 13.9998L4.40659 12.9258" stroke="#6B757C" stroke-linecap="round" stroke-linejoin="round"/>
</svg>
