<svg xmlns="http://www.w3.org/2000/svg" width="16" height="16" viewBox="0 0 16 16" fill="none">
<path fill-rule="evenodd" clip-rule="evenodd" d="M7.43846 2.01408C6.27081 2.12705 5.11342 2.60183 4.20588 3.34016C3.93893 3.55733 3.51627 3.98336 3.30336 4.2499C2.76503 4.92383 2.32388 5.83541 2.14092 6.65187C2.02602 7.16472 2 7.41403 2 8.00234C2 8.59066 2.02602 8.83997 2.14092 9.35282C2.32787 10.1871 2.78053 11.1117 3.33676 11.7954C3.55394 12.0624 3.97996 12.485 4.24651 12.6979C4.92043 13.2363 5.83201 13.6774 6.64847 13.8604C7.16132 13.9753 7.41063 14.0013 7.99895 14.0013C8.58726 14.0013 8.83657 13.9753 9.34942 13.8604C9.96329 13.7228 10.7659 13.3798 11.2934 13.0297C12.2082 12.4223 12.9108 11.6232 13.3905 10.6446C13.6843 10.0451 13.8512 9.50818 13.9564 8.82437C14.0145 8.446 14.0145 7.55868 13.9564 7.18032C13.8512 6.49651 13.6843 5.9596 13.3905 5.36011C13.0769 4.72039 12.7274 4.2337 12.2228 3.73421C11.7274 3.24381 11.2736 2.92156 10.6412 2.61111C10.0488 2.3203 9.50044 2.1488 8.84446 2.0492C8.54947 2.00441 7.74583 1.98433 7.43846 2.01408ZM8.42509 3.5167C9.94847 3.66551 11.3138 4.60371 11.9986 5.97219C12.0891 6.15302 12.2265 6.46616 12.2265 6.4915C12.2265 6.49575 10.3241 6.49921 7.99895 6.49921C5.67378 6.49921 3.77138 6.49575 3.77138 6.4915C3.77138 6.46616 3.9088 6.15302 3.99929 5.97219C4.82336 4.32532 6.60183 3.33858 8.42509 3.5167ZM8.30958 7.32701C8.4725 7.40161 8.59917 7.52843 8.67709 7.695C8.80383 7.96592 8.74077 8.31586 8.52662 8.53001C8.24104 8.81556 7.75685 8.81556 7.47127 8.53001C7.2882 8.34694 7.20912 8.05199 7.27883 7.81222C7.41124 7.35672 7.88616 7.13315 8.30958 7.32701ZM3.81715 8.02684C5.65687 8.21562 7.10312 9.9944 7.23197 12.2268L7.24331 12.4233L7.12891 12.4082C6.96291 12.3861 6.53888 12.2609 6.30792 12.1657C5.73576 11.9298 5.30958 11.6491 4.85514 11.209C4.08055 10.4587 3.61594 9.49026 3.51403 8.41336C3.47878 8.04093 3.48066 8.00234 3.53402 8.00234C3.55849 8.00234 3.68588 8.01336 3.81715 8.02684ZM12.5083 8.07867C12.5083 8.12067 12.4973 8.27126 12.4839 8.41336C12.382 9.49026 11.9173 10.4587 11.1428 11.209C10.6883 11.6491 10.2621 11.9298 9.68997 12.1657C9.45901 12.2609 9.03498 12.3861 8.86898 12.4082L8.75458 12.4233L8.76592 12.2268C8.90095 9.88735 10.4702 8.07463 12.4203 8.00547C12.5046 8.00248 12.5084 8.00556 12.5083 8.07867Z" fill="white"/>
</svg>