<svg width="24" height="24" viewBox="0 0 24 24" stroke="currentColor" fill="none" xmlns="http://www.w3.org/2000/svg">
<path d="M18.0029 15.7517H21.0042V18.753" stroke-width="1.5" stroke-linecap="round" stroke-linejoin="round"/>
<path fill-rule="evenodd" clip-rule="evenodd" d="M16.5354 4.07279C15.6196 3.54282 14.6175 3.17842 13.5752 2.99634L16.5354 4.07279Z" fill="#26333B"/>
<path d="M16.5354 4.07279C15.6196 3.54282 14.6175 3.17842 13.5752 2.99634" stroke-width="1.5" stroke-linecap="round" stroke-linejoin="round"/>
<path d="M20.5218 8.82586C20.1615 7.83088 19.6299 6.90658 18.9512 6.09473" stroke-width="1.5" stroke-linecap="round" stroke-linejoin="round"/>
<path d="M10.4251 2.99634C9.38275 3.17842 8.38067 3.54282 7.46484 4.07279" stroke-width="1.5" stroke-linecap="round" stroke-linejoin="round"/>
<path d="M5.04917 6.09766C4.3704 6.90951 3.83884 7.83381 3.47852 8.82879" stroke-width="1.5" stroke-linecap="round" stroke-linejoin="round"/>
<path d="M2.99609 12C3.00378 16.2264 5.95001 19.8785 10.0791 20.7801C14.2082 21.6817 18.4086 19.59 20.1772 15.7516" stroke-width="1.5" stroke-linecap="round" stroke-linejoin="round"/>
<path d="M2.99609 12C2.99609 16.9726 7.02721 21.0037 11.9998 21.0037" stroke-width="1.5" stroke-linecap="round" stroke-linejoin="round"/>
<path fill-rule="evenodd" clip-rule="evenodd" d="M12.6408 8.31965L14.5586 10.8857C15.2822 11.8553 15.3975 13.1501 14.8564 14.2322C14.3153 15.3143 13.2104 15.999 12.0005 16.0018V16.0018C10.7906 15.999 9.68571 15.3143 9.14463 14.2322C8.60356 13.1501 8.71878 11.8553 9.44244 10.8857L11.3602 8.31965C11.5114 8.11812 11.7486 7.99951 12.0005 7.99951C12.2524 7.99951 12.4896 8.11812 12.6408 8.31965Z" stroke-width="1.5" stroke-linecap="round" stroke-linejoin="round"/>
</svg>
