<svg width="24" height="24" stroke="currentColor" viewBox="0 0 24 24" fill="none" xmlns="http://www.w3.org/2000/svg">
<path fill-rule="evenodd" clip-rule="evenodd" d="M8.99878 15.0014L12.1501 14.6123C12.3715 14.5851 12.5775 14.4848 12.7353 14.3272L20.3695 6.69798C21.2148 5.85223 21.2148 4.48145 20.3695 3.6357V3.6357C19.5238 2.79038 18.153 2.79038 17.3072 3.6357L9.74409 11.1989C9.59091 11.352 9.49156 11.5507 9.46097 11.7651L8.99878 15.0014Z" stroke-width="1.5" stroke-linecap="round" stroke-linejoin="round"/>
<path d="M13.0005 3.99683H6.998C4.78795 3.99683 2.99634 5.78843 2.99634 7.99849V17.0022C2.99634 19.2123 4.78795 21.0039 6.998 21.0039H16.0018C18.2118 21.0039 20.0034 19.2123 20.0034 17.0022V10.9997" stroke-width="1.5" stroke-linecap="round" stroke-linejoin="round"/>
</svg>
