<svg width="24" height="24" viewBox="0 0 24 24" fill="none" xmlns="http://www.w3.org/2000/svg">
<path d="M11 21C6.029 21 2 16.971 2 12C2 7.029 6.029 3 11 3C15.971 3 20 7.029 20 12" stroke="white" stroke-width="1.5" stroke-linecap="round" stroke-linejoin="round"/>
<path d="M2.50977 9H19.4898" stroke="white" stroke-width="1.5" stroke-linecap="round" stroke-linejoin="round"/>
<path d="M2.50977 15H11.9998" stroke="white" stroke-width="1.5" stroke-linecap="round" stroke-linejoin="round"/>
<path d="M15 11.9988C15 9.23477 14.277 6.47077 12.833 4.05877C11.986 2.64577 10.014 2.64577 9.16799 4.05877C6.27799 8.88377 6.27799 15.1148 9.16799 19.9388C9.59099 20.6458 10.296 20.9998 11.001 20.9998" stroke="white" stroke-width="1.5" stroke-linecap="round" stroke-linejoin="round"/>
<path d="M19.0081 15.2838L21.9181 20.1388C22.1791 20.5748 21.7741 21.1028 21.2701 20.9828L18.5001 20.3218L15.7301 20.9818C15.2261 21.1018 14.8211 20.5738 15.0821 20.1378L17.9921 15.2838C18.2191 14.9048 18.7811 14.9048 19.0081 15.2838V15.2838Z" stroke="white" stroke-width="1.5" stroke-linecap="round" stroke-linejoin="round"/>
</svg>
