<svg width="24" height="24" viewBox="0 0 24 24" fill="none" xmlns="http://www.w3.org/2000/svg" stroke="#6B757C">
<path d="M8.92008 17.5018C9.70113 18.2829 9.70113 19.5492 8.92008 20.3302C8.13903 21.1113 6.8727 21.1113 6.09165 20.3302C5.3106 19.5492 5.3106 18.2829 6.09165 17.5018C6.8727 16.7208 8.13903 16.7208 8.92008 17.5018" stroke="currentColor" stroke-width="1.5" stroke-linecap="round" stroke-linejoin="round"/>
<path d="M17.9084 17.5018C18.6894 18.2829 18.6894 19.5492 17.9084 20.3302C17.1273 21.1113 15.861 21.1113 15.0799 20.3302C14.2989 19.5492 14.2989 18.2829 15.0799 17.5018C15.861 16.7208 17.1273 16.7208 17.9084 17.5018" stroke="currentColor" stroke-width="1.5" stroke-linecap="round" stroke-linejoin="round"/>
<path d="M6.14322 8.95371C6.92427 9.73476 6.92427 11.0011 6.14322 11.7821C5.36217 12.5632 4.09584 12.5632 3.31479 11.7821C2.53374 11.0011 2.53374 9.73476 3.31479 8.95371C4.09584 8.17266 5.36217 8.17266 6.14322 8.95371" stroke="currentColor" stroke-width="1.5" stroke-linecap="round" stroke-linejoin="round"/>
<path d="M13.4137 3.67172C14.1948 4.45277 14.1948 5.7191 13.4137 6.50015C12.6327 7.2812 11.3663 7.2812 10.5853 6.50015C9.80425 5.7191 9.80425 4.45277 10.5853 3.67172C11.3663 2.89068 12.6327 2.89068 13.4137 3.67172" stroke="currentColor" stroke-width="1.5" stroke-linecap="round" stroke-linejoin="round"/>
<path d="M20.6852 8.95371C21.4663 9.73476 21.4663 11.0011 20.6852 11.7821C19.9042 12.5632 18.6378 12.5632 17.8568 11.7821C17.0757 11.0011 17.0757 9.73476 17.8568 8.95371C18.6378 8.17266 19.9042 8.17266 20.6852 8.95371" stroke="currentColor" stroke-width="1.5" stroke-linecap="round" stroke-linejoin="round"/>
<path d="M13.4137 11.0309C14.1948 11.8119 14.1948 13.0782 13.4137 13.8593C12.6327 14.6403 11.3663 14.6403 10.5853 13.8593C9.80425 13.0782 9.80425 11.8119 10.5853 11.0309C11.3663 10.2498 12.6327 10.2498 13.4137 11.0309" stroke="currentColor" stroke-width="1.5" stroke-linecap="round" stroke-linejoin="round"/>
<path d="M13.1396 14.082L15.3496 17.282" stroke="currentColor" stroke-width="1.5" stroke-linecap="round" stroke-linejoin="round"/>
<path d="M10.8609 14.082L8.65088 17.272" stroke="currentColor" stroke-width="1.5" stroke-linecap="round" stroke-linejoin="round"/>
<path d="M10.0892 11.9005L6.63916 10.9105" stroke="currentColor" stroke-width="1.5" stroke-linecap="round" stroke-linejoin="round"/>
<path d="M11.9995 10.4398V7.08984" stroke="currentColor" stroke-width="1.5" stroke-linecap="round" stroke-linejoin="round"/>
<path d="M13.9102 11.9005L17.3602 10.9105" stroke="currentColor" stroke-width="1.5" stroke-linecap="round" stroke-linejoin="round"/>
</svg>
