<svg class="w-6 h-6" viewBox="0 0 20 20" fill="none" xmlns="http://www.w3.org/2000/svg">
<path d="M17 15H16C15.448 15 15 14.552 15 14V9C15 8.448 15.448 8 16 8H17C18.105 8 19 8.895 19 10V13C19 14.105 18.105 15 17 15Z" stroke="currentColor" stroke-width="1.5" stroke-linecap="round" stroke-linejoin="round"/>
<path d="M4 15H3C1.895 15 1 14.105 1 13V10C1 8.895 1.895 8 3 8H4C4.552 8 5 8.448 5 9V14C5 14.552 4.552 15 4 15Z" stroke="currentColor" stroke-width="1.5" stroke-linecap="round" stroke-linejoin="round"/>
<path d="M16.5 8V7.5C16.5 3.91 13.59 1 10 1C6.41 1 3.5 3.91 3.5 7.5V8" stroke="currentColor" stroke-width="1.5" stroke-linecap="round" stroke-linejoin="round"/>
<path d="M10.625 19.25H9.375C8.685 19.25 8.125 18.69 8.125 18C8.125 17.31 8.685 16.75 9.375 16.75H10.625C11.315 16.75 11.875 17.31 11.875 18C11.875 18.69 11.315 19.25 10.625 19.25Z" stroke="currentColor" stroke-width="1.5" stroke-linecap="round" stroke-linejoin="round"/>
<path d="M11.875 18H14C15.105 18 16 17.105 16 16V15" stroke="currentColor" stroke-width="1.5" stroke-linecap="round" stroke-linejoin="round"/>
</svg>
