<svg width="32" height="32" viewBox="0 0 32 32" fill="none" xmlns="http://www.w3.org/2000/svg">
<path d="M6.83606 13.3933V13.164C6.83606 8.10267 10.9387 4 16.0001 4C21.0614 4 25.1641 8.10267 25.1641 13.164V13.3933C25.1641 18.008 19.3214 24.9547 16.9667 27.568C16.4481 28.144 15.5521 28.144 15.0334 27.568C12.6787 24.9547 6.83606 18.008 6.83606 13.3933Z" fill="#C13E4A" stroke="#C13E4A" stroke-width="1.4468" stroke-linecap="round" stroke-linejoin="round"/>
<path fill-rule="evenodd" clip-rule="evenodd" d="M13.3334 13.2734C13.3334 14.7467 14.5267 15.94 16 15.94C17.4734 15.94 18.6667 14.7467 18.6667 13.2734V13.224C18.6667 11.7507 17.4734 10.5574 16 10.5574C14.5267 10.5574 13.3334 11.7507 13.3334 13.224" fill="white"/>
<path d="M13.3334 13.2734C13.3334 14.7467 14.5267 15.94 16 15.94V15.94C17.4734 15.94 18.6667 14.7467 18.6667 13.2734V13.224C18.6667 11.7507 17.4734 10.5574 16 10.5574V10.5574C14.5267 10.5574 13.3334 11.7507 13.3334 13.224" stroke="white" stroke-width="1.4468" stroke-linecap="round" stroke-linejoin="round"/>
</svg>
