<svg width="24" height="24" viewBox="0 0 24 24" stroke="currentColor" fill="none" xmlns="http://www.w3.org/2000/svg">
<path d="M8.24951 6.00007L15.0065 5.98707C16.6695 5.98407 18.0185 7.33507 18.0115 8.99807V9.01207C18.0045 10.6641 16.6635 12.0001 15.0125 12.0001H9.99851C8.34251 12.0001 6.99951 13.3431 6.99951 14.9991V14.9991C6.99951 16.6561 8.34351 17.9991 10.0005 17.9981L19.9995 17.9951" stroke-width="1.5" stroke-linecap="round" stroke-linejoin="round"/>
<path d="M20.0009 17.9956L18.0039 19.9926" stroke-width="1.5" stroke-linecap="round" stroke-linejoin="round"/>
<path d="M18.0039 15.9971L20.0009 17.9951" stroke-width="1.5" stroke-linecap="round" stroke-linejoin="round"/>
<path d="M7.59099 4.40901C8.46967 5.28769 8.46967 6.71231 7.59099 7.59099C6.71231 8.46967 5.28769 8.46967 4.40901 7.59099C3.53033 6.71231 3.53033 5.28769 4.40901 4.40901C5.28769 3.53033 6.71231 3.53033 7.59099 4.40901" stroke-width="1.5" stroke-linecap="round" stroke-linejoin="round"/>
</svg>
