<svg width="25" height="24" viewBox="0 0 25 24" stroke="currentColor" fill="none" xmlns="http://www.w3.org/2000/svg">
<path fill-rule="evenodd" clip-rule="evenodd" d="M6.6665 7H5.6665C5.1145 7 4.6665 6.552 4.6665 6V5C4.6665 4.448 5.1145 4 5.6665 4H6.6665C7.2185 4 7.6665 4.448 7.6665 5V6C7.6665 6.552 7.2185 7 6.6665 7Z" stroke-width="1.5"/>
<path fill-rule="evenodd" clip-rule="evenodd" d="M13.1665 7H12.1665C11.6145 7 11.1665 6.552 11.1665 6V5C11.1665 4.448 11.6145 4 12.1665 4H13.1665C13.7185 4 14.1665 4.448 14.1665 5V6C14.1665 6.552 13.7185 7 13.1665 7Z" stroke-width="1.5"/>
<path fill-rule="evenodd" clip-rule="evenodd" d="M19.6665 7H18.6665C18.1145 7 17.6665 6.552 17.6665 6V5C17.6665 4.448 18.1145 4 18.6665 4H19.6665C20.2185 4 20.6665 4.448 20.6665 5V6C20.6665 6.552 20.2185 7 19.6665 7Z" stroke-width="1.5"/>
<path d="M8.6665 18L12.6665 20L16.6665 18" stroke-width="1.5" stroke-linecap="round" stroke-linejoin="round"/>
<path fill-rule="evenodd" clip-rule="evenodd" d="M11.1665 6V5C11.1665 4.448 11.6145 4 12.1665 4H13.1665C13.7185 4 14.1665 4.448 14.1665 5V6C14.1665 6.552 13.7185 7 13.1665 7H12.1665C11.6145 7 11.1665 6.552 11.1665 6Z" stroke-width="1.5"/>
<path fill-rule="evenodd" clip-rule="evenodd" d="M6.6665 13.5H5.6665C5.1145 13.5 4.6665 13.052 4.6665 12.5V11.5C4.6665 10.948 5.1145 10.5 5.6665 10.5H6.6665C7.2185 10.5 7.6665 10.948 7.6665 11.5V12.5C7.6665 13.052 7.2185 13.5 6.6665 13.5Z" stroke-width="1.5"/>
<path fill-rule="evenodd" clip-rule="evenodd" d="M13.1665 13.5H12.1665C11.6145 13.5 11.1665 13.052 11.1665 12.5V11.5C11.1665 10.948 11.6145 10.5 12.1665 10.5H13.1665C13.7185 10.5 14.1665 10.948 14.1665 11.5V12.5C14.1665 13.052 13.7185 13.5 13.1665 13.5Z" stroke-width="1.5"/>
<path fill-rule="evenodd" clip-rule="evenodd" d="M19.6665 13.5H18.6665C18.1145 13.5 17.6665 13.052 17.6665 12.5V11.5C17.6665 10.948 18.1145 10.5 18.6665 10.5H19.6665C20.2185 10.5 20.6665 10.948 20.6665 11.5V12.5C20.6665 13.052 20.2185 13.5 19.6665 13.5Z" stroke-width="1.5"/>
</svg>
