<svg width="34" height="37" viewBox="0 0 24 27" fill="none" xmlns="http://www.w3.org/2000/svg"><path d="M20.4853 3.51472C25.1716 8.20101 25.1716 15.799 20.4853 20.4853C15.799 25.1716 8.20101 25.1716 3.51472 20.4853C-1.17157 15.799 -1.17157 8.20101 3.51472 3.51472C8.20101 -1.17157 15.799 -1.17157 20.4853 3.51472Z" fill="#E4704D"/>        <path d="M4 19L12 11L20 19L12 27L4 19Z" fill="#E4704D"/><path d="M7.99693 12.7695C6.77175 13.3191 5.99609 14.1141 5.99609 15.0018C5.99609 16.6592 8.68321 18.003 11.9986 18.003C15.314 18.003 18.0011 16.6592 18.0011 15.0018C18.0011 14.1141 17.2254 13.3191 16.0003 12.7695" stroke="white" stroke-width="1.5" stroke-linecap="round" stroke-linejoin="round"/><path d="M13.4668 6.60522C14.0614 7.19976 14.2393 8.09393 13.9175 8.87076C13.5958 9.64759 12.8377 10.1541 11.9969 10.1541C11.1561 10.1541 10.398 9.64759 10.0763 8.87076C9.7545 8.09393 9.93238 7.19976 10.5269 6.60522C10.9167 6.21522 11.4455 5.99609 11.9969 5.99609C12.5483 5.99609 13.0771 6.21522 13.4668 6.60522" stroke="white" stroke-width="1.5" stroke-linecap="round" stroke-linejoin="round"/><path d="M11.9975 10.1523V13.9993" stroke="#26333B" stroke-width="1.5" stroke-linecap="round" stroke-linejoin="round"/></svg>