<svg width="24px" height="24px"  viewBox="0 0 30 30" stroke="currentColor" fill="none" xmlns="http://www.w3.org/2000/svg">
<path d="M6.99609 22.6278C8.09655 22.1276 9.49714 22.1276 10.5976 22.6278C11.6981 23.1281 13.0986 23.1281 14.1991 22.6278C15.2996 22.1276 16.7001 22.1276 17.8006 22.6278C18.9011 23.1281 20.3016 23.1281 21.4021 22.6278C22.5026 22.1276 23.9031 22.1276 25.0036 22.6278" stroke-width="1.5" stroke-linecap="round" stroke-linejoin="round"/>
<path d="M10.5977 25.6291C11.6981 26.1293 13.0987 26.1293 14.1992 25.6291C15.2996 25.1289 16.7002 25.1289 17.8007 25.6291C18.9011 26.1293 20.3017 26.1293 21.4022 25.6291" stroke-width="1.5" stroke-linecap="round" stroke-linejoin="round"/>
<path fill-rule="evenodd" clip-rule="evenodd" d="M18.001 16.0002V7.73772C18.001 6.87736 19.1174 6.53922 19.5946 7.25552L24.5227 14.6486C24.9089 15.2258 24.4947 16.0002 23.7994 16.0002H18.001Z" stroke-width="1.5" stroke-linecap="round" stroke-linejoin="round"/>
<path d="M14.9991 19.0014V6.95034C14.9991 6.00795 13.7766 5.63779 13.2534 6.42212L7.85611 14.5185C7.43393 15.1518 7.88712 16.0001 8.64844 16.0001H14.9991" stroke-width="1.5" stroke-linecap="round" stroke-linejoin="round"/>
<path d="M23.9028 22.3028L25.0033 19.0015H7.74609L9.39078 22.2918" stroke-width="1.5" stroke-linecap="round" stroke-linejoin="round"/>
</svg>
