<svg width="16" height="16" viewBox="0 0 16 16" fill="none" xmlns="http://www.w3.org/2000/svg">
<path d="M7.99933 12.8333C7.86133 12.8333 7.74933 12.9453 7.75066 13.0833C7.75 13.2213 7.862 13.3333 8 13.3333C8.138 13.3333 8.25 13.2213 8.25 13.0833C8.25 12.9453 8.138 12.8333 7.99933 12.8333" stroke="white" stroke-width="1.5" stroke-linecap="round" stroke-linejoin="round"/>
<path d="M4 13.3333L12.6667 2" stroke="white" stroke-width="1.5" stroke-linecap="round" stroke-linejoin="round"/>
<path d="M9.41103 6.25871C7.1877 5.84004 4.78637 6.41871 3.06104 8.00071" stroke="white" stroke-width="1.5" stroke-linecap="round" stroke-linejoin="round"/>
<path d="M11.6763 3.29662C8.13632 2.03595 3.93232 2.67128 1.06299 5.20328" stroke="white" stroke-width="1.5" stroke-linecap="round" stroke-linejoin="round"/>
<path d="M11.5117 6.99805C12.0217 7.26805 12.5031 7.59938 12.9391 8.00005" stroke="white" stroke-width="1.5" stroke-linecap="round" stroke-linejoin="round"/>
<path d="M13.6138 4.24805C14.0758 4.53138 14.5244 4.83938 14.9371 5.20271" stroke="white" stroke-width="1.5" stroke-linecap="round" stroke-linejoin="round"/>
<path d="M9.5083 9.61816C10.0323 9.81883 10.5243 10.1275 10.947 10.5475" stroke="white" stroke-width="1.5" stroke-linecap="round" stroke-linejoin="round"/>
</svg>
