<svg width="24" height="24" viewBox="0 0 24 24" fill="none" xmlns="http://www.w3.org/2000/svg">
    <path d="M12.0002 21.0062V15.5039" stroke="currentColor" stroke-width="1.5" stroke-linecap="round" stroke-linejoin="round"/>
    <path fill-rule="evenodd" clip-rule="evenodd" d="M14.9006 10.5H9.09823C7.71486 10.5003 6.51087 11.446 6.18301 12.79L6.04996 13.3362C5.92252 13.8583 6.0419 14.4099 6.37378 14.8326C6.70567 15.2552 7.21327 15.5021 7.75066 15.5021H16.2542C16.7916 15.5021 17.2992 15.2552 17.6311 14.8326C17.963 14.4099 18.0824 13.8583 17.9549 13.3362L17.8219 12.79C17.4935 11.4438 16.2862 10.4975 14.9006 10.5V10.5Z" stroke="currentColor" stroke-width="1.5" stroke-linecap="round" stroke-linejoin="round"/>
    <path d="M14.7529 10.4992L14.1026 6.59759C14.0409 6.22892 14.1898 5.85657 14.4888 5.63219L15.6032 4.79684C15.9477 4.53848 16.0882 4.08866 15.9521 3.68015C15.8159 3.27164 15.4336 2.99609 15.003 2.99609H9.00048C8.56987 2.99609 8.18757 3.27164 8.0514 3.68015C7.91523 4.08866 8.05574 4.53848 8.40023 4.79684L9.5147 5.63219C9.81367 5.85657 9.96261 6.22892 9.90086 6.59759L9.25059 10.4992" stroke="currentColor" stroke-width="1.5" stroke-linecap="round" stroke-linejoin="round"/>
</svg>
