<svg width="24" height="24" viewBox="0 0 24 24" stroke="currentColor" fill="none" xmlns="http://www.w3.org/2000/svg">
<path d="M12.0003 13.5003V11.9997C13.1054 11.9997 14.0012 11.1039 14.0012 9.99888C14.0012 8.89385 13.1054 7.99805 12.0003 7.99805C10.8953 7.99805 9.99951 8.89385 9.99951 9.99888" stroke-width="1.5" stroke-linecap="round" stroke-linejoin="round"/>
<path fill-rule="evenodd" clip-rule="evenodd" d="M12.0003 21.0036C16.973 21.0036 21.0041 16.9725 21.0041 11.9998C21.0041 7.02721 16.973 2.99609 12.0003 2.99609C7.0277 2.99609 2.99658 7.02721 2.99658 11.9998C2.99658 16.9725 7.0277 21.0036 12.0003 21.0036Z" stroke-width="1.5" stroke-linecap="round" stroke-linejoin="round"/>
<path d="M12.0002 15.9521C11.9726 15.9521 11.9502 15.9745 11.9502 16.0022C11.9502 16.0298 11.9726 16.0522 12.0002 16.0522C12.0278 16.0522 12.0502 16.0298 12.0502 16.0022C12.0502 15.9745 12.0278 15.9521 12.0002 15.9521" stroke-width="1.5" stroke-linecap="round" stroke-linejoin="round"/>
</svg>
