<svg width="25" height="24" viewBox="0 0 25 24" stroke="currentColor" fill="none" xmlns="http://www.w3.org/2000/svg">
<path fill-rule="evenodd" clip-rule="evenodd" d="M15.2677 7.50494L17.8257 4.94694C17.8597 4.91294 17.8487 4.85294 17.8047 4.83394C16.3527 4.21294 14.5687 4.47294 13.3717 5.66994C12.2097 6.83194 11.9037 8.48394 12.4547 9.88994L8.62172 13.7229C7.98872 14.3559 7.98872 15.3829 8.62172 16.0169V16.0169C9.25472 16.6499 10.2817 16.6499 10.9157 16.0169L14.7797 12.1529C16.1867 12.7029 17.8377 12.3979 18.9997 11.2359C20.1987 10.0369 20.5167 8.24994 19.8377 6.79794C19.8177 6.75594 19.7597 6.74494 19.7257 6.77794L17.1027 9.33994V9.33994L16.1857 8.42294L15.2677 7.50494Z" stroke-width="1.5" stroke-linecap="round" stroke-linejoin="round"/>
<path d="M11.6665 2.55469C6.8905 3.05469 3.1665 7.09269 3.1665 12.0017C3.1665 17.2487 7.4195 21.5017 12.6665 21.5017C17.5755 21.5017 21.6135 17.7777 22.1135 13.0017" stroke-width="1.5" stroke-linecap="round" stroke-linejoin="round"/>
</svg>
