<svg width="24" height="24" viewBox="0 0 24 24" fill="none" xmlns="http://www.w3.org/2000/svg">
<path d="M13.9092 10.0907C14.9636 11.1452 14.9636 12.8547 13.9092 13.9091C12.8548 14.9635 11.1452 14.9635 10.0908 13.9091C9.0364 12.8547 9.0364 11.1452 10.0908 10.0907C11.1452 9.03632 12.8548 9.03632 13.9092 10.0907" stroke="currentColor" stroke-width="1.5" stroke-linecap="round" stroke-linejoin="round"/>
<path fill-rule="evenodd" clip-rule="evenodd" d="M5.25 12C5.25 12.297 5.277 12.594 5.313 12.882L3.725 14.124C3.373 14.4 3.277 14.893 3.501 15.28L4.913 17.723C5.136 18.11 5.61 18.273 6.025 18.107L7.447 17.536C7.728 17.423 8.041 17.468 8.293 17.635C8.513 17.781 8.741 17.915 8.977 18.035C9.247 18.172 9.443 18.417 9.486 18.717L9.703 20.23C9.766 20.672 10.145 21 10.591 21H13.408C13.854 21 14.233 20.672 14.296 20.23L14.513 18.718C14.556 18.418 14.754 18.171 15.025 18.035C15.26 17.917 15.487 17.784 15.706 17.639C15.96 17.471 16.274 17.423 16.556 17.537L17.975 18.107C18.389 18.273 18.863 18.11 19.087 17.723L20.499 15.28C20.723 14.893 20.627 14.399 20.275 14.124L18.687 12.882C18.723 12.594 18.75 12.297 18.75 12C18.75 11.703 18.723 11.406 18.687 11.118L20.275 9.876C20.627 9.6 20.723 9.107 20.499 8.72L19.087 6.277C18.864 5.89 18.39 5.727 17.975 5.893L16.556 6.463C16.274 6.576 15.96 6.529 15.706 6.361C15.487 6.216 15.26 6.083 15.025 5.965C14.754 5.829 14.556 5.582 14.513 5.282L14.297 3.77C14.234 3.328 13.855 3 13.409 3H10.592C10.146 3 9.767 3.328 9.704 3.77L9.486 5.284C9.443 5.583 9.246 5.829 8.977 5.966C8.741 6.086 8.513 6.221 8.293 6.366C8.04 6.532 7.727 6.577 7.446 6.464L6.025 5.893C5.61 5.727 5.136 5.89 4.913 6.277L3.501 8.72C3.277 9.107 3.373 9.601 3.725 9.876L5.313 11.118C5.277 11.406 5.25 11.703 5.25 12V12Z" stroke="currentColor" stroke-width="1.5" stroke-linecap="round" stroke-linejoin="round"/>
</svg>
