<svg width="24px" height="24px" viewBox="0 0 24 24" stroke="currentColor" fill="none" xmlns="http://www.w3.org/2000/svg">
<path fill-rule="evenodd" clip-rule="evenodd" d="M6.99776 3.99609C6.99776 6.20615 5.20615 7.99776 2.99609 7.99776C5.20615 7.99776 6.99776 9.78937 6.99776 11.9994C6.99776 9.78937 8.78937 7.99776 10.9994 7.99776C8.78937 7.99776 6.99776 6.20615 6.99776 3.99609Z" stroke-width="1.5" stroke-linecap="round" stroke-linejoin="round"/>
<path fill-rule="evenodd" clip-rule="evenodd" d="M18.0021 16.0012C18.0021 13.2387 15.7626 10.9992 13 10.9992C15.7626 10.9992 18.0021 8.75964 18.0021 5.99707C18.0021 8.75964 20.2416 10.9992 23.0042 10.9992C20.2416 10.9992 18.0021 13.2387 18.0021 16.0012Z" stroke-width="1.5" stroke-linecap="round" stroke-linejoin="round"/>
<path d="M18.0022 16.001V17.0014" stroke-width="1.5" stroke-linecap="round" stroke-linejoin="round"/>
<path d="M18.0022 5.99749V4.99707" stroke-width="1.5" stroke-linecap="round" stroke-linejoin="round"/>
<path d="M10.9992 22.0039V23.0043" stroke-width="1.5" stroke-linecap="round" stroke-linejoin="round"/>
<path d="M10.9992 15.0014V14.001" stroke-width="1.5" stroke-linecap="round" stroke-linejoin="round"/>
<path d="M6.99777 12V13.0004" stroke-width="1.5" stroke-linecap="round" stroke-linejoin="round"/>
<path d="M6.99777 2.99609V3.99651" stroke-width="1.5" stroke-linecap="round" stroke-linejoin="round"/>
<path fill-rule="evenodd" clip-rule="evenodd" d="M10.9992 14.501C10.9992 16.711 9.20762 18.5026 6.99756 18.5026C9.20762 18.5026 10.9992 20.2943 10.9992 22.5043C10.9992 20.2943 12.7908 18.5026 15.0009 18.5026C12.7908 18.5026 10.9992 16.711 10.9992 14.501Z" stroke-width="1.5" stroke-linecap="round" stroke-linejoin="round"/>
</svg>
