<svg width="24" height="24" viewBox="0 0 24 24" fill="none" xmlns="http://www.w3.org/2000/svg">
<path fill-rule="evenodd" clip-rule="evenodd" d="M11.7003 4.9971C12.5291 4.9971 13.201 4.32525 13.201 3.49647C13.201 2.6677 12.5291 1.99585 11.7003 1.99585C10.8716 1.99585 10.1997 2.6677 10.1997 3.49647C10.1997 4.32525 10.8716 4.9971 11.7003 4.9971Z" stroke="currentColor" stroke-width="1.5" stroke-linecap="round" stroke-linejoin="round"/>
<path fill-rule="evenodd" clip-rule="evenodd" d="M10.9997 16.0017H12.6004C13.2007 16.0017 13.6008 15.6015 13.6008 15.0013V12.2501L14.6012 11.0496C14.7013 10.8495 14.8013 10.6495 14.8013 10.4494V8.24846C14.8013 7.64821 14.4012 7.24805 13.8009 7.24805H9.79924C9.19899 7.24805 8.79883 7.64821 8.79883 8.24846V10.4494C8.79883 10.6495 8.89887 10.8495 8.99891 11.0496L9.99933 12.2501V15.0013C9.99933 15.6015 10.3995 16.0017 10.9997 16.0017Z" stroke="currentColor" stroke-width="1.5" stroke-linecap="round" stroke-linejoin="round"/>
<path d="M10.7998 21.0038L12.0003 19.8033L10.7998 18.6028" stroke="currentColor" stroke-width="1.5" stroke-linecap="round" stroke-linejoin="round"/>
<path d="M18.0027 13.7048C19.8394 14.3441 21.0039 15.2675 21.0039 16.3019C21.0039 17.7745 18.6629 19.0331 15.3516 19.5503" stroke="currentColor" stroke-width="1.5" stroke-linecap="round" stroke-linejoin="round"/>
<path d="M5.99783 13.7048C4.16107 14.3441 2.99658 15.2675 2.99658 16.3019C2.99658 18.2357 7.02726 19.8034 12.0003 19.8034" stroke="currentColor" stroke-width="1.5" stroke-linecap="round" stroke-linejoin="round"/>
</svg>
