<svg width="24" height="24" viewBox="0 0 24 24" fill="none" xmlns="http://www.w3.org/2000/svg">
<path d="M7.92021 15.5008C8.70126 16.2819 8.70126 17.5482 7.92021 18.3293C7.13916 19.1103 5.87283 19.1103 5.09178 18.3293C4.31073 17.5482 4.31073 16.2819 5.09178 15.5008C5.87283 14.7198 7.13916 14.7198 7.92021 15.5008" stroke="currentColor" stroke-width="1.5" stroke-linecap="round" stroke-linejoin="round"/>
<path d="M16.9082 15.5008C17.6892 16.2819 17.6892 17.5482 16.9082 18.3293C16.1272 19.1103 14.8608 19.1103 14.0798 18.3293C13.2987 17.5482 13.2987 16.2819 14.0798 15.5008C14.8608 14.7198 16.1271 14.7198 16.9082 15.5008" stroke="currentColor" stroke-width="1.5" stroke-linecap="round" stroke-linejoin="round"/>
<path d="M5.14321 6.95383C5.92426 7.73488 5.92426 9.00121 5.14321 9.78226C4.36216 10.5633 3.09583 10.5633 2.31478 9.78226C1.53373 9.00121 1.53373 7.73488 2.31478 6.95383C3.09583 6.17278 4.36216 6.17278 5.14321 6.95383" stroke="currentColor" stroke-width="1.5" stroke-linecap="round" stroke-linejoin="round"/>
<path d="M12.4142 1.67081C13.1952 2.45186 13.1952 3.71819 12.4142 4.49924C11.6332 5.28029 10.3668 5.28029 9.58577 4.49924C8.80472 3.71819 8.80472 2.45186 9.58577 1.67081C10.3668 0.88976 11.6331 0.88976 12.4142 1.67081" stroke="currentColor" stroke-width="1.5" stroke-linecap="round" stroke-linejoin="round"/>
<path d="M19.6852 6.95383C20.4662 7.73488 20.4662 9.00121 19.6852 9.78226C18.9042 10.5633 17.6378 10.5633 16.8568 9.78226C16.0757 9.00121 16.0757 7.73488 16.8568 6.95383C17.6378 6.17278 18.9041 6.17278 19.6852 6.95383" stroke="currentColor" stroke-width="1.5" stroke-linecap="round" stroke-linejoin="round"/>
<path d="M12.4142 9.02982C13.1952 9.81087 13.1952 11.0772 12.4142 11.8582C11.6332 12.6393 10.3668 12.6393 9.58577 11.8582C8.80472 11.0772 8.80472 9.81087 9.58577 9.02982C10.3668 8.24877 11.6331 8.24877 12.4142 9.02982" stroke="currentColor" stroke-width="1.5" stroke-linecap="round" stroke-linejoin="round"/>
<path d="M12.14 12.08L14.35 15.28" stroke="currentColor" stroke-width="1.5" stroke-linecap="round" stroke-linejoin="round"/>
<path d="M9.86 12.08L7.65 15.27" stroke="currentColor" stroke-width="1.5" stroke-linecap="round" stroke-linejoin="round"/>
<path d="M9.09 9.90003L5.64 8.91003" stroke="currentColor" stroke-width="1.5" stroke-linecap="round" stroke-linejoin="round"/>
<path d="M11 8.44003V5.09003" stroke="currentColor" stroke-width="1.5" stroke-linecap="round" stroke-linejoin="round"/>
<path d="M12.91 9.90003L16.36 8.91003" stroke="currentColor" stroke-width="1.5" stroke-linecap="round" stroke-linejoin="round"/>
</svg>
