<svg width="16" height="16" viewBox="0 0 16 16" fill="none" xmlns="http://www.w3.org/2000/svg">
<path d="M0 4C0 1.79086 1.79086 0 4 0H12.0007C14.2099 0 16.0007 1.79086 16.0007 4V12C16.0007 14.2091 14.2099 16 12.0007 16H4C1.79086 16 0 14.2091 0 12V4Z" fill="#316EE8"/>
<path d="M10.9938 7.5852C11.0505 6.74966 10.7591 5.89478 10.121 5.25672C9.45256 4.58829 8.54796 4.3024 7.67513 4.39632C7.01912 4.46675 6.38107 4.75401 5.87836 5.25672C4.70721 6.42787 4.70721 8.32822 5.87836 9.49936L7.8229 11.4439C7.92053 11.5415 8.07883 11.5415 8.17646 11.4439L10.121 9.49936C10.6541 8.96627 10.9455 8.28264 10.9938 7.5852Z" fill="white"/>
<path d="M4 1H12.0007V-1H4V1ZM15.0007 4V12H17.0007V4H15.0007ZM12.0007 15H4V17H12.0007V15ZM1 12V4H-1V12H1ZM4 15C2.34315 15 1 13.6569 1 12H-1C-1 14.7614 1.23858 17 4 17V15ZM15.0007 12C15.0007 13.6569 13.6576 15 12.0007 15V17C14.7622 17 17.0007 14.7614 17.0007 12H15.0007ZM12.0007 1C13.6576 1 15.0007 2.34315 15.0007 4H17.0007C17.0007 1.23858 14.7622 -1 12.0007 -1V1ZM4 -1C1.23858 -1 -1 1.23858 -1 4H1C1 2.34315 2.34315 1 4 1V-1Z" fill="#83AAF7"/>
</svg>
