<svg width="26" height="26" viewBox="0 0 26 26" fill="none" xmlns="http://www.w3.org/2000/svg">
<path d="M7.7477 9.99884C7.7477 9.58463 7.41191 9.24884 6.9977 9.24884C6.58348 9.24884 6.2477 9.58463 6.2477 9.99884H7.7477ZM19.7527 9.99884C19.7527 9.58463 19.4169 9.24884 19.0027 9.24884C18.5885 9.24884 18.2527 9.58463 18.2527 9.99884H19.7527ZM15.751 10.9993C15.751 10.585 15.4152 10.2493 15.001 10.2493C14.5868 10.2493 14.251 10.585 14.251 10.9993H15.751ZM14.251 18.0022C14.251 18.4164 14.5868 18.7522 15.001 18.7522C15.4152 18.7522 15.751 18.4164 15.751 18.0022H14.251ZM11.7494 10.9993C11.7494 10.585 11.4136 10.2493 10.9994 10.2493C10.5851 10.2493 10.2494 10.585 10.2494 10.9993H11.7494ZM10.2494 18.0022C10.2494 18.4164 10.5851 18.7522 10.9994 18.7522C11.4136 18.7522 11.7494 18.4164 11.7494 18.0022H10.2494ZM5.49707 6.24759C5.08286 6.24759 4.74707 6.58338 4.74707 6.99759C4.74707 7.4118 5.08286 7.74759 5.49707 7.74759V6.24759ZM20.5033 7.74759C20.9175 7.74759 21.2533 7.4118 21.2533 6.99759C21.2533 6.58338 20.9175 6.24759 20.5033 6.24759V7.74759ZM8.28702 6.76042C8.15603 7.15338 8.3684 7.57812 8.76136 7.7091C9.15432 7.84009 9.57906 7.62772 9.71004 7.23476L8.28702 6.76042ZM9.54276 5.36491L10.2543 5.60208L10.2543 5.60191L9.54276 5.36491ZM11.4415 3.99634L11.4414 4.74634H11.4415V3.99634ZM14.5588 3.99634V4.74634L14.5598 4.74634L14.5588 3.99634ZM16.4596 5.36491L17.1714 5.12853L17.1712 5.12791L16.4596 5.36491ZM16.2901 7.23397C16.4206 7.62708 16.8451 7.83992 17.2382 7.70936C17.6313 7.57881 17.8442 7.15431 17.7136 6.7612L16.2901 7.23397ZM6.2477 9.99884V20.003H7.7477V9.99884H6.2477ZM6.2477 20.003C6.2477 21.5223 7.47929 22.7538 8.99853 22.7538V21.2538C8.30771 21.2538 7.7477 20.6938 7.7477 20.003H6.2477ZM8.99853 22.7538H17.0019V21.2538H8.99853V22.7538ZM17.0019 22.7538C18.5211 22.7538 19.7527 21.5223 19.7527 20.003H18.2527C18.2527 20.6938 17.6927 21.2538 17.0019 21.2538V22.7538ZM19.7527 20.003V9.99884H18.2527V20.003H19.7527ZM14.251 10.9993V18.0022H15.751V10.9993H14.251ZM10.2494 10.9993V18.0022H11.7494V10.9993H10.2494ZM5.49707 7.74759H20.5033V6.24759H5.49707V7.74759ZM9.71004 7.23476L10.2543 5.60208L8.83124 5.12774L8.28702 6.76042L9.71004 7.23476ZM10.2543 5.60191C10.4245 5.09089 10.9027 4.74621 11.4414 4.74634L11.4417 3.24634C10.2572 3.24606 9.2055 4.00408 8.83119 5.12791L10.2543 5.60191ZM11.4415 4.74634H14.5588V3.24634H11.4415V4.74634ZM14.5598 4.74634C15.0989 4.74567 15.5777 5.09045 15.7481 5.60191L17.1712 5.12791C16.7966 4.00312 15.7435 3.24487 14.5579 3.24634L14.5598 4.74634ZM15.7479 5.6013L16.2901 7.23397L17.7136 6.7612L17.1714 5.12853L15.7479 5.6013Z" fill="currentColor"/>
</svg>
