<svg width="120" height="120" viewBox="0 0 120 120" fill="none" xmlns="http://www.w3.org/2000/svg">
<path fill-rule="evenodd" clip-rule="evenodd" d="M60 15V15C84.855 15 105 35.145 105 60V60C105 84.855 84.855 105 60 105V105C35.145 105 15 84.855 15 60V60C15 35.145 35.145 15 60 15Z" stroke="#CE7C3A" stroke-width="2" stroke-linecap="round" stroke-linejoin="round"/>
<path d="M60 62.5V37.5" stroke="#CE7C3A" stroke-width="2" stroke-linecap="round" stroke-linejoin="round"/>
<path d="M59.995 80C59.305 80 58.745 80.56 58.75 81.25C58.75 81.94 59.31 82.5 60 82.5C60.69 82.5 61.25 81.94 61.25 81.25C61.25 80.56 60.69 80 59.995 80" stroke="#CE7C3A" stroke-width="2" stroke-linecap="round" stroke-linejoin="round"/>
</svg>
