<svg width="16px" height="16px" viewBox="0 0 16 16" fill="none" xmlns="http://www.w3.org/2000/svg">
<path fill-rule="evenodd" clip-rule="evenodd" d="M5.55872 12.9108L7.48406 10.5594C7.75072 10.2334 8.24872 10.2334 8.51539 10.5594L10.4407 12.9108C10.7981 13.3461 10.4881 14.0001 9.92539 14.0001H6.07472C5.51206 14.0001 5.20206 13.3461 5.55872 12.9108V12.9108Z" stroke="currentColor" stroke-width="1.5" stroke-linecap="round" stroke-linejoin="round"/>
<path d="M5.32629 8.65851C5.93629 7.84184 6.90229 7.30518 8.00029 7.30518C9.09829 7.30518 10.0643 7.84118 10.6743 8.65851" stroke="currentColor" stroke-width="1.5" stroke-linecap="round" stroke-linejoin="round"/>
<path d="M3.4436 6.7765C4.5416 5.4865 6.1736 4.6665 8.00027 4.6665C9.82694 4.6665 11.4589 5.4865 12.5569 6.7765" stroke="currentColor" stroke-width="1.5" stroke-linecap="round" stroke-linejoin="round"/>
<path d="M1.55737 4.89067C3.14204 3.12067 5.43737 2 8.00004 2C10.5627 2 12.858 3.12067 14.4427 4.89067" stroke="currentColor" stroke-width="1.5" stroke-linecap="round" stroke-linejoin="round"/>
</svg>
