<svg width="24" height="24" viewBox="0 0 24 24"  stroke="currentColor" fill="none" xmlns="http://www.w3.org/2000/svg">
<path fill-rule="evenodd" clip-rule="evenodd" d="M12.0002 19.253C11.7931 19.2535 11.6257 19.4218 11.626 19.6288C11.6264 19.8359 11.7944 20.0035 12.0015 20.0033C12.2086 20.0031 12.3763 19.8352 12.3763 19.6281C12.3771 19.5282 12.3377 19.4322 12.267 19.3616C12.1962 19.2911 12.1001 19.2519 12.0002 19.253Z" />
<path d="M12.0002 19.253C11.7931 19.2535 11.6257 19.4218 11.626 19.6288C11.6264 19.8359 11.7944 20.0035 12.0015 20.0033C12.2086 20.0031 12.3763 19.8352 12.3763 19.6281C12.3771 19.5282 12.3377 19.4322 12.267 19.3616C12.1962 19.2911 12.1001 19.2519 12.0002 19.253" stroke-width="1.5" stroke-linecap="round" stroke-linejoin="round"/>
<path d="M1.58984 7.79876C7.60262 2.72463 16.3977 2.72463 22.4105 7.79876" stroke-width="1.5" stroke-linecap="round" stroke-linejoin="round"/>
<path d="M7.57715 15.8227C10.0251 13.3937 13.9739 13.3937 16.4218 15.8227" stroke-width="1.5" stroke-linecap="round" stroke-linejoin="round"/>
<path d="M19.4114 12C18.69 11.3423 17.8789 10.7903 17.0024 10.3604" stroke-width="1.5" stroke-linecap="round" stroke-linejoin="round"/>
<path d="M6.99789 10.3604C6.12108 10.7902 5.30967 11.3423 4.58789 12" stroke-width="1.5" stroke-linecap="round" stroke-linejoin="round"/>
<path d="M14.2512 7.99805L11.7501 10.4991L10.2495 8.99846" stroke-width="1.5" stroke-linecap="round" stroke-linejoin="round"/>
</svg>
