<svg width="16" height="16" viewBox="0 0 16 16" fill="none" xmlns="http://www.w3.org/2000/svg">
<path fill-rule="evenodd" clip-rule="evenodd" d="M8 2V2C11.314 2 14 4.686 14 8V8C14 11.314 11.314 14 8 14V14C4.686 14 2 11.314 2 8V8C2 4.686 4.686 2 8 2Z" stroke="#C13E4A" stroke-width="1.5" stroke-linecap="round" stroke-linejoin="round"/>
<path d="M7.99996 8.33333V5" stroke="#C13E4A" stroke-width="1.5" stroke-linecap="round" stroke-linejoin="round"/>
<path d="M7.9993 10.6667C7.9073 10.6667 7.83263 10.7413 7.8333 10.8333C7.8333 10.9253 7.90796 11 7.99996 11C8.09196 11 8.16663 10.9253 8.16663 10.8333C8.16663 10.7413 8.09196 10.6667 7.9993 10.6667" stroke="#C13E4A" stroke-width="1.5" stroke-linecap="round" stroke-linejoin="round"/>
</svg>
