<svg width="24" height="14" viewBox="0 0 24 14" fill="none" xmlns="http://www.w3.org/2000/svg">
<path d="M18.8203 5.03516C18.1875 5 17.5898 5.14062 17.0625 5.35156L14.25 0.851562C14.1445 0.640625 13.9336 0.5 13.6875 0.5H11.2968C11.0507 0.5 10.875 0.710938 10.875 0.921875V1.48438C10.875 1.73047 11.0507 1.90625 11.2968 1.90625H13.2656L14.4257 3.73438H9.74996V3.17188C9.74996 2.96094 9.53902 2.75 9.32808 2.75H5.95308C5.53121 2.75 5.24996 3.06641 5.24996 3.45312C5.24996 3.875 5.53121 4.15625 5.95308 4.15625H8.09762L7.18355 5.45703C6.5859 5.17578 5.91793 5.03516 5.24996 5C2.75387 5 0.714803 7.07422 0.74996 9.53516C0.74996 12.0312 2.75387 14 5.24996 14C7.28902 14 9.01168 12.6641 9.53902 10.7656H10.7343C10.9453 10.7656 11.1562 10.6602 11.2968 10.4844L15.164 4.96484L15.832 6.05469C14.8476 6.89844 14.2148 8.12891 14.25 9.53516C14.25 11.9609 16.2539 14 18.6796 14C21.2109 14.0352 23.25 11.9961 23.2148 9.46484C23.2148 7.03906 21.2461 5.07031 18.8203 5.03516ZM5.24996 12.5938C3.5273 12.5938 2.15621 11.2227 2.15621 9.5C2.15621 7.8125 3.5273 6.40625 5.24996 6.40625C5.63668 6.40625 6.0234 6.51172 6.37496 6.65234L4.23043 9.67578C3.91402 10.1328 4.23043 10.7656 4.82808 10.7656H8.06246C7.57027 11.8555 6.48043 12.5938 5.24996 12.5938ZM6.16402 9.35938L7.53512 7.42578C7.99215 7.95312 8.2734 8.62109 8.30855 9.35938H6.16402ZM10.3476 9.35938H9.7148C9.67965 8.16406 9.1523 7.03906 8.34371 6.26562L9.11715 5.14062H13.3007L10.3476 9.35938ZM18.5742 12.5938C16.9921 12.5234 15.6914 11.2227 15.6562 9.64062C15.6211 8.69141 15.9726 7.84766 16.6054 7.28516L18.2929 9.99219C18.3984 10.168 18.6796 10.2383 18.8554 10.1328L19.3476 9.81641C19.5234 9.71094 19.5937 9.42969 19.4882 9.25391L17.8007 6.54688C18.1171 6.47656 18.4687 6.40625 18.8203 6.44141C20.4375 6.47656 21.7382 7.77734 21.8086 9.35938C21.914 11.1875 20.4023 12.6992 18.5742 12.5938Z" fill="white"/>
</svg>
