<svg width="18" height="19" viewBox="0 0 18 19" fill="none" xmlns="http://www.w3.org/2000/svg">
<path d="M17.8945 6.75391L16.1016 1.41016C15.8906 0.742188 15.2578 0.25 14.5195 0.25H3.44531C2.70703 0.25 2.07422 0.742188 1.86328 1.41016L0.0703125 6.75391C0 6.92969 0 7.10547 0 7.28125V16.5625C0 17.5117 0.738281 18.25 1.6875 18.25H16.3125C17.2266 18.25 18 17.5117 18 16.5625V7.28125C18 7.10547 17.9648 6.92969 17.8945 6.75391ZM16.207 7H9.84375V1.9375H14.5195L16.207 7ZM3.44531 1.9375H8.15625V7H1.75781L3.44531 1.9375ZM1.6875 16.5625V8.6875H16.3125V16.5625H1.6875Z" fill="white"/>
</svg>
