<svg width="18" height="19" viewBox="0 0 18 19" fill="none" xmlns="http://www.w3.org/2000/svg">
<path d="M5.0625 10.9375C4.42969 10.9375 3.9375 11.4648 3.9375 12.0625C3.9375 12.6953 4.42969 13.1875 5.0625 13.1875C5.66016 13.1875 6.1875 12.6953 6.1875 12.0625C6.1875 11.4648 5.66016 10.9375 5.0625 10.9375ZM17.1562 4.75H16.875V3.0625C16.875 1.51562 13.3594 0.25 9 0.25C4.60547 0.25 1.125 1.51562 1.125 3.0625V4.75H0.84375C0.351562 4.75 0 5.13672 0 5.59375V8.40625C0 8.89844 0.351562 9.25 0.84375 9.25H1.125V14.875C1.125 15.5078 1.61719 16 2.25 16V17.125C2.25 17.7578 2.74219 18.25 3.375 18.25H3.9375C4.53516 18.25 5.0625 17.7578 5.0625 17.125V16H12.9375V17.125C12.9375 17.7578 13.4297 18.25 14.0625 18.25H14.625C15.2227 18.25 15.75 17.7578 15.75 17.125V16C16.3477 16 16.875 15.5078 16.875 14.875V9.25H17.1562C17.6133 9.25 18 8.89844 18 8.40625V5.59375C18 5.13672 17.6133 4.75 17.1562 4.75ZM2.8125 5.875H8.15625V8.125H2.8125V5.875ZM15.1875 14.3125H2.8125V9.8125H15.1875V14.3125ZM15.1875 8.125H9.84375V5.875H15.1875V8.125ZM15.1875 4.1875H11.8125C11.8125 3.58984 11.2852 3.0625 10.6875 3.0625H7.3125C6.67969 3.0625 6.1875 3.58984 6.1875 4.1875H2.8125V3.27344C3.30469 2.78125 5.48438 1.9375 9 1.9375C12.4805 1.9375 14.6602 2.78125 15.1875 3.27344V4.1875ZM12.9375 13.1875C13.5352 13.1875 14.0625 12.6953 14.0625 12.0625C14.0625 11.4648 13.5352 10.9375 12.9375 10.9375C12.3047 10.9375 11.8125 11.4648 11.8125 12.0625C11.8125 12.6953 12.3047 13.1875 12.9375 13.1875Z" fill="white"/>
</svg>
