<svg width="24" height="17" viewBox="0 0 24 17" fill="none" xmlns="http://www.w3.org/2000/svg">
<path d="M19.875 6H19.3125L15.4805 1.25391C15.0586 0.726562 14.4258 0.375 13.7227 0.375H6.19922C5.28516 0.375 4.44141 0.9375 4.08984 1.81641L2.4375 6V6.10547C1.45312 6.35156 0.75 7.23047 0.75 8.25V12.1875C0.75 12.5039 0.996094 12.75 1.3125 12.75H3C3 14.6484 4.47656 16.125 6.375 16.125C8.23828 16.125 9.75 14.6484 9.75 12.75H14.25C14.25 14.6484 15.7266 16.125 17.625 16.125C19.4883 16.125 21 14.6484 21 12.75H22.6875C22.9688 12.75 23.25 12.5039 23.25 12.1875V9.375C23.25 7.51172 21.7383 6 19.875 6ZM10.5938 2.0625H13.7227C13.8984 2.0625 14.0391 2.16797 14.1445 2.27344L17.1328 6H10.5938V2.0625ZM5.67188 2.44922C5.74219 2.20312 5.95312 2.0625 6.19922 2.0625H8.90625V6H4.23047L5.67188 2.44922ZM6.375 14.4375C5.42578 14.4375 4.6875 13.6992 4.6875 12.75C4.6875 11.8359 5.42578 11.0625 6.375 11.0625C7.28906 11.0625 8.0625 11.8359 8.0625 12.75C8.0625 13.6992 7.28906 14.4375 6.375 14.4375ZM17.625 14.4375C16.6758 14.4375 15.9375 13.6992 15.9375 12.75C15.9375 11.8359 16.6758 11.0625 17.625 11.0625C18.5391 11.0625 19.3125 11.8359 19.3125 12.75C19.3125 13.6992 18.5391 14.4375 17.625 14.4375ZM21.5625 11.0625H20.5078C19.9453 10.0781 18.8555 9.375 17.625 9.375C16.3594 9.375 15.2695 10.0781 14.707 11.0625H9.25781C8.69531 10.0781 7.60547 9.375 6.375 9.375C5.10938 9.375 4.01953 10.0781 3.45703 11.0625H2.4375V8.25C2.4375 7.96875 2.68359 7.6875 3 7.6875H19.875C20.7891 7.6875 21.5625 8.46094 21.5625 9.375V11.0625Z" fill="white"/>
</svg>
