<svg width="24" height="14" viewBox="0 0 24 14" fill="none" xmlns="http://www.w3.org/2000/svg">
<path d="M18.75 5C18.1875 5 17.6602 5.10547 17.168 5.28125L16.0078 3.3125H19.0312C19.4883 3.3125 19.875 2.96094 19.875 2.46875V1.34375C19.875 0.886719 19.4883 0.5 19.0312 0.5H17.4141C17.168 0.5 16.957 0.640625 16.7812 0.78125L15.4102 2.32812L14.5664 0.851562C14.4258 0.640625 14.2148 0.5 13.9688 0.5H11.2969C11.0508 0.5 10.875 0.710938 10.875 0.921875V1.48438C10.875 1.73047 11.0508 1.90625 11.2969 1.90625H13.5469L14.6367 3.73438H8.44922C8.30859 3.59375 8.13281 3.45312 7.95703 3.3125C7.28906 2.85547 6.44531 2.60938 5.25 2.60938H3.28125C2.85938 2.60938 2.57812 2.92578 2.57812 3.3125C2.57812 3.73438 2.85938 4.01562 3.28125 4.01562H5.25C6.02344 4.01562 6.55078 4.33203 6.9375 4.75391L6.65625 5.24609C6.19922 5.10547 5.74219 5.03516 5.25 5.03516V5C2.75391 5 0.75 7.03906 0.75 9.5C0.75 11.9961 2.75391 14 5.25 14C7.28906 14 9.01172 12.6641 9.53906 10.7656H12.4219C12.8086 10.7656 13.125 10.4492 13.125 10.0625C13.0195 8.12891 13.9336 6.33594 15.5156 5.24609L15.9375 5.98438C14.918 6.79297 14.25 8.09375 14.25 9.5C14.25 11.9961 16.2539 14 18.75 14C21.2109 14 23.25 11.9961 23.25 9.5C23.25 7.03906 21.2109 5 18.75 5ZM5.25 12.5938C3.52734 12.5938 2.15625 11.2227 2.15625 9.5C2.15625 7.8125 3.52734 6.40625 5.25 6.40625C5.49609 6.40625 5.74219 6.44141 5.95312 6.51172L4.19531 9.74609C3.94922 10.2031 4.26562 10.7656 4.82812 10.7656H8.0625C7.57031 11.8555 6.48047 12.5938 5.25 12.5938ZM11.7188 9.35938H5.98828L8.30859 5.14062H13.5117C12.4219 6.33594 11.8242 7.84766 11.7188 9.35938ZM18.75 12.5938C17.0273 12.5938 15.6562 11.2227 15.6562 9.5C15.6562 8.58594 16.043 7.77734 16.6758 7.21484L18.5391 10.4141C18.6797 10.5898 18.9258 10.6602 19.1367 10.5547L19.6289 10.2734C19.8047 10.1328 19.875 9.88672 19.7695 9.67578L17.9062 6.54688C18.1523 6.47656 18.4336 6.44141 18.7148 6.44141C18.7148 6.44141 18.7148 6.40625 18.75 6.40625C20.4375 6.40625 21.8438 7.8125 21.8438 9.5C21.8438 11.2227 20.4375 12.5938 18.75 12.5938Z" fill="white"/>
</svg>
