<svg width="20" height="20" viewBox="0 0 20 20" fill="none" xmlns="http://www.w3.org/2000/svg">
<path fill-rule="evenodd" clip-rule="evenodd" d="M17.3648 0.137689L1.12338 7.63378C-0.75045 8.50839 -0.12584 11.2568 1.87299 11.2568H8.74447V18.1283C8.74447 20.1271 11.4929 20.7521 12.3675 18.8779L19.8636 2.63652C20.4882 1.13691 18.864 -0.487311 17.3648 0.137689ZM18.0465 1.91567C18.0534 1.92098 18.0603 1.92709 18.0671 1.93388C18.0739 1.9407 18.0801 1.94772 18.0854 1.95465C18.0854 1.95458 18.0855 1.95473 18.0854 1.95465L10.6458 18.0745C10.6454 18.0752 10.6451 18.076 10.6447 18.0767C10.6448 18.0765 10.6446 18.0769 10.6447 18.0767L10.6445 9.35683H1.9241C1.92388 9.35693 1.92432 9.35672 1.9241 9.35683C1.92483 9.35649 1.92623 9.35582 1.92698 9.35547L18.0465 1.91567Z" fill="white"/>
</svg>
