<svg width="19" height="17" viewBox="0 0 19 17" fill="none" xmlns="http://www.w3.org/2000/svg">
<path d="M3.60145 9.33984C4.62098 9.09375 5.18348 7.93359 4.79677 6.70312C4.48036 5.61328 3.5663 4.875 2.65223 4.875C2.54677 4.875 2.40614 4.91016 2.30067 4.94531C1.28114 5.19141 0.718641 6.35156 1.10536 7.58203C1.42177 8.63672 2.33583 9.375 3.24989 9.375C3.35536 9.375 3.49598 9.375 3.60145 9.33984ZM2.4413 7.19531C2.33583 6.84375 2.40614 6.5625 2.47645 6.42188C2.54677 6.31641 2.58192 6.31641 2.61708 6.31641L2.65223 6.28125C2.89833 6.28125 3.28505 6.5625 3.46083 7.08984C3.5663 7.44141 3.49598 7.72266 3.42567 7.86328C3.35536 7.96875 3.3202 7.96875 3.24989 7.96875C3.0038 7.96875 2.61708 7.72266 2.4413 7.19531ZM12.1796 5.96484C12.3202 6 12.4257 6 12.5663 6C13.5507 6 14.535 5.08594 14.9218 3.71484C15.3085 2.20312 14.7811 0.726562 13.6913 0.445312C13.5858 0.410156 13.4452 0.375 13.3046 0.375C12.3202 0.375 11.3358 1.32422 10.9491 2.69531C10.5624 4.20703 11.0897 5.68359 12.1796 5.96484ZM12.3202 3.04688C12.5311 2.23828 13.0936 1.78125 13.3046 1.78125L13.3397 1.81641C13.3749 1.81641 13.41 1.85156 13.4804 1.95703C13.621 2.20312 13.7265 2.73047 13.5507 3.36328C13.3397 4.17188 12.7772 4.59375 12.5311 4.59375C12.496 4.59375 12.4608 4.55859 12.3905 4.45312C12.2499 4.20703 12.1444 3.67969 12.3202 3.04688ZM17.664 4.94531C17.5585 4.91016 17.4179 4.875 17.3124 4.875C16.3983 4.875 15.4843 5.61328 15.1679 6.70312C14.7811 7.93359 15.3436 9.09375 16.3632 9.33984C16.4686 9.375 16.6093 9.375 16.7147 9.375C17.6288 9.375 18.5429 8.63672 18.8593 7.58203C19.246 6.35156 18.6835 5.19141 17.664 4.94531ZM17.5233 7.19531C17.3475 7.6875 16.9608 7.96875 16.6796 7.96875C16.6444 7.96875 16.6093 7.96875 16.539 7.86328C16.4686 7.72266 16.3983 7.44141 16.5038 7.08984C16.6796 6.5625 17.0663 6.28125 17.3124 6.28125L17.3475 6.31641C17.3827 6.31641 17.4179 6.31641 17.4882 6.42188C17.5585 6.5625 17.6288 6.84375 17.5233 7.19531ZM7.39833 6C7.53895 6 7.64442 6 7.78505 5.96484C8.87489 5.68359 9.40224 4.20703 9.01552 2.69531C8.6288 1.32422 7.64442 0.375 6.66005 0.375C6.51942 0.375 6.41395 0.410156 6.27333 0.445312C5.18348 0.726562 4.65614 2.20312 5.04286 3.71484C5.42958 5.08594 6.41395 6 7.39833 6ZM6.48427 1.95703C6.55458 1.85156 6.58973 1.81641 6.62489 1.81641L6.66005 1.78125C6.87098 1.78125 7.43348 2.23828 7.64442 3.04688C7.8202 3.67969 7.71473 4.20703 7.57411 4.45312C7.5038 4.55859 7.46864 4.59375 7.39833 4.59375C7.18739 4.59375 6.62489 4.17188 6.41395 3.36328C6.23817 2.73047 6.34364 2.20312 6.48427 1.95703ZM9.99989 7.125C7.18739 7.125 3.24989 11.4492 3.24989 14.1914C3.24989 15.4219 4.16395 16.125 5.74598 16.125C7.46864 16.125 8.59364 15.2461 9.99989 15.2461C11.371 15.2461 12.496 16.125 14.2186 16.125C15.8007 16.125 16.7499 15.4219 16.7499 14.1914C16.7499 11.4492 12.7772 7.125 9.99989 7.125ZM15.0272 14.2969C14.9921 14.332 14.7811 14.4375 14.2186 14.4375C13.5858 14.4375 13.0233 14.2617 12.3905 14.0508C11.7225 13.8398 10.914 13.5586 9.99989 13.5586C9.05067 13.5586 8.27723 13.8398 7.57411 14.0508C6.9413 14.2617 6.3788 14.4375 5.74598 14.4375C5.18348 14.4375 4.97255 14.332 4.93739 14.2969C4.93739 14.2969 4.93739 14.2617 4.93739 14.1914C4.93739 12.293 8.17177 8.8125 9.99989 8.8125C11.7929 8.8125 15.0624 12.293 15.0624 14.1914C15.0624 14.2617 15.0272 14.2969 15.0272 14.2969Z" fill="white"/>
</svg>
