<svg width="22" height="19" viewBox="0 0 22 19" fill="none" xmlns="http://www.w3.org/2000/svg">
<path d="M9.27723 1.9375L12.828 8.125H16.9061C17.8202 8.125 19.0858 8.82812 19.4022 9.25C19.0858 9.70703 17.8202 10.375 16.9061 10.375H12.828L9.27723 16.5625H7.97645L9.73426 10.375H5.65613L4.39051 12.0625H2.91395L3.7577 9.25L2.91395 6.4375H4.39051L5.65613 8.125H9.73426L7.97645 1.9375H9.27723ZM9.9452 0.25H6.49988C6.11317 0.25 5.83192 0.636719 5.93738 0.988281L7.51942 6.4375H6.49988L5.37488 4.99609C5.26942 4.85547 5.12879 4.75 4.95301 4.75H1.43738C1.05067 4.75 0.769416 5.10156 0.874884 5.45312L1.99988 9.25L0.874884 13.082C0.769416 13.4336 1.05067 13.75 1.43738 13.75H4.95301C5.12879 13.75 5.26942 13.6797 5.37488 13.5391L6.49988 12.0625H7.51942L5.93738 17.5469C5.83192 17.8984 6.11317 18.25 6.49988 18.25H9.9452C10.121 18.25 10.3319 18.1445 10.4374 17.9688L13.8124 12.0625H16.9061C18.453 12.0625 21.1249 10.832 21.1249 9.25C21.1249 7.70312 18.453 6.4375 16.9061 6.4375H13.8124L10.4374 0.566406C10.3319 0.390625 10.1561 0.25 9.9452 0.25Z" fill="white"/>
</svg>
