<svg width="24" height="19" viewBox="0 0 24 19" fill="none" xmlns="http://www.w3.org/2000/svg">
<path d="M17.7656 13.6094L20.4023 11.3945C21.3867 10.5508 21.0703 8.93359 19.8398 8.51172L17.9062 7.84375V3.34375C17.9062 2.88672 17.5195 2.5 17.0625 2.5H15.375V1.09375C15.375 0.636719 14.9883 0.25 14.5312 0.25H9.46875C8.97656 0.25 8.625 0.636719 8.625 1.09375V2.5H6.9375C6.44531 2.5 6.09375 2.88672 6.09375 3.34375V7.84375L4.125 8.51172C2.89453 8.93359 2.57812 10.5508 3.5625 11.3945L6.19922 13.6094C5.35547 15.4023 3.70312 16.5625 1.17188 16.5625C0.925781 16.5625 0.75 16.7734 0.75 16.9844V17.8281C0.75 18.0742 0.925781 18.25 1.17188 18.25C3.31641 18.25 5.17969 17.6523 6.69141 15.9297C6.90234 17.2656 8.0625 18.25 9.46875 18.25H14.5312C15.9023 18.25 17.0625 17.2656 17.2734 15.9297C18.7852 17.6875 20.6484 18.25 22.8281 18.25C23.0391 18.25 23.25 18.0742 23.25 17.8281V16.9844C23.25 16.7734 23.0391 16.5625 22.8281 16.5625C20.2969 16.5625 18.6094 15.4375 17.7656 13.6094ZM10.0312 1.65625H13.9688V2.5H10.0312V1.65625ZM7.78125 4.1875H16.2188V7.24609L12.5273 5.98047C12.3516 5.91016 12.1758 5.91016 12 5.91016C11.7891 5.91016 11.6133 5.91016 11.4375 5.98047L7.78125 7.24609V4.1875ZM15.6562 15.4375C15.6562 16.0703 15.1289 16.5625 14.5312 16.5625H9.46875C8.83594 16.5625 8.34375 16.0703 8.34375 15.4375V13.1875L4.6875 10.0938L12 7.5625L19.3125 10.0938L15.6562 13.1875V15.4375Z" fill="white"/>
</svg>
