<svg width="24" height="19" viewBox="0 0 24 19" fill="none" xmlns="http://www.w3.org/2000/svg">
<path d="M18.0117 0.53125C17.2031 0.355469 16.3594 0.25 15.5508 0.25C15.2344 0.25 14.8828 0.285156 14.5664 0.320312C13.6172 0.390625 12.668 0.601562 11.7539 0.882812L9.75 1.375H7.5C6.23438 1.375 5.25 2.53516 5.25 3.87109C5.25 5.20703 6.23438 6.29688 7.5 6.29688H9.75C11.8594 6.29688 12.5273 6.89453 13.4062 7.49219C14.4258 8.19531 15.8672 8.6875 17.0977 8.6875C20.2617 8.6875 23.25 7.49219 23.25 5.10156C23.25 3.37891 21.8438 1.41016 18.0117 0.53125ZM9.1875 4.60938H7.5C7.18359 4.60938 6.9375 4.29297 6.9375 3.87109C6.9375 3.44922 7.21875 3.0625 7.5 3.0625H9.1875V4.60938ZM17.0977 7C16.2539 7 15.1289 6.64844 14.3906 6.12109L14.25 6.01562C13.5117 5.48828 12.5977 4.85547 10.875 4.67969V2.85156L12.1758 2.5H12.2109H12.2461C13.1953 2.18359 14.0039 2.04297 14.707 1.97266C14.9883 1.97266 15.2695 1.9375 15.5508 1.9375C16.2891 1.9375 16.9922 2.04297 17.625 2.18359C20.5078 2.85156 21.5625 4.11719 21.5625 5.10156C21.5625 6.29688 19.2773 7 17.0977 7ZM12.5977 9.8125C11.3672 9.8125 9.92578 10.3398 8.90625 11.043C8.02734 11.6406 7.35938 12.2383 5.25 12.2383H3C1.73438 12.2383 0.75 13.3281 0.75 14.6641C0.75 16 1.73438 17.125 3 17.125H5.25L7.25391 17.6523C8.16797 17.9336 9.11719 18.1445 10.0664 18.2148C10.3828 18.25 10.7344 18.25 11.0508 18.25C11.8594 18.25 12.7031 18.1797 13.5117 18.0039C17.3438 17.125 18.75 15.1562 18.75 13.4336C18.75 11.043 15.7617 9.8125 12.5977 9.8125ZM4.6875 15.4375H3C2.71875 15.4375 2.4375 15.0859 2.4375 14.6641C2.4375 14.2422 2.68359 13.9258 3 13.9258H4.6875V15.4375ZM13.125 16.3516C12.457 16.4922 11.7891 16.5625 11.0508 16.5625C10.7695 16.5625 10.4883 16.5625 10.207 16.5625C9.50391 16.4922 8.69531 16.3164 7.74609 16.0352H7.71094H7.67578L6.375 15.6836V13.8555C8.09766 13.6797 9.01172 13.0469 9.75 12.5195L9.89062 12.4141C10.6289 11.8867 11.7539 11.5 12.5977 11.5C14.7773 11.5 17.0625 12.2383 17.0625 13.4336C17.0625 14.418 16.0078 15.6836 13.125 16.3516Z" fill="white"/>
</svg>
