<svg width="24" height="17" viewBox="0 0 24 17" fill="none" xmlns="http://www.w3.org/2000/svg">
<path d="M22.8281 6.66797L18.293 1.21875C17.8711 0.691406 17.2383 0.375 16.5703 0.375H1.875C1.24219 0.375 0.75 0.902344 0.75 1.5V11.625C0.75 12.2578 1.24219 12.75 1.875 12.75H3C3 14.6133 4.51172 16.125 6.375 16.125C8.20312 16.125 9.75 14.6133 9.75 12.75H14.25C14.25 14.6133 15.7617 16.125 17.625 16.125C19.4531 16.125 21 14.6133 21 12.75H22.125C22.7227 12.75 23.25 12.2578 23.25 11.625V7.75781C23.2148 7.33594 23.0742 6.94922 22.8281 6.66797ZM13.9688 2.0625H16.5703C16.7109 2.0625 16.8867 2.16797 16.9922 2.27344L20.0859 6H13.9688V2.0625ZM8.34375 2.0625H12.2812V6H8.34375V2.0625ZM2.4375 2.0625H6.65625V6H2.4375V2.0625ZM6.375 14.4375C5.42578 14.4375 4.6875 13.6992 4.6875 12.75C4.6875 11.8359 5.42578 11.0625 6.375 11.0625C7.28906 11.0625 8.0625 11.8359 8.0625 12.75C8.0625 13.6992 7.28906 14.4375 6.375 14.4375ZM17.625 14.4375C16.6758 14.4375 15.9375 13.6992 15.9375 12.75C15.9375 11.8359 16.6758 11.0625 17.625 11.0625C18.5391 11.0625 19.3125 11.8359 19.3125 12.75C19.3125 13.6992 18.5391 14.4375 17.625 14.4375ZM21.5625 11.0625H20.5078C19.9102 10.0781 18.8555 9.375 17.625 9.375C16.3594 9.375 15.3047 10.0781 14.707 11.0625H9.25781C8.66016 10.0781 7.60547 9.375 6.375 9.375C5.10938 9.375 4.05469 10.0781 3.45703 11.0625H2.4375V7.6875H21.4922L21.5625 7.75781V11.0625Z" fill="white"/>
</svg>
