<svg width="24" height="19" viewBox="0 0 24 19" fill="none" xmlns="http://www.w3.org/2000/svg">
<path d="M22.125 5.875H19.3125V4.1875C19.3125 3.83594 19.418 3.48438 19.6289 3.16797C19.7695 3.02734 19.7344 2.81641 19.5938 2.67578L19.0312 2.04297C18.8555 1.83203 18.5391 1.83203 18.3984 2.04297C17.8711 2.64062 17.625 3.41406 17.625 4.1875V5.875H13.5469L11.5078 1.12891C11.2617 0.601562 10.7695 0.25 10.207 0.25H5.53125C4.72266 0.25 4.125 0.882812 4.125 1.65625V6.75391C3.70312 6.78906 3.28125 6.96484 3 7.24609L2.08594 8.16016C1.76953 8.47656 1.59375 8.93359 1.59375 9.39062C1.59375 9.56641 1.59375 9.74219 1.66406 9.88281C1.10156 10.1992 0.75 10.7969 0.75 11.4297V12.6953C0.75 13.3633 1.10156 13.9609 1.66406 14.2422C1.59375 14.418 1.59375 14.5938 1.59375 14.7695C1.59375 15.2266 1.76953 15.6836 2.08594 16L3 16.9141C3.31641 17.2305 3.77344 17.4062 4.23047 17.4062C4.40625 17.4062 4.58203 17.4062 4.75781 17.3359C5.03906 17.8984 5.63672 18.25 6.30469 18.25H7.57031C8.23828 18.25 8.80078 17.8984 9.11719 17.3359C9.25781 17.4062 9.43359 17.4062 9.60938 17.4062C10.0664 17.4062 10.5234 17.2305 10.8398 16.9141L11.7539 16C12.0703 15.6836 12.2461 15.2266 12.2461 14.7695C12.2461 14.5938 12.2461 14.418 12.1758 14.2422C12.4219 14.1367 12.5977 13.9609 12.7383 13.75H15.5508C15.4453 14.1367 15.375 14.4883 15.375 14.875C15.375 16.7734 16.8516 18.25 18.75 18.25C20.6133 18.25 22.125 16.7734 22.125 14.875C22.125 13.9609 21.7383 13.1172 21.1055 12.5195L22.8984 10.7266C23.1094 10.5156 23.25 10.2344 23.25 9.91797V7C23.25 6.40234 22.7227 5.875 22.125 5.875ZM5.8125 1.9375H10.0312L11.7188 5.875H6.26953C6.12891 5.875 5.95312 5.91016 5.8125 5.98047V1.9375ZM11.4375 12.6953C11.4375 12.7656 11.4023 12.7656 11.3672 12.7656H10.7344C10.4883 13.5742 10.4883 13.5391 10.1016 14.2773L10.5586 14.6992C10.5586 14.7344 10.5586 14.8047 10.5586 14.8047L9.64453 15.7188H9.53906L9.11719 15.2617C8.37891 15.6484 8.41406 15.6484 7.64062 15.8945V16.4922C7.64062 16.5625 7.60547 16.5625 7.57031 16.5625H6.30469C6.23438 16.5625 6.23438 16.5625 6.23438 16.4922V15.8945C5.42578 15.6484 5.46094 15.6484 4.72266 15.2617L4.30078 15.7188H4.19531L3.28125 14.8047C3.28125 14.8047 3.28125 14.7344 3.28125 14.6992L3.73828 14.2773C3.35156 13.5391 3.35156 13.5742 3.10547 12.7656H2.50781C2.4375 12.7656 2.4375 12.7656 2.4375 12.6953V11.4297C2.4375 11.3945 2.4375 11.3594 2.50781 11.3594H3.10547C3.35156 10.5859 3.35156 10.6211 3.73828 9.88281L3.28125 9.46094C3.28125 9.42578 3.28125 9.35547 3.28125 9.35547L4.19531 8.44141H4.30078L4.72266 8.89844C5.46094 8.51172 5.42578 8.51172 6.23438 8.26562V7.63281C6.23438 7.59766 6.23438 7.5625 6.30469 7.5625H7.57031C7.60547 7.5625 7.64062 7.59766 7.64062 7.63281V8.26562C8.41406 8.51172 8.37891 8.47656 9.11719 8.89844L9.53906 8.44141H9.64453L10.5586 9.35547C10.5586 9.35547 10.5586 9.42578 10.5586 9.46094L10.1016 9.88281C10.5234 10.6211 10.4883 10.5859 10.7344 11.3594H11.3672C11.4023 11.3594 11.4375 11.3945 11.4375 11.4297V12.6953ZM18.75 16.5625C17.8008 16.5625 17.0625 15.8242 17.0625 14.875C17.0625 13.9609 17.8008 13.1875 18.75 13.1875C19.6641 13.1875 20.4375 13.9609 20.4375 14.875C20.4375 15.8242 19.6641 16.5625 18.75 16.5625ZM21.5625 9.70703L19.5938 11.6406C19.3125 11.5703 19.0312 11.5 18.75 11.5C18.0469 11.5 17.4141 11.7109 16.8867 12.0625H13.125V11.4297C13.125 10.7969 12.7383 10.1992 12.1758 9.88281C12.2461 9.74219 12.2461 9.56641 12.2461 9.39062C12.2461 8.93359 12.0703 8.47656 11.7539 8.16016L11.1562 7.5625H21.5625V9.70703ZM8.16797 10.1992C7.81641 9.98828 7.39453 9.8125 6.9375 9.8125C6.44531 9.8125 6.02344 9.98828 5.67188 10.1992C5.42578 10.375 5.21484 10.5859 5.03906 10.832C4.82812 11.1836 4.6875 11.6055 4.6875 12.0625C4.6875 13.3281 5.67188 14.3125 6.9375 14.3125C8.16797 14.3125 9.1875 13.3281 9.1875 12.0625C9.1875 11.6055 9.01172 11.1836 8.80078 10.832C8.625 10.5859 8.41406 10.375 8.16797 10.1992ZM6.9375 12.625C6.62109 12.625 6.375 12.3789 6.375 12.0625C6.375 11.7812 6.62109 11.5 6.9375 11.5C7.21875 11.5 7.5 11.7812 7.5 12.0625C7.5 12.3789 7.21875 12.625 6.9375 12.625Z" fill="white"/>
</svg>
