<svg width="24" height="17" viewBox="0 0 24 17" fill="none" xmlns="http://www.w3.org/2000/svg">
<path d="M22.6875 11.0625H22.125V6.5625C22.125 5.96484 21.5977 5.4375 21 5.4375H18.8555L15.4805 1.25391C15.0586 0.726562 14.4258 0.375 13.7227 0.375H9.75C9.11719 0.375 8.625 0.902344 8.625 1.5V5.4375H3C2.36719 5.4375 1.875 5.96484 1.875 6.5625V11.0625H1.3125C0.996094 11.0625 0.75 11.3438 0.75 11.625V12.1875C0.75 12.5039 0.996094 12.75 1.3125 12.75H3.03516C3.31641 14.6836 4.93359 16.125 6.9375 16.125C8.90625 16.125 10.5234 14.6836 10.8047 12.75H13.1602C13.4414 14.6836 15.0586 16.125 17.0625 16.125C19.0312 16.125 20.6484 14.6836 20.9297 12.75H22.6875C22.9688 12.75 23.25 12.5039 23.25 12.1875V11.625C23.25 11.3438 22.9688 11.0625 22.6875 11.0625ZM10.3125 2.0625H13.7227C13.8984 2.0625 14.0391 2.16797 14.1445 2.27344L16.6758 5.4375H10.3125V2.0625ZM6.9375 14.4375C5.67188 14.4375 4.6875 13.4531 4.6875 12.1875C4.6875 10.957 5.67188 9.9375 6.9375 9.9375C8.16797 9.9375 9.1875 10.957 9.1875 12.1875C9.1875 13.4531 8.16797 14.4375 6.9375 14.4375ZM17.0625 14.4375C15.7969 14.4375 14.8125 13.4531 14.8125 12.1875C14.8125 10.957 15.7969 9.9375 17.0625 9.9375C18.293 9.9375 19.3125 10.957 19.3125 12.1875C19.3125 13.4531 18.293 14.4375 17.0625 14.4375ZM20.4375 10.2188C19.7344 9.05859 18.5039 8.25 17.0625 8.25C15.2695 8.25 13.793 9.44531 13.3008 11.0625H10.6641C10.1719 9.44531 8.69531 8.25 6.9375 8.25C5.49609 8.25 4.23047 9.05859 3.5625 10.2188V7.125H20.4375V10.2188Z" fill="white"/>
</svg>
