<svg width="24" height="19" viewBox="0 0 24 19" fill="none" xmlns="http://www.w3.org/2000/svg">
<path d="M22.6875 13.1875H22.125V9.10938C22.125 8.44141 21.8438 7.80859 21.3516 7.31641L18.4336 4.39844C17.9414 3.90625 17.3086 3.625 16.6406 3.625H15.375V2.21875C15.375 1.16406 14.4609 0.25 13.4062 0.25H2.71875C1.62891 0.25 0.75 1.16406 0.75 2.21875V12.9062C0.75 13.9961 1.62891 14.875 2.71875 14.875H3C3 16.7383 4.51172 18.25 6.375 18.25C8.23828 18.25 9.75 16.7383 9.75 14.875H14.25C14.25 16.7383 15.7617 18.25 17.625 18.25C19.4883 18.25 21 16.7383 21 14.875H22.6875C22.9688 14.875 23.25 14.6289 23.25 14.3125V13.75C23.25 13.4688 22.9688 13.1875 22.6875 13.1875ZM6.375 16.5625C5.42578 16.5625 4.6875 15.8242 4.6875 14.875C4.6875 13.9609 5.42578 13.1875 6.375 13.1875C7.28906 13.1875 8.0625 13.9609 8.0625 14.875C8.0625 15.8242 7.28906 16.5625 6.375 16.5625ZM13.6875 13.1875H9.25781C8.69531 12.2031 7.60547 11.5 6.375 11.5C5.10938 11.5 4.01953 12.2031 3.45703 13.1875H2.71875C2.54297 13.1875 2.4375 13.082 2.4375 12.9062V2.21875C2.4375 2.07812 2.54297 1.9375 2.71875 1.9375H13.4062C13.5469 1.9375 13.6875 2.07812 13.6875 2.21875V13.1875ZM15.375 5.3125H16.6406C16.8516 5.3125 17.0625 5.41797 17.2383 5.55859L19.8047 8.125H15.375V5.3125ZM17.625 16.5625C16.6758 16.5625 15.9375 15.8242 15.9375 14.875C15.9375 13.9609 16.6758 13.1875 17.625 13.1875C18.5391 13.1875 19.3125 13.9609 19.3125 14.875C19.3125 15.8242 18.5391 16.5625 17.625 16.5625ZM20.4375 13.0469C19.8047 12.1328 18.7852 11.5 17.625 11.5C16.7461 11.5 15.9727 11.8516 15.375 12.3789V9.8125H20.4375V13.0469Z" fill="white"/>
</svg>
