<svg width="24" height="17" viewBox="0 0 24 17" fill="none" xmlns="http://www.w3.org/2000/svg">
<path d="M1.875 9.9375H13.6875C14.2852 9.9375 14.8125 9.44531 14.8125 8.8125V1.5C14.8125 0.902344 14.2852 0.375 13.6875 0.375H1.875C1.24219 0.375 0.75 0.902344 0.75 1.5V8.8125C0.75 9.44531 1.24219 9.9375 1.875 9.9375ZM2.4375 2.0625H13.125V8.25H2.4375V2.0625ZM22.582 6.49219L20.5078 4.41797C20.0859 3.99609 19.5234 3.78516 18.9258 3.78516H17.0625C16.4297 3.78516 15.9375 4.27734 15.9375 4.91016V11.0977H1.875C1.24219 11.0977 0.75 11.5898 0.75 12.2227V13.1719C0.75 14.6133 1.73438 15.9141 3.17578 16.125C4.23047 16.2656 5.21484 15.7734 5.8125 15C6.44531 15.8789 7.57031 16.3711 8.80078 16.0547C9.67969 15.8086 10.418 15.1406 10.6992 14.2617C10.875 13.7344 10.9102 13.2422 10.8047 12.7852H16.5352C16.4648 13.2422 16.4648 13.7344 16.6406 14.2617C16.9219 15.1406 17.6953 15.8438 18.6094 16.0547C20.4375 16.5117 22.125 15.1055 22.125 13.3477C22.125 13.1367 22.0898 12.9609 22.0547 12.7852H22.6875C22.9688 12.7852 23.25 12.5039 23.25 12.2227V8.07422C23.25 7.47656 23.0039 6.91406 22.582 6.49219ZM3.5625 14.4375C2.92969 14.4375 2.4375 13.9453 2.4375 13.3125C2.4375 12.7148 2.92969 12.1875 3.5625 12.1875C4.16016 12.1875 4.6875 12.7148 4.6875 13.3125C4.6875 13.9453 4.16016 14.4375 3.5625 14.4375ZM8.0625 14.4375C7.42969 14.4375 6.9375 13.9453 6.9375 13.3125C6.9375 12.7148 7.42969 12.1875 8.0625 12.1875C8.66016 12.1875 9.1875 12.7148 9.1875 13.3125C9.1875 13.9453 8.66016 14.4375 8.0625 14.4375ZM17.625 5.4375H18.9258C19.0664 5.4375 19.207 5.50781 19.3125 5.61328L20.8594 7.125H17.625V5.4375ZM19.3125 14.4375C18.6797 14.4375 18.1875 13.9453 18.1875 13.3125C18.1875 12.7148 18.6797 12.1875 19.3125 12.1875C19.9102 12.1875 20.4375 12.7148 20.4375 13.3125C20.4375 13.9453 19.9102 14.4375 19.3125 14.4375ZM21.5625 11.0625H20.9648C20.5078 10.7461 19.9102 10.5 19.3125 10.5C18.6797 10.5 18.082 10.7461 17.625 11.0625V8.25H21.5625V11.0625ZM5.53125 3.1875H4.40625C4.23047 3.1875 4.125 3.32812 4.125 3.46875V6.84375C4.125 7.01953 4.23047 7.125 4.40625 7.125H5.53125C5.67188 7.125 5.8125 7.01953 5.8125 6.84375V3.46875C5.8125 3.32812 5.67188 3.1875 5.53125 3.1875ZM11.1562 3.1875H10.0312C9.85547 3.1875 9.75 3.32812 9.75 3.46875V6.84375C9.75 7.01953 9.85547 7.125 10.0312 7.125H11.1562C11.2969 7.125 11.4375 7.01953 11.4375 6.84375V3.46875C11.4375 3.32812 11.2969 3.1875 11.1562 3.1875ZM8.34375 3.1875H7.21875C7.04297 3.1875 6.9375 3.32812 6.9375 3.46875V6.84375C6.9375 7.01953 7.04297 7.125 7.21875 7.125H8.34375C8.48438 7.125 8.625 7.01953 8.625 6.84375V3.46875C8.625 3.32812 8.48438 3.1875 8.34375 3.1875Z" fill="white"/>
</svg>
