<svg width="16" height="19" viewBox="0 0 16 19" fill="none" xmlns="http://www.w3.org/2000/svg">
<path d="M11.1289 10.9375C10.1094 10.9375 9.65234 11.5 8 11.5C6.3125 11.5 5.85547 10.9375 4.83594 10.9375C2.23438 10.9375 0.125 13.082 0.125 15.6836V16.5625C0.125 17.5117 0.863281 18.25 1.8125 18.25H14.1875C15.1016 18.25 15.875 17.5117 15.875 16.5625V15.6836C15.875 13.082 13.7305 10.9375 11.1289 10.9375ZM14.1875 16.5625H1.8125V15.6836C1.8125 13.9961 3.14844 12.625 4.83594 12.625C5.36328 12.625 6.17188 13.1875 8 13.1875C9.79297 13.1875 10.6016 12.625 11.1289 12.625C12.8164 12.625 14.1875 13.9961 14.1875 15.6836V16.5625ZM8 10.375C10.7773 10.375 13.0625 8.125 13.0625 5.3125C13.0625 2.53516 10.7773 0.25 8 0.25C5.1875 0.25 2.9375 2.53516 2.9375 5.3125C2.9375 8.125 5.1875 10.375 8 10.375ZM8 1.9375C9.82812 1.9375 11.375 3.48438 11.375 5.3125C11.375 7.17578 9.82812 8.6875 8 8.6875C6.13672 8.6875 4.625 7.17578 4.625 5.3125C4.625 3.48438 6.13672 1.9375 8 1.9375Z" fill="white"/>
</svg>
