<svg width="22" height="22" viewBox="0 0 22 22" fill="none" xmlns="http://www.w3.org/2000/svg">
<path fill-rule="evenodd" clip-rule="evenodd" d="M14.5857 3.42076C12.7245 5.30215 11.2017 6.91968 11.2017 7.01502C11.2017 7.11049 11.3157 7.2917 11.4551 7.41791C11.7046 7.64369 11.7217 7.6341 12.5718 6.79049C13.0465 6.31939 13.4566 5.95882 13.4831 5.98932C13.5095 6.01981 13.5966 6.7076 13.6768 7.51786C13.8149 8.91484 13.8094 9.01204 13.5726 9.39539L13.3228 9.79952L13.6123 10.192L13.9017 10.5843L16.7524 6.323L19.603 2.06187L19.6355 7.27988C19.6671 12.3594 19.6613 12.5049 19.4176 12.7642C19.0979 13.1047 19.094 13.7188 19.4101 14.0047C19.5686 14.1482 19.6656 14.4231 19.6901 14.7977C19.7227 15.2985 19.7827 15.4069 20.1631 15.6519C20.8487 16.0937 21.0343 16.3274 21.0343 16.7487C21.0343 17.2466 20.5916 17.6821 20.0855 17.6821C19.5828 17.6821 19.3315 17.4669 19.1406 16.873C19.0121 16.4731 18.9142 16.3675 18.6427 16.3362C18.3702 16.3047 18.2896 16.3578 18.2264 16.6097C18.0276 17.4016 18.8618 18.4587 19.8121 18.6193C20.9281 18.8078 22.1805 17.59 21.9784 16.5126C21.8695 15.9321 21.4233 15.3136 20.9438 15.0785C20.4671 14.8449 20.4111 14.4578 20.7854 13.9821C21.1011 13.5807 21.1015 13.1959 20.7865 12.7955C20.5478 12.4919 20.5376 12.2563 20.5065 6.27546L20.4792 1.03766C20.4764 0.498349 20.0465 0.0584148 19.5074 0.0432507L19.222 0.0352232L18.4037 0.0122035C18.127 0.00441856 17.8594 0.111705 17.6647 0.308514L14.5857 3.42076ZM19.0281 1.1595C18.9466 1.31359 18.5972 1.85961 18.2517 2.37302C17.6661 3.24315 17.6175 3.28534 17.5365 2.99534C17.3249 2.23736 17.4096 1.83908 17.8858 1.35143C18.237 0.991727 18.4453 0.87946 18.7614 0.87946C19.1524 0.87946 19.1676 0.895516 19.0281 1.1595ZM16.6386 4.19654C16.615 4.22007 16.2361 4.27446 15.7968 4.31727L14.9978 4.39506L15.7446 3.62837L16.4914 2.86179L16.5865 3.50764C16.6387 3.86298 16.6621 4.17289 16.6386 4.19654ZM16.2288 5.39127C16.1276 5.5649 14.805 7.50877 14.7327 7.59017C14.6288 7.70704 14.5832 7.48674 14.4986 6.45817L14.4097 5.37795L14.8283 5.3268C15.7968 5.20818 16.3214 5.23233 16.2288 5.39127ZM2.03879 6.96698C1.82521 7.09717 1.58724 7.3853 1.50982 7.60735C1.29537 8.22232 1.31939 13.8387 1.53857 14.3566C1.84326 15.0764 2.15716 15.2494 3.2487 15.299L4.23172 15.3436V15.8283V16.313H3.19817C2.34174 16.313 1.94071 16.2513 1.41635 16.5126C0.484736 16.9768 5.52214e-10 17.815 5.52214e-10 18.8392C-1.32939e-05 20.0469 0.24002 20.4517 0.746782 21.184C1.65638 22.0075 1.53857 21.7743 8.09411 21.7743C14.3637 21.7337 14.4738 21.9985 15.3512 21.184C16.7454 19.8895 16.4054 17.5036 14.6982 16.6025C14.2437 16.3626 13.9609 16.313 13.0491 16.313H11.9485V15.8151C11.9485 15.3653 11.979 15.3172 12.2636 15.3172C12.7958 15.3172 13.415 14.9838 13.6205 14.5864C13.8459 14.1504 13.8972 11.8147 13.6931 11.2778C13.5335 10.858 10.7944 7.31635 10.3729 6.9849C10.0611 6.73958 9.89307 6.72925 6.23745 6.72975C2.71189 6.73012 2.39799 6.74792 2.03879 6.96698ZM9.46925 7.69571C9.6713 7.69571 9.86068 7.76476 9.99188 7.91842C10.7449 8.80038 12.9949 11.8945 12.8303 11.8945C12.7849 11.8945 11.8346 11.8945 10.6522 11.8945H8.83687L8.38295 9.90308C8.08573 8.8078 7.84153 7.78135 7.84116 7.69571C8.08703 7.69571 8.95851 7.69571 9.46925 7.69571ZM10.9528 15.8151V16.313H8.09009H5.22743V15.8151V15.3172H8.09009H10.9528V15.8151ZM2.87318 18.0472C3.43327 18.0472 3.86889 18.4855 3.86889 19.0429C3.86889 19.6004 3.37103 20.0469 2.87318 20.0469C2.37532 20.0469 1.87747 19.603 1.87747 19.0429C1.87747 18.4829 2.31309 18.0472 2.87318 18.0472ZM5.73584 18.0472C6.29593 18.0472 6.73155 18.4829 6.73155 19.0429C6.73155 19.603 6.29593 20.0469 5.73584 20.0469C5.17576 20.0469 4.74013 19.603 4.74013 19.0429C4.74013 18.4829 5.17576 18.0472 5.73584 18.0472ZM10.4655 18.0472C11.0256 18.0472 11.4612 18.4829 11.4612 19.0429C11.4612 19.603 11.0256 20.0469 10.4655 20.0469C9.90538 20.0469 9.46975 19.603 9.46975 19.0429C9.46975 18.4679 9.90538 18.0472 10.4655 18.0472ZM13.4526 18.0472C14.0127 18.0472 14.4483 18.4829 14.4483 19.0429C14.4483 19.603 14.0127 20.0469 13.4526 20.0469C12.8925 20.0469 12.4569 19.603 12.4569 19.0429C12.4569 18.4829 12.8925 18.0472 13.4526 18.0472Z" fill="white"/>
</svg>
