<svg width="24" height="24" viewBox="0 0 24 24" fill="none" stroke="currentColor" xmlns="http://www.w3.org/2000/svg">
<path d="M8.25 5.99982L15.007 5.98682C16.67 5.98382 18.019 7.33482 18.012 8.99782V9.01182C18.005 10.6638 16.664 11.9998 15.013 11.9998H9.999C8.343 11.9998 7 13.3428 7 14.9988V14.9988C7 16.6558 8.344 17.9988 10.001 17.9978L20 17.9948" stroke-width="1.5" stroke-linecap="round" stroke-linejoin="round"/>
<path d="M19.9999 17.9951L18.0029 19.9921" stroke-width="1.5" stroke-linecap="round" stroke-linejoin="round"/>
<path d="M18.0029 15.9971L19.9999 17.9951" stroke-width="1.5" stroke-linecap="round" stroke-linejoin="round"/>
<path d="M7.59099 4.40901C8.46967 5.28769 8.46967 6.71231 7.59099 7.59099C6.71231 8.46967 5.28769 8.46967 4.40901 7.59099C3.53033 6.71231 3.53033 5.28769 4.40901 4.40901C5.28769 3.53033 6.71231 3.53033 7.59099 4.40901" stroke-width="1.5" stroke-linecap="round" stroke-linejoin="round"/>
</svg>
