<svg width="24" height="24" viewBox="0 0 24 24" fill="none" stroke="currentColor" xmlns="http://www.w3.org/2000/svg">
<path d="M12 2.99622V5.43723" stroke-width="1.5" stroke-linecap="round" stroke-linejoin="round"/>
<path d="M16.0017 7.99835L13.4006 10.5994" stroke-width="1.5" stroke-linecap="round" stroke-linejoin="round"/>
<path d="M11.981 9.99915C13.086 9.99915 13.9818 10.8949 13.9818 12C13.9818 13.105 13.086 14.0008 11.981 14.0008C10.876 14.0008 9.98016 13.105 9.98016 12C9.98016 10.8949 10.876 9.99915 11.981 9.99915" stroke-width="1.5" stroke-linecap="round" stroke-linejoin="round"/>
<path d="M3.51947 15.0012C4.78712 18.5983 8.18611 21.0043 12 21.0043C15.8139 21.0043 19.2129 18.5983 20.4805 15.0012" stroke-width="1.5" stroke-linecap="round" stroke-linejoin="round"/>
<path d="M4.99705 12H2.99622C2.99622 8.78324 4.71232 5.81085 7.49809 4.20249C10.2839 2.59412 13.7161 2.59412 16.5018 4.20249C19.2876 5.81085 21.0037 8.78324 21.0037 12H19.0029" stroke-width="1.5" stroke-linecap="round" stroke-linejoin="round"/>
<path d="M5.63733 5.63733L7.04792 7.04792" stroke-width="1.5" stroke-linecap="round" stroke-linejoin="round"/>
</svg>
