<svg class="w-6 h-6" viewBox="0 0 24 24" fill="none" stroke="currentColor" xmlns="http://www.w3.org/2000/svg">
    <path fill-rule="evenodd" clip-rule="evenodd" d="M8 10H5C3.895 10 3 9.105 3 8V5C3 3.895 3.895 3 5 3H8C9.105 3 10 3.895 10 5V8C10 9.105 9.105 10 8 10Z" stroke-width="1.5" stroke-linecap="round" stroke-linejoin="round"/>
    <path fill-rule="evenodd" clip-rule="evenodd" d="M19 10H16C14.895 10 14 9.105 14 8V5C14 3.895 14.895 3 16 3H19C20.105 3 21 3.895 21 5V8C21 9.105 20.105 10 19 10Z" stroke-width="1.5" stroke-linecap="round" stroke-linejoin="round"/>
    <path fill-rule="evenodd" clip-rule="evenodd" d="M8 21H5C3.895 21 3 20.105 3 19V16C3 14.895 3.895 14 5 14H8C9.105 14 10 14.895 10 16V19C10 20.105 9.105 21 8 21Z" stroke-width="1.5" stroke-linecap="round" stroke-linejoin="round"/>
    <path d="M17.5 15V20" stroke-width="1.5" stroke-linecap="round" stroke-linejoin="round"/>
    <path d="M20 17.5H15" stroke-width="1.5" stroke-linecap="round" stroke-linejoin="round"/>
</svg>
