<svg width="24" height="24" viewBox="0 0 24 24" fill="none" stroke="currentColor" xmlns="http://www.w3.org/2000/svg">
<path fill-rule="evenodd" clip-rule="evenodd" d="M12.8005 2.99658C13.2226 2.99658 13.5992 3.26161 13.7419 3.65886L14.2501 5.07445C14.3308 5.29705 14.4874 5.48409 14.6923 5.60267L16.1999 6.47303C16.4046 6.59115 16.6446 6.63297 16.8772 6.59108L18.3578 6.32397C18.7736 6.24837 19.192 6.44217 19.4033 6.80817L20.2036 8.18874C20.4154 8.55375 20.3754 9.01241 20.1035 9.33522L19.1321 10.4837C18.9791 10.6643 18.8951 10.8933 18.895 11.13V12.8707C18.8951 13.1074 18.9791 13.3364 19.1321 13.517L20.1035 14.6654C20.3754 14.9882 20.4154 15.4469 20.2036 15.8119L19.4033 17.1925C19.1922 17.5581 18.7743 17.7518 18.3588 17.6767L16.8782 17.4096C16.6456 17.3677 16.4056 17.4095 16.2009 17.5276L14.6933 18.398C14.4884 18.5166 14.3318 18.7036 14.2511 18.9262L13.7429 20.3418C13.6001 20.7394 13.223 21.0044 12.8005 21.0041H11.1998C10.7777 21.0041 10.4011 20.7391 10.2584 20.3418L9.75023 18.9262C9.66959 18.7039 9.51345 18.517 9.30905 18.398L7.80042 17.5276C7.59569 17.4095 7.35576 17.3677 7.12314 17.4096L5.64252 17.6767C5.22675 17.7523 4.80832 17.5585 4.59709 17.1925L3.79675 15.8119C3.58495 15.4469 3.62498 14.9882 3.8968 14.6654L4.8682 13.517C5.02119 13.3364 5.1052 13.1074 5.1053 12.8707V11.13C5.1052 10.8933 5.02119 10.6643 4.8682 10.4837L3.9068 9.33522C3.63498 9.01241 3.59496 8.55375 3.80676 8.18874L4.60709 6.80817C4.81819 6.44256 5.23609 6.24882 5.65153 6.32397L7.13214 6.59108C7.36476 6.63297 7.6047 6.59115 7.80942 6.47303L9.31805 5.60267C9.52245 5.48371 9.67859 5.29677 9.75924 5.07445L10.2674 3.65886C10.409 3.2647 10.7811 3.00042 11.1998 2.99658H12.8005Z" stroke-width="1.5" stroke-linecap="round" stroke-linejoin="round"/>
<path fill-rule="evenodd" clip-rule="evenodd" d="M12.0002 14.7513C13.5196 14.7513 14.7513 13.5196 14.7513 12.0002C14.7513 10.4808 13.5196 9.24902 12.0002 9.24902C10.4808 9.24902 9.24902 10.4808 9.24902 12.0002C9.24902 13.5196 10.4808 14.7513 12.0002 14.7513Z" stroke-width="1.5" stroke-linecap="round" stroke-linejoin="round"/>
</svg>
