<svg xmlns="http://www.w3.org/2000/svg"  viewBox="0 0 100 100" width="100px" height="100px"><path fill="#ead6c7" d="M25,40v25c0,8.354,12.601,23.306,25,23.306S75,73.354,75,65V40"/><path fill="#444445" d="M25,31l1.377-13.567C26.739,13.781,29.791,11,33.435,11h33.13c3.644,0,6.696,2.781,7.058,6.433 L75,31h0.079l10.181,2.489c2.002,0.262,2.392,2.917,0.56,3.753C80.968,39.455,70.849,43,50,43c-20.838,0-30.968-3.574-35.828-5.803 c-1.807-0.829-1.367-3.476,0.611-3.732L24.921,31H25z"/><path fill="#b77748" d="M53.5,67.5h-7c-5.523,0-10,4.477-10,10v0c0,7.18,5.82,13,13,13h1c7.18,0,13-5.82,13-13v0 C63.5,71.977,59.023,67.5,53.5,67.5z M54.64,83.446c-0.034,0.007-0.068,0.014-0.102,0.021c-1.06,0.212-2.038-0.645-2.038-1.726 V79.5c0-0.552-0.448-1-1-1h-3c-0.552,0-1,0.448-1,1v2.241c0,1.081-0.978,1.939-2.038,1.726c-0.034-0.007-0.069-0.014-0.103-0.021 c-2.273-0.482-3.859-2.548-3.859-4.871V77.5c0-2.761,2.239-5,5-5h7c2.761,0,5,2.239,5,5v0.911 C58.5,80.734,56.913,82.965,54.64,83.446z"/><path fill="#ead6c7" d="M25,44.074c-4.232,0.34-6,1.884-6,5.081c0,3.612,2.553,8.829,6,10.38V44.074z"/><path fill="#ead6c7" d="M75,44.074c4.232,0.34,6,1.884,6,5.081c0,3.612-2.553,8.829-6,10.38V44.074z"/><path fill="#656566" d="M75.099,31.976l-0.828-8.158l-0.078,0.029C71.651,24.795,64.205,27,50,27 s-21.651-2.205-24.193-3.153l-0.078-0.029l-0.828,8.158C28.968,33.227,37.017,35,50,35C62.983,35,71.033,33.227,75.099,31.976z"/><g><path fill="#1f212b" d="M50,44c-15.524,0-27.719-1.983-36.245-5.895c-1.228-0.563-1.891-1.786-1.689-3.114 c0.199-1.313,1.212-2.313,2.529-2.51l9.484-2.306l1.303-12.844C25.797,13.153,29.259,10,33.435,10h33.13 c4.176,0,7.638,3.153,8.053,7.334l1.303,12.843l9.528,2.329c1.333,0.199,2.318,1.171,2.517,2.492 c0.199,1.323-0.497,2.591-1.731,3.154C77.727,42.032,65.536,44,50,44z M25.041,32l-10.129,2.457 c-0.558,0.071-0.814,0.479-0.869,0.834c-0.024,0.164-0.059,0.719,0.546,0.996C22.852,40.078,34.766,42,50,42 c15.247,0,27.159-1.907,35.405-5.668c0.642-0.293,0.609-0.867,0.583-1.037c-0.025-0.168-0.162-0.723-0.858-0.814l-0.107-0.02 L74.958,32h-0.783l-0.17-0.899l-1.377-13.567C72.315,14.378,69.708,12,66.565,12h-33.13c-3.144,0-5.75,2.378-6.063,5.531L25.904,32 H25.041z"/><path fill="#1f212b" d="M42.229,61h-8.74C31.014,61,29,58.981,29,56.5v-6c0-2.481,2.014-4.5,4.488-4.5H43.51 c1.359,0,2.63,0.606,3.486,1.665c0.859,1.063,1.188,2.439,0.903,3.777l-1.282,6C46.177,59.504,44.331,61,42.229,61z M33.488,47 C31.565,47,30,48.57,30,50.5v6c0,1.93,1.565,3.5,3.488,3.5h8.74c1.634,0,3.068-1.163,3.411-2.767l1.282-6 c0.222-1.041-0.034-2.112-0.703-2.939C45.553,47.472,44.566,47,43.51,47H33.488z"/><path fill="#1f212b" d="M66.512,61h-8.74c-2.103,0-3.948-1.496-4.388-3.558l-1.282-6c-0.286-1.338,0.043-2.715,0.903-3.777 C53.86,46.606,55.13,46,56.49,46h10.022C68.986,46,71,48.019,71,50.5v6C71,58.981,68.986,61,66.512,61z M56.49,47 c-1.056,0-2.043,0.472-2.708,1.294c-0.668,0.827-0.925,1.898-0.703,2.939l1.282,6C54.704,58.837,56.138,60,57.771,60h8.74 C68.435,60,70,58.43,70,56.5v-6c0-1.93-1.565-3.5-3.488-3.5H56.49z"/><path fill="#1f212b" d="M50.5,91h-1C42.056,91,36,84.944,36,77.5C36,71.71,40.71,67,46.5,67h7C59.29,67,64,71.71,64,77.5 C64,84.944,57.944,91,50.5,91z M46.5,68c-5.238,0-9.5,4.262-9.5,9.5C37,84.393,42.607,90,49.5,90h1C57.393,90,63,84.393,63,77.5 c0-5.238-4.262-9.5-9.5-9.5H46.5z M45.785,84c-0.14,0-0.281-0.014-0.421-0.042l-0.108-0.022C42.79,83.413,41,81.159,41,78.575V77.5 c0-3.032,2.467-5.5,5.5-5.5h7c3.033,0,5.5,2.468,5.5,5.5v0.911c0,2.636-1.83,5.011-4.256,5.524l-0.004,0.001l-0.1-0.49l0.06,0.498 c-0.7,0.143-1.356-0.025-1.866-0.443C52.304,83.066,52,82.425,52,81.741V79.5c0-0.275-0.224-0.5-0.5-0.5h-3 c-0.276,0-0.5,0.225-0.5,0.5v2.241c0,0.684-0.304,1.325-0.833,1.76C46.769,83.826,46.281,84,45.785,84z M54.439,82.978l0.201,0.469 l-0.104-0.489C56.511,82.539,58,80.585,58,78.411V77.5c0-2.481-2.019-4.5-4.5-4.5h-7c-2.481,0-4.5,2.019-4.5,4.5v1.075 c0,2.114,1.457,3.957,3.463,4.382c0.442,0.09,0.788,0.001,1.069-0.229C46.83,82.483,47,82.124,47,81.741V79.5 c0-0.827,0.673-1.5,1.5-1.5h3c0.827,0,1.5,0.673,1.5,1.5v2.241c0,0.383,0.17,0.742,0.468,0.986 C53.748,82.958,54.091,83.047,54.439,82.978z"/><path fill="#1f212b" d="M24.59,60.447C20.707,58.7,18,53.094,18,49.155c0-4.949,3.949-5.839,6.92-6.078l0.16,1.994 c-4.23,0.34-5.08,1.814-5.08,4.084c0,3.253,2.363,8.098,5.41,9.468L24.59,60.447z"/><path fill="#1f212b" d="M75.41,60.447l-0.82-1.824c3.047-1.37,5.41-6.215,5.41-9.468c0-2.27-0.85-3.744-5.08-4.084 l0.16-1.994c2.971,0.239,6.92,1.129,6.92,6.078C82,53.094,79.293,58.7,75.41,60.447z"/><rect width="5" height="1" x="47.5" y="50" fill="#1f212b"/><path fill="#1f212b" d="M50,35c-14.075,0-22.363-2.086-26.051-3.329c-0.262-0.088-0.402-0.372-0.314-0.634 c0.088-0.261,0.373-0.398,0.633-0.313C27.898,31.947,36.068,34,50,34c13.931,0,22.1-2.053,25.73-3.275 c0.262-0.087,0.545,0.053,0.633,0.313c0.088,0.262-0.052,0.546-0.314,0.634C72.361,32.915,64.073,35,50,35z"/><path fill="#1f212b" d="M50,28c-14.368,0-21.95-2.249-24.543-3.216c-0.259-0.097-0.39-0.385-0.293-0.644 c0.096-0.259,0.385-0.39,0.643-0.294C28.349,24.795,35.795,27,50,27c2.908,0,5.755-0.099,8.464-0.293 c0.276-0.022,0.515,0.188,0.534,0.463c0.02,0.275-0.188,0.515-0.463,0.535C55.803,27.9,52.932,28,50,28z"/><path fill="#1f212b" d="M63.5,27.22c-0.248,0-0.463-0.185-0.496-0.437c-0.035-0.274,0.159-0.524,0.433-0.56 c1.742-0.222,3.413-0.493,4.964-0.807c0.277-0.055,0.534,0.121,0.589,0.392c0.055,0.271-0.121,0.534-0.391,0.589 c-1.575,0.318-3.27,0.594-5.036,0.818C63.542,27.219,63.521,27.22,63.5,27.22z"/><path fill="#1f212b" d="M70.5,25.968c-0.225,0-0.43-0.153-0.485-0.382c-0.065-0.269,0.099-0.539,0.368-0.604 c0.349-0.085,0.68-0.169,0.988-0.252c0.266-0.072,0.541,0.086,0.613,0.353s-0.086,0.541-0.353,0.612 c-0.316,0.085-0.654,0.171-1.012,0.258C70.579,25.963,70.539,25.968,70.5,25.968z"/><path fill="#1f212b" d="M40,50c-0.902,0-1.701,0.474-2.251,1.209C37.971,51.079,38.225,51,38.5,51 c0.828,0,1.5,0.672,1.5,1.5S39.328,54,38.5,54c-0.697,0-1.278-0.478-1.446-1.122C37.023,53.08,37,53.287,37,53.5 c0,1.933,1.343,3.5,3,3.5s3-1.567,3-3.5S41.657,50,40,50z"/><path fill="#1f212b" d="M60,50c-0.902,0-1.701,0.474-2.251,1.209C57.971,51.079,58.225,51,58.5,51 c0.828,0,1.5,0.672,1.5,1.5S59.328,54,58.5,54c-0.697,0-1.278-0.478-1.446-1.122C57.023,53.08,57,53.287,57,53.5 c0,1.933,1.343,3.5,3,3.5s3-1.567,3-3.5S61.657,50,60,50z"/><path fill="#1f212b" d="M45,53c-1.708,0-3.081-0.786-4.408-1.546C39.286,50.706,38.051,50,36.5,50 c-2.416,0-3.777,1.884-3.833,1.964l-1.642-1.142C31.104,50.707,33.016,48,36.5,48c2.083,0,3.678,0.913,5.086,1.719 C42.787,50.406,43.824,51,45,51V53z"/><path fill="#1f212b" d="M55,53c1.708,0,3.081-0.786,4.408-1.546C60.714,50.706,61.949,50,63.5,50 c2.416,0,3.777,1.884,3.833,1.964l1.642-1.142C68.896,50.707,66.984,48,63.5,48c-2.083,0-3.678,0.913-5.086,1.719 C57.213,50.406,56.176,51,55,51V53z"/><path fill="#1f212b" d="M46.5,72.5c-1.284,0-2.443,0.498-3.328,1.293c0.061,0.091,0.145,0.168,0.257,0.206 c1.067,0.356,2.145,0.579,3.241,0.742C47.765,74.909,48.874,74.988,50,75c1.126-0.015,2.235-0.097,3.329-0.267 c1.096-0.166,2.174-0.391,3.24-0.749c0.105-0.035,0.186-0.109,0.247-0.2C55.932,72.994,54.779,72.5,53.5,72.5H46.5z"/><path fill="#1f212b" d="M50,68c-1.216,0-2.385-0.369-3.175-0.994c-0.808,0.052-1.593,0.438-1.602,0.442 c-0.082,0.04-0.173,0.06-0.265,0.05C44.281,67.442,43,66.925,43,65.375c0-1.665,1.224-2.296,1.276-2.322 c0.247-0.122,0.546-0.023,0.671,0.224c0.124,0.247,0.023,0.547-0.224,0.671C44.699,63.96,44,64.345,44,65.375 c0,0.838,0.643,1.055,0.923,1.109C45.26,66.336,46.12,66,47,66c0.123,0,0.242,0.045,0.334,0.128C47.934,66.666,48.955,67,50,67 s2.066-0.334,2.666-0.872C52.758,66.045,52.877,66,53,66c0.879,0,1.738,0.335,2.075,0.484C55.368,66.426,56,66.205,56,65.375 c0-1.03-0.699-1.415-0.729-1.431c-0.242-0.128-0.338-0.429-0.212-0.672c0.125-0.242,0.42-0.341,0.665-0.219 C55.776,63.079,57,63.71,57,65.375c0,1.55-1.281,2.067-1.958,2.123c-0.091,0.007-0.183-0.01-0.265-0.05 c-0.008-0.004-0.794-0.39-1.602-0.442C52.385,67.631,51.216,68,50,68z"/><path fill="#1f212b" d="M74,40.932V65c0,4.381-3.896,10.868-9.373,15.721l0,0c-0.681,0.604-1.383,1.186-2.109,1.732 c-0.052,0.127-0.245,0.1-0.532-0.03C60.071,86.874,55.645,90,50.5,90h-1c-5.175,0-9.625-3.161-11.522-7.654 c-0.266,0.176-0.445,0.231-0.496,0.107c-0.726-0.546-1.428-1.129-2.109-1.732l0,0C29.896,75.868,26,69.381,26,65V40.914 c-0.695-0.143-1.362-0.29-2-0.439V65c0,5.818,5.46,14.373,12.903,19.629C39.395,89.021,44.099,92,49.5,92h1 c5.401,0,10.105-2.979,12.597-7.371C70.54,79.373,76,70.818,76,65V40.496C75.362,40.645,74.695,40.79,74,40.932z"/></g></svg>