<svg width="240" height="164" viewBox="0 0 240 164" fill="none" xmlns="http://www.w3.org/2000/svg">
<g clip-path="url(#clip0)">
<path d="M197.203 95.4557C207.735 78.9655 212.388 54.4123 202.531 36.528C193.402 20.0334 173.724 12.068 155.596 11.624C139.914 11.2422 127.464 15.882 115.227 24.9929C108.918 29.6948 102.542 34.7253 94.9452 37.4648C89.0133 39.6049 82.9128 41.079 76.7945 42.7129C54.6699 48.6314 41.0347 68.7047 44.0051 90.2875C46.2961 106.875 59.1721 122.304 75.6001 128.467C88.3385 133.244 101.725 129.715 114.033 125.541C120.666 123.29 127.353 120.963 134.355 119.916C141.126 118.899 147.675 120.169 154.379 119.436C170.9 117.633 187.932 109.988 197.203 95.4557Z" fill="#B3ADCD"/>
<path opacity="0.7" d="M197.203 95.4557C207.735 78.9655 212.388 54.4123 202.531 36.528C193.402 20.0334 173.724 12.068 155.596 11.624C139.914 11.2422 127.464 15.882 115.227 24.9929C108.918 29.6948 102.542 34.7253 94.9452 37.4648C89.0133 39.6049 82.9128 41.079 76.7945 42.7129C54.6699 48.6314 41.0347 68.7047 44.0051 90.2875C46.2961 106.875 59.1721 122.304 75.6001 128.467C88.3385 133.244 101.725 129.715 114.033 125.541C120.666 123.29 127.353 120.963 134.355 119.916C141.126 118.899 147.675 120.169 154.379 119.436C170.9 117.633 187.932 109.988 197.203 95.4557Z" fill="white"/>
<path d="M202.429 103.528H200.55H115.533H113.655V107.293H115.533V145.561H200.55V107.293H202.429V103.528Z" fill="#B3ADCD"/>
<path opacity="0.5" d="M202.429 103.528H200.55H115.533H113.655V107.293H115.533V145.561H200.55V107.293H202.429V103.528Z" fill="white"/>
<path d="M117.811 123.512H140.997V111.133H117.811V123.512ZM118.282 111.591H140.526V123.068H118.282V111.591Z" fill="white"/>
<path d="M146.605 123.512H169.795V111.133H146.605V123.512ZM147.084 111.604H169.333V123.068H147.084V111.604Z" fill="white"/>
<path d="M175.402 111.133V123.512H198.588V111.133H175.402ZM198.117 123.068H175.873V111.604H198.117V123.068Z" fill="white"/>
<path d="M117.811 140.153H140.997V127.761H117.811V140.153ZM118.282 128.232H140.526V139.682H118.282V128.232Z" fill="white"/>
<path d="M146.605 140.153H169.795V127.761H146.605V140.153ZM147.084 128.232H169.333V139.682H147.084V128.232Z" fill="white"/>
<path d="M175.402 140.153H198.588V127.761H175.402V140.153ZM175.873 128.232H198.117V139.682H175.873V128.232Z" fill="white"/>
<path d="M129.653 118.899C131.732 118.899 133.418 118.267 133.418 117.487C133.418 116.707 131.732 116.075 129.653 116.075C127.573 116.075 125.888 116.707 125.888 117.487C125.888 118.267 127.573 118.899 129.653 118.899Z" fill="white"/>
<path d="M158.308 118.899C160.388 118.899 162.074 118.267 162.074 117.487C162.074 116.707 160.388 116.075 158.308 116.075C156.229 116.075 154.543 116.707 154.543 117.487C154.543 118.267 156.229 118.899 158.308 118.899Z" fill="white"/>
<path d="M187.794 118.899C189.874 118.899 191.559 118.267 191.559 117.487C191.559 116.707 189.874 116.075 187.794 116.075C185.715 116.075 184.029 116.707 184.029 117.487C184.029 118.267 185.715 118.899 187.794 118.899Z" fill="white"/>
<path d="M129.653 132.703C127.575 132.703 125.888 133.333 125.888 134.115C125.888 134.896 127.575 135.522 129.653 135.522C131.731 135.522 133.418 134.892 133.418 134.115C133.418 133.338 131.731 132.703 129.653 132.703Z" fill="white"/>
<path d="M158.308 132.703C156.23 132.703 154.543 133.333 154.543 134.115C154.543 134.896 156.23 135.522 158.308 135.522C160.386 135.522 162.074 134.892 162.074 134.115C162.074 133.338 160.404 132.703 158.308 132.703Z" fill="white"/>
<path d="M187.794 132.703C185.717 132.703 184.034 133.333 184.034 134.115C184.034 134.896 185.717 135.522 187.794 135.522C189.872 135.522 191.56 134.892 191.56 134.115C191.56 133.338 189.877 132.703 187.794 132.703Z" fill="white"/>
<path d="M103.208 100.238C101.494 102.782 99.1056 106.089 97.8313 108.745C98.3152 106.995 98.7903 105.339 99.221 103.861C99.8737 102.577 101.623 99.3407 103.661 97.2006C106.223 94.4567 107.32 92.694 105.939 92.5431C104.984 92.4365 102.187 96.1617 100.433 99.8602C100.815 98.5948 101.117 97.6402 101.321 97.0674C101.405 96.8099 101.485 96.5302 101.565 96.2327C103.379 93.6947 105.031 91.0447 106.511 88.2984C109.1 83.4633 109.935 78.8989 108.208 80.8614C106.618 82.6685 103.852 91.6551 101.654 95.8819C101.841 95.1538 102.018 94.3501 102.174 93.5554C102.484 92.7873 102.893 92.0058 103.124 91.2954C103.483 90.2032 103.799 89.1021 104.052 87.9787C104.469 86.2334 104.681 84.4453 104.682 82.6507C104.727 80.5429 104.153 78.4683 103.031 76.6834C102.733 76.2394 100.913 73.5177 100.367 74.9074C100.295 75.1389 100.282 75.3842 100.327 75.6222C100.593 77.9355 101.432 80.0622 101.952 82.3133C102.729 85.6833 102.214 91.3398 101.952 93.7463C101.854 94.1281 101.73 94.5988 101.583 95.1449C101.943 90.9535 100.127 85.9852 98.444 85.1149C96.3616 84.0404 98.404 88.2585 100.011 91.9437C100.773 93.5564 101.131 95.33 101.055 97.1118C100.726 98.3195 100.349 99.6826 99.958 101.059C99.8781 101.245 99.8071 101.436 99.736 101.623C99.9167 100.725 99.9897 99.8079 99.9536 98.8923C99.8026 96.4858 97.0765 91.6684 95.265 92.3477C93.4534 93.027 96.5215 95.5667 98.1598 98.5237C99.0195 100.159 99.3499 102.021 99.1056 103.852C99.1056 103.963 99.07 104.069 99.0567 104.171C98.8658 104.802 98.6793 105.406 98.5017 105.983C98.0577 107.315 97.6803 108.594 97.3029 109.828C97.7666 108.037 97.9699 106.189 97.9068 104.34C97.6803 100.815 95.6157 97.4848 93.9108 97.0275C92.2058 96.5701 95.4603 102.324 96.5526 105.557C97.1464 107.445 97.2473 109.453 96.8456 111.391C96.3172 113.14 95.82 114.867 95.3094 116.692C95.452 114.302 95.4 111.904 95.154 109.522C94.821 105.597 92.49 103.092 90.8827 103.195C89.2754 103.297 90.9537 105.526 93.2714 110.299C94.4952 112.805 95.0402 115.588 94.852 118.371C94.6434 119.139 94.408 119.929 94.2127 120.755C93.964 121.696 93.7687 122.722 93.5911 123.77C93.3602 122.833 93.0139 121.465 92.6098 119.956C92.1393 118.287 91.7979 116.584 91.5886 114.863C91.3711 112.86 90.8427 110.361 88.8802 109.322C88.7469 109.229 88.5948 109.166 88.4346 109.138C88.2745 109.11 88.1102 109.118 87.9532 109.16C87.7963 109.203 87.6505 109.279 87.5261 109.383C87.4017 109.488 87.3016 109.618 87.233 109.766C87.0529 110.195 87.0126 110.671 87.1176 111.124C87.3781 112.487 87.8264 113.806 88.4496 115.045C88.064 115.784 87.8889 116.615 87.9434 117.447C87.9434 117.758 87.97 118.069 87.9922 118.379C87.8191 118.06 87.6548 117.767 87.4994 117.491C87.2173 117.021 86.8705 116.592 86.4693 116.217C86.5699 115.481 86.6203 114.74 86.6203 113.997C86.6203 113.025 85.4792 110.543 84.4491 112.381C84.0362 113.118 84.1161 114.561 84.0762 115.52C83.7964 115.786 83.7121 116.328 83.9474 117.181C83.7876 119.401 83.7565 121.674 84.2937 123.841L83.9385 123.223C83.4381 120.655 83.1412 118.051 83.0505 115.436C82.9218 111.116 83.61 107.572 82.4334 106.24C81.2568 104.908 80.5996 109.593 81.1014 114.699C81.3377 117.029 81.9589 119.303 82.9395 121.43C81.7851 119.356 80.644 117.243 79.5651 115.214C79.1211 114.126 78.02 111.182 78.2908 108.199C78.6327 104.438 78.8814 101.356 77.4517 99.2386C76.022 97.1207 75.7245 98.4971 76.426 102.91C76.9056 105.939 77.4162 109.988 78.2953 112.798C77.4606 111.187 76.6747 109.655 75.9732 108.27C75.5736 106.884 74.6412 103.328 74.6412 100.375C74.6412 96.619 74.2416 94.6032 73.1316 95.4157C72.359 95.9885 72.8563 100.624 74.0995 104.522C73.5178 103.337 73.0783 102.426 72.8252 101.889C72.7098 101.645 72.581 101.383 72.4345 101.112C72.0282 98.0199 71.4276 94.9561 70.6363 91.9392C69.2288 86.6379 66.7202 82.7307 66.8001 85.3458C66.8712 87.7523 70.9826 96.2061 72.2658 100.797C71.9017 100.135 71.4799 99.4295 71.0536 98.7413C70.7562 97.9643 70.5208 97.1163 70.2056 96.4414C69.7216 95.398 69.2022 94.3768 68.6205 93.3822C67.7323 91.8183 66.6638 90.3639 65.437 89.0488C64.0159 87.4305 62.1435 86.2739 60.0602 85.7277C59.5363 85.6033 56.3572 84.8397 56.8989 86.2605C57.0002 86.4772 57.1526 86.6661 57.3429 86.811C59.1189 88.3206 61.1791 89.3018 63.1149 90.5939C65.9832 92.5297 69.4686 97.0141 70.9071 98.9633L71.5909 100.238C68.9935 96.9253 64.2738 94.5366 62.4534 95.0517C60.1978 95.6866 64.5668 97.3738 68.2564 98.9677C69.9143 99.6265 71.3865 100.68 72.5455 102.036C73.1316 103.146 73.7842 104.393 74.4369 105.668C74.5124 105.859 74.5834 106.045 74.6589 106.232C74.1791 105.452 73.6083 104.732 72.9584 104.087C71.2046 102.435 65.921 100.77 65.0641 102.502C64.2072 104.234 68.1721 104.003 71.3955 105.042C73.1316 105.651 74.6373 106.781 75.7068 108.278C75.7689 108.367 75.8266 108.46 75.8888 108.545C76.1818 109.131 76.4571 109.704 76.7191 110.245C77.3229 111.52 77.9001 112.714 78.464 113.873C77.5839 112.242 76.4728 110.746 75.1651 109.433C72.5899 107.009 68.807 105.987 67.2397 106.831C65.6724 107.675 71.986 109.641 74.9919 111.271C76.7149 112.246 78.1593 113.646 79.1877 115.338C79.9958 116.976 80.8083 118.579 81.683 120.262C80.1558 118.418 78.4824 116.7 76.6791 115.125C73.7532 112.483 70.3388 112.243 69.2332 113.416C68.1277 114.588 70.876 115.072 75.8222 116.968C78.4251 117.964 80.7214 119.625 82.4822 121.785C82.8552 122.491 83.237 123.215 83.6455 123.969C84.0895 124.822 84.6534 125.71 85.2483 126.593C84.4402 126.069 83.2503 125.306 81.9272 124.48C80.4424 123.581 79.0306 122.567 77.7048 121.447C76.1774 120.138 74.0862 118.668 71.9328 119.25C71.7725 119.273 71.6192 119.331 71.484 119.421C71.3487 119.51 71.2347 119.627 71.1499 119.766C71.0652 119.904 71.0119 120.059 70.9937 120.22C70.9755 120.381 70.993 120.544 71.0448 120.697C71.2016 121.136 71.4959 121.513 71.8839 121.772C73.9086 123.339 76.6303 124.094 78.9879 125.022C81.1485 125.872 83.3629 126.578 85.6168 127.135C86.1763 127.939 86.7579 128.733 87.344 129.488L86.2873 129.519C85.0352 129.559 79.3875 126.997 76.5193 126.176C73.651 125.355 70.9693 126.909 73.9752 128.525C76.981 130.141 85.1551 129.781 85.1551 129.781L87.5127 129.71C88.0677 130.421 88.6094 131.096 89.1244 131.713H77.9223V134.821H80.1423L81.9183 145.872H96.8056L98.6038 134.821H100.824V131.713H93.4046C93.3446 130.37 93.3802 129.024 93.5112 127.686C94.0062 127.182 94.5557 126.736 95.1495 126.354C98.4085 124.103 103.932 123.916 105.401 119.578C105.757 118.535 105.353 117.194 104.105 117.252C103.217 117.292 102.254 118.082 101.694 118.726C99.8293 120.879 98.4262 123.112 96.002 124.746C95.1691 125.387 94.3689 126.068 93.6044 126.789C93.6888 126.083 93.7953 125.328 93.933 124.52C94.5188 123.481 95.1869 122.491 95.931 121.558C97.9156 119.094 100.935 117.651 103.079 115.303C103.736 114.583 104.602 111.999 102.595 112.639C101.707 112.923 100.651 114.277 99.9314 114.894C97.9556 116.67 95.9354 118.561 94.6478 120.897C94.7011 120.666 94.7588 120.453 94.8121 120.204C96.1973 117.983 97.7577 115.876 99.4785 113.904C102.329 110.663 105.251 108.54 105.299 106.764C105.348 104.988 101.672 107.963 98.5506 112.03C97.1346 113.896 96.0365 115.983 95.3005 118.206C95.8732 115.906 96.4815 113.58 97.0765 111.351C97.485 110.241 98.6971 107.355 100.93 105.352C103.75 102.835 106.032 100.757 106.436 98.2485C106.84 95.7399 105.708 96.5346 103.208 100.238ZM87.4417 128.796C87.0199 128.223 86.5803 127.601 86.1097 126.913C85.8293 125.746 85.6423 124.558 85.5502 123.361C85.4934 122.342 85.541 121.32 85.6923 120.311C86.4501 121.249 87.2547 122.149 88.1032 123.006C88.083 123.894 87.9744 124.777 87.7791 125.643C87.6128 126.688 87.5002 127.74 87.4417 128.796ZM89.857 131.722C89.2843 131.113 88.6582 130.39 87.9789 129.502C87.996 128.797 88.0928 128.097 88.2675 127.415C88.5386 126.339 88.9288 125.296 89.4308 124.307C90.4831 125.306 91.2556 125.967 91.2556 125.967L93.0316 127.526C92.894 129.075 92.8141 130.532 92.7652 131.713L89.857 131.722ZM93.0538 127.255L92.2591 126.558C91.8151 126.158 91.0159 124.613 90.1456 122.833C90.5168 122.084 90.8459 121.314 91.1313 120.528C92.0726 122.273 92.9073 123.636 93.4002 124.36C93.2581 125.324 93.1471 126.305 93.0538 127.255Z" fill="#B3ADCD"/>
<path opacity="0.5" d="M103.208 100.238C101.494 102.782 99.1056 106.089 97.8313 108.745C98.3152 106.995 98.7903 105.339 99.221 103.861C99.8737 102.577 101.623 99.3407 103.661 97.2006C106.223 94.4567 107.32 92.694 105.939 92.5431C104.984 92.4365 102.187 96.1617 100.433 99.8602C100.815 98.5948 101.117 97.6402 101.321 97.0674C101.405 96.8099 101.485 96.5302 101.565 96.2327C103.379 93.6947 105.031 91.0447 106.511 88.2984C109.1 83.4633 109.935 78.8989 108.208 80.8614C106.618 82.6685 103.852 91.6551 101.654 95.8819C101.841 95.1538 102.018 94.3501 102.174 93.5554C102.484 92.7873 102.893 92.0058 103.124 91.2954C103.483 90.2032 103.799 89.1021 104.052 87.9787C104.469 86.2334 104.681 84.4453 104.682 82.6507C104.727 80.5429 104.153 78.4683 103.031 76.6834C102.733 76.2394 100.913 73.5177 100.367 74.9074C100.295 75.1389 100.282 75.3842 100.327 75.6222C100.593 77.9355 101.432 80.0622 101.952 82.3133C102.729 85.6833 102.214 91.3398 101.952 93.7463C101.854 94.1281 101.73 94.5988 101.583 95.1449C101.943 90.9535 100.127 85.9852 98.444 85.1149C96.3616 84.0404 98.404 88.2585 100.011 91.9437C100.773 93.5564 101.131 95.33 101.055 97.1118C100.726 98.3195 100.349 99.6826 99.958 101.059C99.8781 101.245 99.8071 101.436 99.736 101.623C99.9167 100.725 99.9897 99.8079 99.9536 98.8923C99.8026 96.4858 97.0765 91.6684 95.265 92.3477C93.4534 93.027 96.5215 95.5667 98.1598 98.5237C99.0195 100.159 99.3499 102.021 99.1056 103.852C99.1056 103.963 99.07 104.069 99.0567 104.171C98.8658 104.802 98.6793 105.406 98.5017 105.983C98.0577 107.315 97.6803 108.594 97.3029 109.828C97.7666 108.037 97.9699 106.189 97.9068 104.34C97.6803 100.815 95.6157 97.4848 93.9108 97.0275C92.2058 96.5701 95.4603 102.324 96.5526 105.557C97.1464 107.445 97.2473 109.453 96.8456 111.391C96.3172 113.14 95.82 114.867 95.3094 116.692C95.452 114.302 95.4 111.904 95.154 109.522C94.821 105.597 92.49 103.092 90.8827 103.195C89.2754 103.297 90.9537 105.526 93.2714 110.299C94.4952 112.805 95.0402 115.588 94.852 118.371C94.6434 119.139 94.408 119.929 94.2127 120.755C93.964 121.696 93.7687 122.722 93.5911 123.77C93.3602 122.833 93.0139 121.465 92.6098 119.956C92.1393 118.287 91.7979 116.584 91.5886 114.863C91.3711 112.86 90.8427 110.361 88.8802 109.322C88.7469 109.229 88.5948 109.166 88.4346 109.138C88.2745 109.11 88.1102 109.118 87.9532 109.16C87.7963 109.203 87.6505 109.279 87.5261 109.383C87.4017 109.488 87.3016 109.618 87.233 109.766C87.0529 110.195 87.0126 110.671 87.1176 111.124C87.3781 112.487 87.8264 113.806 88.4496 115.045C88.064 115.784 87.8889 116.615 87.9434 117.447C87.9434 117.758 87.97 118.069 87.9922 118.379C87.8191 118.06 87.6548 117.767 87.4994 117.491C87.2173 117.021 86.8705 116.592 86.4693 116.217C86.5699 115.481 86.6203 114.74 86.6203 113.997C86.6203 113.025 85.4792 110.543 84.4491 112.381C84.0362 113.118 84.1161 114.561 84.0762 115.52C83.7964 115.786 83.7121 116.328 83.9474 117.181C83.7876 119.401 83.7565 121.674 84.2937 123.841L83.9385 123.223C83.4381 120.655 83.1412 118.051 83.0505 115.436C82.9218 111.116 83.61 107.572 82.4334 106.24C81.2568 104.908 80.5996 109.593 81.1014 114.699C81.3377 117.029 81.9589 119.303 82.9395 121.43C81.7851 119.356 80.644 117.243 79.5651 115.214C79.1211 114.126 78.02 111.182 78.2908 108.199C78.6327 104.438 78.8814 101.356 77.4517 99.2386C76.022 97.1207 75.7245 98.4971 76.426 102.91C76.9056 105.939 77.4162 109.988 78.2953 112.798C77.4606 111.187 76.6747 109.655 75.9732 108.27C75.5736 106.884 74.6412 103.328 74.6412 100.375C74.6412 96.619 74.2416 94.6032 73.1316 95.4157C72.359 95.9885 72.8563 100.624 74.0995 104.522C73.5178 103.337 73.0783 102.426 72.8252 101.889C72.7098 101.645 72.581 101.383 72.4345 101.112C72.0282 98.0199 71.4276 94.9561 70.6363 91.9392C69.2288 86.6379 66.7202 82.7307 66.8001 85.3458C66.8712 87.7523 70.9826 96.2061 72.2658 100.797C71.9017 100.135 71.4799 99.4295 71.0536 98.7413C70.7562 97.9643 70.5208 97.1163 70.2056 96.4414C69.7216 95.398 69.2022 94.3768 68.6205 93.3822C67.7323 91.8183 66.6638 90.3639 65.437 89.0488C64.0159 87.4305 62.1435 86.2739 60.0602 85.7277C59.5363 85.6033 56.3572 84.8397 56.8989 86.2605C57.0002 86.4772 57.1526 86.6661 57.3429 86.811C59.1189 88.3206 61.1791 89.3018 63.1149 90.5939C65.9832 92.5297 69.4686 97.0141 70.9071 98.9633L71.5909 100.238C68.9935 96.9253 64.2738 94.5366 62.4534 95.0517C60.1978 95.6866 64.5668 97.3738 68.2564 98.9677C69.9143 99.6265 71.3865 100.68 72.5455 102.036C73.1316 103.146 73.7842 104.393 74.4369 105.668C74.5124 105.859 74.5834 106.045 74.6589 106.232C74.1791 105.452 73.6083 104.732 72.9584 104.087C71.2046 102.435 65.921 100.77 65.0641 102.502C64.2072 104.234 68.1721 104.003 71.3955 105.042C73.1316 105.651 74.6373 106.781 75.7068 108.278C75.7689 108.367 75.8266 108.46 75.8888 108.545C76.1818 109.131 76.4571 109.704 76.7191 110.245C77.3229 111.52 77.9001 112.714 78.464 113.873C77.5839 112.242 76.4728 110.746 75.1651 109.433C72.5899 107.009 68.807 105.987 67.2397 106.831C65.6724 107.675 71.986 109.641 74.9919 111.271C76.7149 112.246 78.1593 113.646 79.1877 115.338C79.9958 116.976 80.8083 118.579 81.683 120.262C80.1558 118.418 78.4824 116.7 76.6791 115.125C73.7532 112.483 70.3388 112.243 69.2332 113.416C68.1277 114.588 70.876 115.072 75.8222 116.968C78.4251 117.964 80.7214 119.625 82.4822 121.785C82.8552 122.491 83.237 123.215 83.6455 123.969C84.0895 124.822 84.6534 125.71 85.2483 126.593C84.4402 126.069 83.2503 125.306 81.9272 124.48C80.4424 123.581 79.0306 122.567 77.7048 121.447C76.1774 120.138 74.0862 118.668 71.9328 119.25C71.7725 119.273 71.6192 119.331 71.484 119.421C71.3487 119.51 71.2347 119.627 71.1499 119.766C71.0652 119.904 71.0119 120.059 70.9937 120.22C70.9755 120.381 70.993 120.544 71.0448 120.697C71.2016 121.136 71.4959 121.513 71.8839 121.772C73.9086 123.339 76.6303 124.094 78.9879 125.022C81.1485 125.872 83.3629 126.578 85.6168 127.135C86.1763 127.939 86.7579 128.733 87.344 129.488L86.2873 129.519C85.0352 129.559 79.3875 126.997 76.5193 126.176C73.651 125.355 70.9693 126.909 73.9752 128.525C76.981 130.141 85.1551 129.781 85.1551 129.781L87.5127 129.71C88.0677 130.421 88.6094 131.096 89.1244 131.713H77.9223V134.821H80.1423L81.9183 145.872H96.8056L98.6038 134.821H100.824V131.713H93.4046C93.3446 130.37 93.3802 129.024 93.5112 127.686C94.0062 127.182 94.5557 126.736 95.1495 126.354C98.4085 124.103 103.932 123.916 105.401 119.578C105.757 118.535 105.353 117.194 104.105 117.252C103.217 117.292 102.254 118.082 101.694 118.726C99.8293 120.879 98.4262 123.112 96.002 124.746C95.1691 125.387 94.3689 126.068 93.6044 126.789C93.6888 126.083 93.7953 125.328 93.933 124.52C94.5188 123.481 95.1869 122.491 95.931 121.558C97.9156 119.094 100.935 117.651 103.079 115.303C103.736 114.583 104.602 111.999 102.595 112.639C101.707 112.923 100.651 114.277 99.9314 114.894C97.9556 116.67 95.9354 118.561 94.6478 120.897C94.7011 120.666 94.7588 120.453 94.8121 120.204C96.1973 117.983 97.7577 115.876 99.4785 113.904C102.329 110.663 105.251 108.54 105.299 106.764C105.348 104.988 101.672 107.963 98.5506 112.03C97.1346 113.896 96.0365 115.983 95.3005 118.206C95.8732 115.906 96.4815 113.58 97.0765 111.351C97.485 110.241 98.6971 107.355 100.93 105.352C103.75 102.835 106.032 100.757 106.436 98.2485C106.84 95.7399 105.708 96.5346 103.208 100.238ZM87.4417 128.796C87.0199 128.223 86.5803 127.601 86.1097 126.913C85.8293 125.746 85.6423 124.558 85.5502 123.361C85.4934 122.342 85.541 121.32 85.6923 120.311C86.4501 121.249 87.2547 122.149 88.1032 123.006C88.083 123.894 87.9744 124.777 87.7791 125.643C87.6128 126.688 87.5002 127.74 87.4417 128.796ZM89.857 131.722C89.2843 131.113 88.6582 130.39 87.9789 129.502C87.996 128.797 88.0928 128.097 88.2675 127.415C88.5386 126.339 88.9288 125.296 89.4308 124.307C90.4831 125.306 91.2556 125.967 91.2556 125.967L93.0316 127.526C92.894 129.075 92.8141 130.532 92.7652 131.713L89.857 131.722ZM93.0538 127.255L92.2591 126.558C91.8151 126.158 91.0159 124.613 90.1456 122.833C90.5168 122.084 90.8459 121.314 91.1313 120.528C92.0726 122.273 92.9073 123.636 93.4002 124.36C93.2581 125.324 93.1471 126.305 93.0538 127.255Z" fill="white"/>
<path d="M34.6542 150.516C35.9285 146.2 49.1286 101.339 49.0842 101.001C49.0398 100.664 50.1631 94.6387 52.7916 89.617C55.4201 84.5954 59.0697 79.001 59.5271 78.3172C60.223 77.2031 60.6881 75.9605 60.8946 74.6631C61.2365 72.8383 64.8906 67.8122 66.0317 66.4447C67.1727 65.0772 70.596 57.8844 70.8269 56.7433C71.0577 55.6022 72.4208 54.6876 74.2501 54.3457C76.0794 54.0038 78.588 53.6619 78.588 53.6619C79.0522 54.2083 79.332 54.8874 79.3872 55.6022C79.3872 56.6279 75.2757 81.1677 75.0493 85.2792C74.8229 89.3906 75.3912 91.6683 73.5663 95.8952C71.7415 100.122 66.3735 102.742 63.7495 104.456C61.1255 106.169 61.3253 106.525 61.3253 106.525C61.3253 106.525 62.8082 147.608 62.7727 150.836" fill="white"/>
<path d="M34.6542 150.516C35.9285 146.2 49.1286 101.339 49.0842 101.001C49.0398 100.664 50.1631 94.6387 52.7916 89.617C55.4201 84.5954 59.0697 79.001 59.5271 78.3172C60.223 77.2031 60.6881 75.9605 60.8946 74.6631C61.2365 72.8383 64.8906 67.8122 66.0317 66.4447C67.1727 65.0772 70.596 57.8844 70.8269 56.7433C71.0577 55.6022 72.4208 54.6876 74.2501 54.3457C76.0794 54.0038 78.588 53.6619 78.588 53.6619C79.0522 54.2083 79.332 54.8874 79.3872 55.6022C79.3872 56.6279 75.2757 81.1677 75.0493 85.2792C74.8229 89.3906 75.3912 91.6683 73.5663 95.8952C71.7415 100.122 66.3735 102.742 63.7495 104.456C61.1255 106.169 61.3253 106.525 61.3253 106.525C61.3253 106.525 62.8082 147.608 62.7727 150.836" stroke="#9A95B2" stroke-width="0.925" stroke-linecap="round" stroke-linejoin="round"/>
<path d="M74.0193 81.625C74.0193 81.625 72.7673 81.5096 71.5107 79.2274" stroke="#9A95B2" stroke-width="0.925" stroke-linecap="round" stroke-linejoin="round"/>
<path d="M72.6517 66.902C72.6517 66.902 76.2037 67.5857 76.6477 70.5516" stroke="#9A95B2" stroke-width="0.925" stroke-linecap="round" stroke-linejoin="round"/>
<path d="M73.7926 57.6535C74.5782 58.2513 75.2285 59.0086 75.7007 59.8756C76.1728 60.7426 76.4562 61.6997 76.5321 62.684" stroke="#9A95B2" stroke-width="0.925" stroke-linecap="round" stroke-linejoin="round"/>
<path d="M188.886 81.6339L188.607 34.2281C188.605 32.8464 188.056 31.5217 187.078 30.5451C186.101 29.5685 184.776 29.0199 183.394 29.0199H79.6534C78.2721 29.0199 76.9474 29.5686 75.9707 30.5454C74.9939 31.5221 74.4452 32.8468 74.4452 34.2281L74.1611 81.6339C74.1605 82.325 74.2962 83.0095 74.5604 83.6481C74.8246 84.2867 75.2121 84.8669 75.7008 85.3556C76.1895 85.8443 76.7697 86.2318 77.4083 86.496C78.0469 86.7602 78.7314 86.8959 79.4225 86.8953H183.625C184.316 86.8959 185 86.7602 185.639 86.496C186.278 86.2318 186.858 85.8443 187.347 85.3556C187.835 84.8669 188.223 84.2867 188.487 83.6481C188.751 83.0095 188.887 82.325 188.886 81.6339Z" fill="#9A95B2" stroke="#9A95B2" stroke-width="0.803523" stroke-linecap="round" stroke-linejoin="round"/>
<path d="M183.057 84.3202L182.83 31.5685H80.2174L79.9954 84.3202H183.057Z" fill="white" stroke="#9A95B2" stroke-width="0.602642" stroke-linecap="round" stroke-linejoin="round"/>
<path d="M182.83 31.5685H80.2177L80.2088 34.2014H90.0656L92.5875 37.8067H182.857L182.83 31.5685Z" fill="#B3ADCD" stroke="#9A95B2" stroke-width="0.925" stroke-linecap="round" stroke-linejoin="round"/>
<path d="M186.495 57.9301C186.5 57.4912 186.149 57.1308 185.71 57.1252C185.271 57.1195 184.911 57.4707 184.905 57.9096C184.899 58.3485 185.251 58.7089 185.69 58.7146C186.128 58.7202 186.489 58.369 186.495 57.9301Z" fill="white"/>
<path d="M88.1209 50.8425C90.4676 50.8425 92.37 48.9401 92.37 46.5934C92.37 44.2467 90.4676 42.3444 88.1209 42.3444C85.7742 42.3444 83.8718 44.2467 83.8718 46.5934C83.8718 48.9401 85.7742 50.8425 88.1209 50.8425Z" fill="#B3ADCD" stroke="#9A95B2" stroke-width="0.925" stroke-linecap="round" stroke-linejoin="round"/>
<path d="M88.1209 68.3139C90.4676 68.3139 92.37 66.4115 92.37 64.0648C92.37 61.7181 90.4676 59.8157 88.1209 59.8157C85.7742 59.8157 83.8718 61.7181 83.8718 64.0648C83.8718 66.4115 85.7742 68.3139 88.1209 68.3139Z" fill="white" stroke="#9A95B2" stroke-width="0.925" stroke-linecap="round" stroke-linejoin="round"/>
<path d="M117.158 50.8425C119.505 50.8425 121.407 48.9401 121.407 46.5934C121.407 44.2467 119.505 42.3444 117.158 42.3444C114.812 42.3444 112.909 44.2467 112.909 46.5934C112.909 48.9401 114.812 50.8425 117.158 50.8425Z" fill="white" stroke="#9A95B2" stroke-width="0.925" stroke-linecap="round" stroke-linejoin="round"/>
<path d="M117.158 68.3139C119.505 68.3139 121.407 66.4115 121.407 64.0648C121.407 61.7181 119.505 59.8157 117.158 59.8157C114.812 59.8157 112.909 61.7181 112.909 64.0648C112.909 66.4115 114.812 68.3139 117.158 68.3139Z" fill="#B3ADCD" stroke="#9A95B2" stroke-width="0.925" stroke-linecap="round" stroke-linejoin="round"/>
<path d="M146.2 50.8425C148.547 50.8425 150.449 48.9401 150.449 46.5934C150.449 44.2467 148.547 42.3444 146.2 42.3444C143.854 42.3444 141.951 44.2467 141.951 46.5934C141.951 48.9401 143.854 50.8425 146.2 50.8425Z" fill="#B3ADCD" stroke="#9A95B2" stroke-width="0.925" stroke-linecap="round" stroke-linejoin="round"/>
<path d="M146.2 68.3139C148.547 68.3139 150.449 66.4115 150.449 64.0648C150.449 61.7181 148.547 59.8157 146.2 59.8157C143.854 59.8157 141.951 61.7181 141.951 64.0648C141.951 66.4115 143.854 68.3139 146.2 68.3139Z" fill="#B3ADCD" stroke="#9A95B2" stroke-width="1.85" stroke-linecap="round" stroke-linejoin="round"/>
<path d="M175.238 50.8425C177.585 50.8425 179.487 48.9401 179.487 46.5934C179.487 44.2467 177.585 42.3444 175.238 42.3444C172.891 42.3444 170.989 44.2467 170.989 46.5934C170.989 48.9401 172.891 50.8425 175.238 50.8425Z" fill="#B3ADCD" stroke="#9A95B2" stroke-width="0.925" stroke-linecap="round" stroke-linejoin="round"/>
<path d="M175.238 68.3139C177.585 68.3139 179.487 66.4115 179.487 64.0648C179.487 61.7181 177.585 59.8157 175.238 59.8157C172.891 59.8157 170.989 61.7181 170.989 64.0648C170.989 66.4115 172.891 68.3139 175.238 68.3139Z" fill="white" stroke="#9A95B2" stroke-width="0.925" stroke-linecap="round" stroke-linejoin="round"/>
<path d="M95.5045 52.3477H109.424" stroke="#9A95B2" stroke-width="0.925" stroke-linecap="round" stroke-linejoin="round"/>
<path d="M95.5045 55.5578H109.424" stroke="#9A95B2" stroke-width="0.925" stroke-linecap="round" stroke-linejoin="round"/>
<path d="M95.5045 58.7724H109.424" stroke="#9A95B2" stroke-width="0.925" stroke-linecap="round" stroke-linejoin="round"/>
<path d="M124.147 52.3477H138.066" stroke="#9A95B2" stroke-width="0.925" stroke-linecap="round" stroke-linejoin="round"/>
<path d="M124.147 55.5578H138.066" stroke="#9A95B2" stroke-width="0.925" stroke-linecap="round" stroke-linejoin="round"/>
<path d="M124.147 58.7724H138.066" stroke="#9A95B2" stroke-width="0.925" stroke-linecap="round" stroke-linejoin="round"/>
<path d="M154.663 52.3477H168.582" stroke="#9A95B2" stroke-width="0.925" stroke-linecap="round" stroke-linejoin="round"/>
<path d="M154.663 55.5578H168.582" stroke="#9A95B2" stroke-width="0.925" stroke-linecap="round" stroke-linejoin="round"/>
<path d="M154.663 58.7724H168.582" stroke="#9A95B2" stroke-width="0.925" stroke-linecap="round" stroke-linejoin="round"/>
<path d="M95.5045 70.5251H109.424" stroke="#9A95B2" stroke-width="0.925" stroke-linecap="round" stroke-linejoin="round"/>
<path d="M95.5045 73.7396H109.424" stroke="#9A95B2" stroke-width="0.925" stroke-linecap="round" stroke-linejoin="round"/>
<path d="M95.5045 76.9498H109.424" stroke="#9A95B2" stroke-width="0.925" stroke-linecap="round" stroke-linejoin="round"/>
<path d="M124.147 70.5251H138.066" stroke="#9A95B2" stroke-width="0.925" stroke-linecap="round" stroke-linejoin="round"/>
<path d="M124.147 73.7396H138.066" stroke="#9A95B2" stroke-width="0.925" stroke-linecap="round" stroke-linejoin="round"/>
<path d="M124.147 76.9498H138.066" stroke="#9A95B2" stroke-width="0.925" stroke-linecap="round" stroke-linejoin="round"/>
<path d="M154.663 70.5251H168.582" stroke="#9A95B2" stroke-width="0.925" stroke-linecap="round" stroke-linejoin="round"/>
<path d="M154.663 73.7396H168.582" stroke="#9A95B2" stroke-width="0.925" stroke-linecap="round" stroke-linejoin="round"/>
<path d="M154.663 76.9498H168.582" stroke="#9A95B2" stroke-width="0.925" stroke-linecap="round" stroke-linejoin="round"/>
<path d="M137.818 64.2825H140.455" stroke="#9A95B2" stroke-width="0.925" stroke-linecap="round" stroke-linejoin="round"/>
<path d="M146.48 59.0121V55.7176" stroke="#9A95B2" stroke-width="0.925" stroke-linecap="round" stroke-linejoin="round"/>
<path d="M140.641 59.3896L142.338 60.7083" stroke="#9A95B2" stroke-width="0.925" stroke-linecap="round" stroke-linejoin="round"/>
<path d="M142.715 67.6701L140.641 68.8023" stroke="#9A95B2" stroke-width="0.925" stroke-linecap="round" stroke-linejoin="round"/>
<path d="M155.329 64.2825H152.692" stroke="#9A95B2" stroke-width="0.925" stroke-linecap="round" stroke-linejoin="round"/>
<path d="M152.5 59.3896L150.809 60.7083" stroke="#9A95B2" stroke-width="0.925" stroke-linecap="round" stroke-linejoin="round"/>
<path d="M144.429 73.0114L146.649 80.9413" stroke="#9A95B2" stroke-width="0.925" stroke-linecap="round" stroke-linejoin="round"/>
<path d="M142.204 72.0569L143.474 76.1817" stroke="#9A95B2" stroke-width="0.925" stroke-linecap="round" stroke-linejoin="round"/>
<path d="M196.918 147.577C196.918 147.577 186.373 128.13 184.873 124.72C183.372 121.31 182.24 115.937 181.871 114.463C181.338 112.734 181.289 110.891 181.729 109.135C182.284 106.649 181.956 99.5538 182.204 97.9243C182.453 96.2948 181.445 91.1977 180.872 88.3428C180.3 85.4879 179.003 83.4588 177.254 83.2368C176.745 83.1759 176.229 83.2417 175.752 83.4284C175.275 83.615 174.851 83.9168 174.519 84.3068C174.519 84.3068 173.791 78.2285 173.085 76.9675C172.379 75.7065 170.079 75.8886 168.849 76.1905C167.619 76.4924 167.028 80.4263 167.028 80.4263C167.028 80.4263 165.963 76.6478 165.932 74.9606C165.901 73.2734 163.849 71.8215 162.251 72.2211C160.653 72.6207 159.791 73.3533 159.356 76.8521C158.921 80.3508 159.742 85.7631 159.742 85.7631L158.912 86.1006C158.912 86.1006 155.92 75.6222 154.969 72.8561C154.019 70.0899 153.105 66.9242 152.465 64.8641C151.826 62.8039 150.876 59.5361 148.261 60.0378C145.645 60.5395 146.289 66.2538 146.289 66.2538C146.289 66.2538 150.378 83.7651 150.592 85.146C150.805 86.5268 151.48 91.322 151.346 92.9204C151.213 94.5188 151.218 98.6924 151.218 98.6924L147.324 94.0482C146.844 92.7916 146.238 91.5867 145.517 90.4518C144.185 88.3028 141.223 86.3004 139.301 86.8998C137.378 87.4992 138.897 89.4794 139.691 90.585C140.486 91.6905 141.13 94.7941 141.13 96.357C141.13 97.9198 142.462 99.021 144.069 101.889C145.676 104.757 153.744 114.668 154.965 116.452C155.869 117.652 157.006 118.656 158.308 119.405C158.308 119.405 162.97 123.468 165.146 128.538C167.321 133.609 173.995 148.167 173.995 148.167" fill="white"/>
<path d="M196.918 147.577C196.918 147.577 186.373 128.13 184.873 124.72C183.372 121.31 182.24 115.937 181.871 114.463C181.338 112.734 181.289 110.891 181.729 109.135C182.284 106.649 181.956 99.5538 182.204 97.9243C182.453 96.2948 181.445 91.1977 180.872 88.3428C180.3 85.4879 179.003 83.4588 177.254 83.2368C176.745 83.1759 176.229 83.2417 175.752 83.4284C175.275 83.615 174.851 83.9168 174.519 84.3068C174.519 84.3068 173.791 78.2285 173.085 76.9675C172.379 75.7065 170.079 75.8886 168.849 76.1905C167.619 76.4924 167.028 80.4263 167.028 80.4263C167.028 80.4263 165.963 76.6478 165.932 74.9606C165.901 73.2734 163.849 71.8215 162.251 72.2211C160.653 72.6207 159.791 73.3533 159.356 76.8521C158.921 80.3508 159.742 85.7631 159.742 85.7631L158.912 86.1006C158.912 86.1006 155.92 75.6222 154.969 72.8561C154.019 70.0899 153.105 66.9242 152.465 64.8641C151.826 62.8039 150.876 59.5361 148.261 60.0378C145.645 60.5395 146.289 66.2538 146.289 66.2538C146.289 66.2538 150.378 83.7651 150.592 85.146C150.805 86.5268 151.48 91.322 151.346 92.9204C151.213 94.5188 151.218 98.6924 151.218 98.6924L147.324 94.0482C146.844 92.7916 146.238 91.5867 145.517 90.4518C144.185 88.3028 141.223 86.3004 139.301 86.8998C137.378 87.4992 138.897 89.4794 139.691 90.585C140.486 91.6905 141.13 94.7941 141.13 96.357C141.13 97.9198 142.462 99.021 144.069 101.889C145.676 104.757 153.744 114.668 154.965 116.452C155.869 117.652 157.006 118.656 158.308 119.405C158.308 119.405 162.97 123.468 165.146 128.538C167.321 133.609 173.995 148.167 173.995 148.167" stroke="#9A95B2" stroke-width="0.925" stroke-linecap="round" stroke-linejoin="round"/>
<path d="M146.875 61.3076C146.875 61.3076 147.359 64.3091 147.452 64.6865C147.661 65.5345 151.169 65.1305 151.448 64.4778C151.697 63.8962 151.515 62.6352 151.515 62.6352" stroke="#9A95B2" stroke-width="0.925" stroke-linecap="round" stroke-linejoin="round"/>
<path d="M140.868 90.7226C141.16 90.4263 141.341 90.0386 141.38 89.6246C141.42 89.2107 141.316 88.7957 141.086 88.4494C140.26 87.2195 139.798 86.9442 139.798 86.9442" stroke="#9A95B2" stroke-width="0.925" stroke-linecap="round" stroke-linejoin="round"/>
<path d="M150.934 78.6991C150.934 78.6991 152.501 79.223 153.975 77.2916" stroke="#9A95B2" stroke-width="0.69375" stroke-linecap="round" stroke-linejoin="round"/>
<path d="M151.12 77.3361C151.12 77.3361 153.211 75.7687 154.81 75.8975" stroke="#9A95B2" stroke-width="0.69375" stroke-linecap="round" stroke-linejoin="round"/>
<path d="M148.953 69.1443C148.953 69.1443 150.521 67.5814 151.777 67.9188" stroke="#9A95B2" stroke-width="0.69375" stroke-linecap="round" stroke-linejoin="round"/>
<path d="M150.427 68.7757C151.071 68.884 151.731 68.8537 152.363 68.6869" stroke="#9A95B2" stroke-width="0.69375" stroke-linecap="round" stroke-linejoin="round"/>
<path d="M167.024 80.4396L167.85 85.328" stroke="#9A95B2" stroke-width="0.925" stroke-linecap="round" stroke-linejoin="round"/>
<path d="M174.514 84.3201L175.398 89.4528" stroke="#9A95B2" stroke-width="0.925" stroke-linecap="round" stroke-linejoin="round"/>
<path d="M151.213 98.7235C151.213 98.7235 150.991 102.564 151.359 104.052" stroke="#9A95B2" stroke-width="0.925" stroke-linecap="round" stroke-linejoin="round"/>
<path d="M167.854 87.9299C167.854 87.9299 168.764 90.3408 168.542 91.9259" stroke="#9A95B2" stroke-width="0.69375" stroke-linecap="round" stroke-linejoin="round"/>
<path d="M175.3 90.4207C175.3 90.4207 175.917 91.6639 175.549 93.9283" stroke="#9A95B2" stroke-width="0.69375" stroke-linecap="round" stroke-linejoin="round"/>
<path d="M69.7967 83.4499C69.7967 83.4499 73.5662 82.7661 75.6175 80.2575C77.6688 77.7489 82.5794 74.5477 84.1778 73.9794C85.7762 73.4111 88.2893 73.2912 89.2039 74.0904C90.1185 74.8896 90.5714 76.8299 89.2039 79.1165C87.8364 81.4031 82.2597 83.552 81.0965 84.591C79.9332 85.6299 78.9297 86.3048 77.5445 89.3862C76.1961 92.3712 74.255 95.051 71.8391 97.2627C69.6679 99.203 65.6763 102.515 63.6206 103.767" fill="white"/>
<path d="M69.7967 83.4499C69.7967 83.4499 73.5662 82.7661 75.6175 80.2575C77.6688 77.7489 82.5794 74.5477 84.1778 73.9794C85.7762 73.4111 88.2893 73.2912 89.2039 74.0904C90.1185 74.8896 90.5714 76.8299 89.2039 79.1165C87.8364 81.4031 82.2597 83.552 81.0965 84.591C79.9332 85.6299 78.9297 86.3048 77.5445 89.3862C76.1961 92.3712 74.255 95.051 71.8391 97.2627C69.6679 99.203 65.6763 102.515 63.6206 103.767" stroke="#9A95B2" stroke-width="0.925" stroke-linecap="round" stroke-linejoin="round"/>
<path d="M89.3151 78.224C88.6313 79.2496 86.9175 79.3651 86.9175 79.3651C86.9175 79.3651 86.2337 77.8821 85.7764 76.9675C85.4202 76.352 84.9089 75.8407 84.2935 75.4845C84.2935 75.4845 84.8662 74.0016 86.0073 74.0016" stroke="#9A95B2" stroke-width="0.925" stroke-linecap="round" stroke-linejoin="round"/>
<path d="M44.6308 106.604C48.8433 105.692 53.1579 105.341 57.4624 105.561C64.7485 105.912 66.4801 110.072 66.4801 110.072L66.1337 119.436C66.1337 119.436 62.3198 116.661 54.3411 115.622C46.3624 114.583 42.2022 115.276 42.2022 115.276L44.6308 106.604Z" fill="white" stroke="#9A95B2" stroke-width="0.925" stroke-linecap="round" stroke-linejoin="round"/>
<path d="M66.5511 150.299L68.4293 120.244C56.2903 112.958 42.2022 115.276 42.2022 115.276L30.2142 150.299H66.5511Z" fill="#9A95B2" stroke="#9A95B2" stroke-width="0.925" stroke-linecap="round" stroke-linejoin="round"/>
<path d="M161.292 127.211C161.292 127.211 162.477 122.478 168.987 118.628C175.496 114.779 185.268 116.262 185.268 116.262L186.747 120.107C186.747 120.107 178.755 119.814 172.836 123.068C166.917 126.323 163.956 130.172 163.956 130.172L161.292 127.211Z" fill="white" stroke="#9A95B2" stroke-width="0.925" stroke-linecap="round" stroke-linejoin="round"/>
<path d="M205.359 150.298L187.794 118.899C187.794 118.899 181.134 117.149 173.142 120.404C165.15 123.658 161.891 129.874 161.891 129.874L165.252 150.298H205.359Z" fill="#9A95B2" stroke="#9A95B2" stroke-width="0.925" stroke-linecap="round" stroke-linejoin="round"/>
<path d="M165.705 130.825C165.927 131.779 165.661 132.658 165.101 132.787C164.542 132.916 163.911 132.25 163.689 131.295C163.467 130.341 163.734 129.462 164.289 129.333C164.844 129.204 165.479 129.87 165.705 130.825Z" fill="white"/>
</g>
<defs>
<clipPath id="clip0">
<rect width="240" height="164" fill="white"/>
</clipPath>
</defs>
</svg>
