<svg width="200" height="164" viewBox="0 0 200 164" fill="none" xmlns="http://www.w3.org/2000/svg">
<path d="M151.2 43.0241C144.976 39.6161 138.492 38.2481 131.416 39.1241C122.7 40.2001 115.816 41.4681 107.476 38.2201C100.464 35.4921 94.0602 31.4201 87.3722 28.0441C73.6922 21.1041 60.1122 18.9561 49.8562 32.6441C44.4002 39.9281 40.2562 48.2921 37.3962 57.1161C32.7722 71.3521 28.9722 87.1161 31.0562 101.984C33.6922 120.832 49.8562 129.68 69.1922 122.852C77.0122 120.092 84.5602 116.052 92.9002 114.896C110.352 112.472 124.736 128.496 145.664 124.6C181.736 117.896 179.072 58.2841 151.2 43.0241Z" fill="#D5D8DA"/>
<path opacity="0.7" d="M151.2 43.0241C144.976 39.6161 138.492 38.2481 131.416 39.1241C122.7 40.2001 115.816 41.4681 107.476 38.2201C100.464 35.4921 94.0602 31.4201 87.3722 28.0441C73.6922 21.1041 60.1122 18.9561 49.8562 32.6441C44.4002 39.9281 40.2562 48.2921 37.3962 57.1161C32.7722 71.3521 28.9722 87.1161 31.0562 101.984C33.6922 120.832 49.8562 129.68 69.1922 122.852C77.0122 120.092 84.5602 116.052 92.9002 114.896C110.352 112.472 124.736 128.496 145.664 124.6C181.736 117.896 179.072 58.2841 151.2 43.0241Z" fill="white"/>
<path d="M156.66 27.6681C154.12 26.2801 152.968 27.4361 152.044 26.2801C151.12 25.1241 154.584 22.1241 147.644 19.1241C147.644 19.1241 147.184 12.6601 137.716 12.4281C128.248 12.1961 130.8 18.8921 128.26 20.5081C125.72 22.1241 125.028 19.6001 122.488 21.2001C119.948 22.8001 121.104 26.0481 119.028 26.5081C116.952 26.9681 114.176 24.4321 111.636 26.0481C109.096 27.6641 109.096 29.0481 107.944 29.0481C106.792 29.0481 104.48 28.1241 103.096 29.0481C101.712 29.9721 100.092 31.1281 100.092 31.1281H158.492C158.492 31.1281 159.2 29.0521 156.66 27.6681Z" fill="#D5D8DA"/>
<path opacity="0.5" d="M156.66 27.6681C154.12 26.2801 152.968 27.4361 152.044 26.2801C151.12 25.1241 154.584 22.1241 147.644 19.1241C147.644 19.1241 147.184 12.6601 137.716 12.4281C128.248 12.1961 130.8 18.8921 128.26 20.5081C125.72 22.1241 125.028 19.6001 122.488 21.2001C119.948 22.8001 121.104 26.0481 119.028 26.5081C116.952 26.9681 114.176 24.4321 111.636 26.0481C109.096 27.6641 109.096 29.0481 107.944 29.0481C106.792 29.0481 104.48 28.1241 103.096 29.0481C101.712 29.9721 100.092 31.1281 100.092 31.1281H158.492C158.492 31.1281 159.2 29.0521 156.66 27.6681Z" fill="white"/>
<path d="M90.4317 79.5601C88.6477 78.5881 87.8357 79.3961 87.1877 78.5881C86.5397 77.7801 88.9717 75.6681 84.1077 73.5601C84.1077 73.5601 83.7837 69.0201 77.1317 68.8561C70.4797 68.6921 72.2677 73.3961 70.4837 74.5321C68.6997 75.6681 68.2157 73.8841 66.4317 75.0201C64.6477 76.1561 65.4557 78.4241 63.9997 78.7481C62.5436 79.0721 60.5917 77.2881 58.7997 78.4241C57.0076 79.5601 57.0157 80.5321 56.2077 80.5321C55.3997 80.5321 53.7716 79.8841 52.7996 80.5321C51.8276 81.1801 50.6917 81.9921 50.6917 81.9921H91.7277C91.7277 81.9921 92.2157 80.5321 90.4317 79.5601Z" fill="white"/>
<path opacity="0.5" d="M90.4317 79.5601C88.6477 78.5881 87.8357 79.3961 87.1877 78.5881C86.5397 77.7801 88.9717 75.6681 84.1077 73.5601C84.1077 73.5601 83.7837 69.0201 77.1317 68.8561C70.4797 68.6921 72.2677 73.3961 70.4837 74.5321C68.6997 75.6681 68.2157 73.8841 66.4317 75.0201C64.6477 76.1561 65.4557 78.4241 63.9997 78.7481C62.5436 79.0721 60.5917 77.2881 58.7997 78.4241C57.0076 79.5601 57.0157 80.5321 56.2077 80.5321C55.3997 80.5321 53.7716 79.8841 52.7996 80.5321C51.8276 81.1801 50.6917 81.9921 50.6917 81.9921H91.7277C91.7277 81.9921 92.2157 80.5321 90.4317 79.5601Z" fill="white"/>
<path d="M141.148 147.148H166.428C165.944 144.056 163.956 144.6 163.692 139.808C163.56 137.408 165.796 134.408 165.6 131.24C165.44 128.628 162.868 125.952 162.668 122.964C162.488 120.268 164.668 117.276 164.472 114.372C164.268 111.628 161.672 108.992 161.428 106.136C161.204 103.336 163.356 100.332 163.1 97.5159C162.844 94.6999 160.192 92.1119 159.9 89.3359C159.608 86.4839 161.692 83.4119 161.372 80.6839C161.036 77.7839 158.3 75.2799 157.928 72.6079C157.528 69.6359 159.452 66.4599 159 63.8919C158.444 60.7479 155.516 58.4719 154.9 56.1519C153.752 51.8279 153.896 47.6639 152.54 47.3919C151.096 47.1039 150.764 51.1879 149.668 55.7519C149.116 58.0439 146.256 60.3679 145.784 63.5159C145.404 66.0639 147.428 69.1639 147.096 72.1239C146.8 74.7759 144.132 77.3239 143.872 80.2079C143.628 82.9199 145.792 85.9079 145.58 88.7439C145.372 91.4999 142.78 94.1279 142.608 96.9279C142.436 99.7279 144.66 102.656 144.508 105.42C144.352 108.252 141.812 110.928 141.68 113.652C141.544 116.536 143.82 119.444 143.708 122.116C143.584 125.08 141.08 127.792 140.988 130.384C140.876 133.528 143.184 136.428 143.112 138.824C142.96 144.024 140.58 142.94 140.496 147.124L141.148 147.148Z" fill="#D5D8DA"/>
<path d="M152 55.7V145.98" stroke="#B1B7BB" stroke-miterlimit="10"/>
<path d="M155.948 65.1639L151.832 68.7199L148.464 64.2279" stroke="#B1B7BB" stroke-miterlimit="10"/>
<path d="M155.948 80.8798L151.832 84.4319L148.464 79.9438" stroke="#B1B7BB" stroke-miterlimit="10"/>
<path d="M155.948 95.656L151.832 99.212L148.464 94.72" stroke="#B1B7BB" stroke-miterlimit="10"/>
<path d="M155.948 113.244L151.832 116.796L148.464 112.308" stroke="#B1B7BB" stroke-miterlimit="10"/>
<path d="M155.948 131.016L151.832 134.568L148.464 130.08" stroke="#B1B7BB" stroke-miterlimit="10"/>
<path d="M123.928 147.148H143.444C143.068 144.748 141.536 145.18 141.332 141.484C141.228 139.62 142.952 137.316 142.804 134.868C142.68 132.868 140.696 130.784 140.54 128.468C140.4 126.388 142.096 124.068 141.932 121.836C141.776 119.716 139.764 117.684 139.584 115.48C139.404 113.276 141.072 110.996 140.876 108.824C140.68 106.652 138.628 104.652 138.412 102.512C138.188 100.308 139.796 97.94 139.548 95.828C139.288 93.592 137.176 91.66 136.892 89.6C136.572 87.304 138.068 84.852 137.716 82.872C137.288 80.444 135.028 78.684 134.556 76.896C133.668 73.56 133.78 70.34 132.732 70.132C131.616 69.908 131.36 73.06 130.516 76.588C130.092 78.356 127.88 80.152 127.516 82.588C127.224 84.556 128.784 86.948 128.528 89.232C128.3 91.28 126.244 93.232 126.04 95.472C125.852 97.564 127.524 99.872 127.36 102.06C127.2 104.188 125.204 106.216 125.064 108.376C124.924 110.536 126.664 112.8 126.532 114.932C126.4 117.064 124.452 119.184 124.352 121.288C124.244 123.512 126 125.756 125.916 127.82C125.82 130.108 123.888 132.22 123.816 134.22C123.728 136.644 125.512 138.888 125.456 140.732C125.336 144.732 123.5 143.912 123.436 147.132L123.928 147.148Z" fill="#D5D8DA"/>
<path d="M132.308 76.5601V146.248" stroke="#B1B7BB" stroke-miterlimit="10"/>
<path d="M135.352 83.8639L132.176 86.6079L129.576 83.1399" stroke="#B1B7BB" stroke-miterlimit="10"/>
<path d="M135.352 95.992L132.176 98.736L129.576 95.272" stroke="#B1B7BB" stroke-miterlimit="10"/>
<path d="M135.352 107.4L132.176 110.144L129.576 106.68" stroke="#B1B7BB" stroke-miterlimit="10"/>
<path d="M135.352 120.976L132.176 123.72L129.576 120.252" stroke="#B1B7BB" stroke-miterlimit="10"/>
<path d="M135.352 134.696L132.176 137.436L129.576 133.972" stroke="#B1B7BB" stroke-miterlimit="10"/>
<path d="M106.532 146.96V66.088H110.8V146.96" fill="#8E969B"/>
<path d="M106.532 146.96V66.088H110.8V146.96" stroke="#8E969B" stroke-linecap="round" stroke-linejoin="round"/>
<path d="M104.4 146.96V66.088H108.668V146.96" fill="#D5D8DA"/>
<path d="M104.4 146.96V66.088H108.668V146.96" stroke="#8E969B" stroke-linecap="round" stroke-linejoin="round"/>
<g style="mix-blend-mode:multiply" opacity="0.3">
<path d="M108.668 66.088H104.4V75.688H108.668V66.088Z" fill="#8E969B"/>
</g>
<path d="M122.612 34.5161H90.9883L104.772 68.3721H136.4V48.3001C136.4 46.4896 136.044 44.6969 135.351 43.0243C134.658 41.3517 133.642 39.832 132.362 38.5519C131.081 37.2719 129.561 36.2567 127.888 35.5642C126.216 34.8717 124.423 34.5156 122.612 34.5161Z" fill="#D5D8DA" stroke="#8E969B" stroke-linecap="round" stroke-linejoin="round"/>
<g style="mix-blend-mode:multiply" opacity="0.3">
<path d="M102.36 62.444L104.76 68.372H136.4V48.3C136.4 47.996 136.4 47.692 136.368 47.392H102.368L102.36 62.444Z" fill="#B1B7BB"/>
</g>
<path d="M122.38 47.392H119.052" stroke="#8E969B" stroke-linecap="round" stroke-linejoin="round"/>
<path d="M136.368 47.392H126.296" stroke="#8E969B" stroke-linecap="round" stroke-linejoin="round"/>
<path d="M90.9882 34.5161C94.645 34.5161 98.152 35.9688 100.738 38.5545C103.324 41.1403 104.776 44.6473 104.776 48.3041V68.3761H77.2002V48.3001C77.2013 44.644 78.6544 41.138 81.24 38.5531C83.8257 35.9682 87.3321 34.5161 90.9882 34.5161Z" fill="#8E969B" stroke="#8E969B" stroke-linecap="round" stroke-linejoin="round"/>
<path d="M104.772 66.088H81.012V68.372H104.772V66.088Z" fill="#D5D8DA" stroke="#8E969B" stroke-linecap="round" stroke-linejoin="round"/>
<path d="M104.772 66.088H55.6001V68.372H104.772V66.088Z" fill="#D5D8DA" stroke="#8E969B" stroke-linecap="round" stroke-linejoin="round"/>
<path opacity="0.3" d="M104.772 66.088H81.012V68.372H104.772V66.088Z" fill="#B1B7BB"/>
<path d="M124.668 26.3561H114.8V33.2881H124.668V26.3561Z" fill="#8E969B" stroke="#8E969B" stroke-linecap="round" stroke-linejoin="round"/>
<path d="M115.6 26.3561H113.468V47.9561H115.6V26.3561Z" fill="white" stroke="#8E969B" stroke-linecap="round" stroke-linejoin="round"/>
<path d="M114.532 50.888C115.858 50.888 116.932 49.8135 116.932 48.488C116.932 47.1625 115.858 46.088 114.532 46.088C113.207 46.088 112.132 47.1625 112.132 48.488C112.132 49.8135 113.207 50.888 114.532 50.888Z" fill="#8E969B" stroke="#8E969B" stroke-linecap="round" stroke-linejoin="round"/>
<path d="M169.332 120.224H176" stroke="#8E969B" stroke-linecap="round" stroke-linejoin="round"/>
<path d="M169.332 130.088H176" stroke="#8E969B" stroke-linecap="round" stroke-linejoin="round"/>
<path d="M28.9319 129.824H168.532V120.488H28.9319" fill="white"/>
<path d="M28.9319 129.824H168.532V120.488H28.9319" stroke="#8E969B" stroke-linecap="round" stroke-linejoin="round"/>
<path d="M38.636 147.024V100.056C38.6361 99.9407 38.6595 99.8268 38.7049 99.7209C38.7503 99.615 38.8166 99.5194 38.9 99.4399L42.548 96.0039C42.7123 95.8503 42.9306 95.7679 43.1554 95.7747C43.3802 95.7814 43.5932 95.8768 43.748 96.0399L46.948 99.4439C47.0932 99.6024 47.1744 99.809 47.176 100.024V147.024" fill="#8E969B"/>
<path d="M38.636 147.024V100.056C38.6361 99.9407 38.6595 99.8268 38.7049 99.7209C38.7503 99.615 38.8166 99.5194 38.9 99.4399L42.548 96.0039C42.7123 95.8503 42.9306 95.7679 43.1554 95.7747C43.3802 95.7814 43.5932 95.8768 43.748 96.0399L46.948 99.4439C47.0932 99.6024 47.1744 99.809 47.176 100.024V147.024" stroke="#8E969B" stroke-linecap="round" stroke-linejoin="round"/>
<path d="M37.5999 147.424V100.056C37.5997 99.9404 37.6235 99.826 37.6696 99.72C37.7157 99.614 37.7832 99.5187 37.8679 99.44L41.5159 96.004C41.597 95.9275 41.6924 95.8677 41.7966 95.828C41.9008 95.7884 42.0119 95.7697 42.1233 95.7731C42.2348 95.7764 42.3445 95.8017 42.4462 95.8475C42.5478 95.8933 42.6395 95.9587 42.7159 96.04L45.9159 99.444C46.0627 99.6014 46.1442 99.8087 46.1439 100.024V147.424" fill="white"/>
<path d="M37.5999 147.424V100.056C37.5997 99.9404 37.6235 99.826 37.6696 99.72C37.7157 99.614 37.7832 99.5187 37.8679 99.44L41.5159 96.004C41.597 95.9275 41.6924 95.8677 41.7966 95.828C41.9008 95.7884 42.0119 95.7697 42.1233 95.7731C42.2348 95.7764 42.3445 95.8017 42.4462 95.8475C42.5478 95.8933 42.6395 95.9587 42.7159 96.04L45.9159 99.444C46.0627 99.6014 46.1442 99.8087 46.1439 100.024V147.424" stroke="#8E969B" stroke-linecap="round" stroke-linejoin="round"/>
<path d="M69.3958 147.024V100.056C69.3958 99.9408 69.4193 99.8268 69.4646 99.7209C69.51 99.6151 69.5764 99.5195 69.6597 99.44L73.3117 96.004C73.3928 95.9275 73.4882 95.8677 73.5925 95.828C73.6967 95.7884 73.8078 95.7697 73.9192 95.7731C74.0307 95.7764 74.1404 95.8017 74.2421 95.8475C74.3437 95.8933 74.4354 95.9587 74.5117 96.04L77.7117 99.444C77.8586 99.6014 77.9401 99.8087 77.9397 100.024V147.024" fill="#8E969B"/>
<path d="M69.3958 147.024V100.056C69.3958 99.9408 69.4193 99.8268 69.4646 99.7209C69.51 99.6151 69.5764 99.5195 69.6597 99.44L73.3117 96.004C73.3928 95.9275 73.4882 95.8677 73.5925 95.828C73.6967 95.7884 73.8078 95.7697 73.9192 95.7731C74.0307 95.7764 74.1404 95.8017 74.2421 95.8475C74.3437 95.8933 74.4354 95.9587 74.5117 96.04L77.7117 99.444C77.8586 99.6014 77.9401 99.8087 77.9397 100.024V147.024" stroke="#8E969B" stroke-linecap="round" stroke-linejoin="round"/>
<path d="M68.532 147.424V100.056C68.5319 99.9403 68.5556 99.826 68.6017 99.72C68.6478 99.614 68.7153 99.5186 68.8 99.4399L72.448 96.0039C72.6123 95.8503 72.8306 95.7679 73.0554 95.7747C73.2802 95.7814 73.4932 95.8768 73.648 96.0399L76.848 99.4439C76.996 99.6009 77.0789 99.8082 77.08 100.024V147.424" fill="white"/>
<path d="M68.532 147.424V100.056C68.5319 99.9403 68.5556 99.826 68.6017 99.72C68.6478 99.614 68.7153 99.5186 68.8 99.4399L72.448 96.0039C72.6123 95.8503 72.8306 95.7679 73.0554 95.7747C73.2802 95.7814 73.4932 95.8768 73.648 96.0399L76.848 99.4439C76.996 99.6009 77.0789 99.8082 77.08 100.024V147.424" stroke="#8E969B" stroke-linecap="round" stroke-linejoin="round"/>
<path d="M100.328 147.024V100.056C100.328 99.9403 100.351 99.826 100.397 99.72C100.443 99.614 100.511 99.5186 100.596 99.4399L104.244 96.0039C104.408 95.8503 104.626 95.7679 104.851 95.7747C105.076 95.7814 105.289 95.8768 105.444 96.0399L108.644 99.4439C108.792 99.6009 108.875 99.8082 108.876 100.024V147.424" fill="#8E969B"/>
<path d="M100.328 147.024V100.056C100.328 99.9403 100.351 99.826 100.397 99.72C100.443 99.614 100.511 99.5186 100.596 99.4399L104.244 96.0039C104.408 95.8503 104.626 95.7679 104.851 95.7747C105.076 95.7814 105.289 95.8768 105.444 96.0399L108.644 99.4439C108.792 99.6009 108.875 99.8082 108.876 100.024V147.424" stroke="#8E969B" stroke-linecap="round" stroke-linejoin="round"/>
<path d="M99.468 147.424V100.056C99.4681 99.9408 99.4915 99.8268 99.5369 99.7209C99.5823 99.6151 99.6487 99.5195 99.732 99.44L103.384 96.004C103.465 95.9275 103.561 95.8677 103.665 95.828C103.769 95.7884 103.88 95.7697 103.991 95.7731C104.103 95.7764 104.213 95.8017 104.314 95.8475C104.416 95.8933 104.508 95.9587 104.584 96.04L107.784 99.444C107.931 99.6014 108.012 99.8087 108.012 100.024V147.424" fill="white"/>
<path d="M99.468 147.424V100.056C99.4681 99.9408 99.4915 99.8268 99.5369 99.7209C99.5823 99.6151 99.6487 99.5195 99.732 99.44L103.384 96.004C103.465 95.9275 103.561 95.8677 103.665 95.828C103.769 95.7884 103.88 95.7697 103.991 95.7731C104.103 95.7764 104.213 95.8017 104.314 95.8475C104.416 95.8933 104.508 95.9587 104.584 96.04L107.784 99.444C107.931 99.6014 108.012 99.8087 108.012 100.024V147.424" stroke="#8E969B" stroke-linecap="round" stroke-linejoin="round"/>
<path d="M131.264 147.024V100.056C131.264 99.9407 131.287 99.8268 131.333 99.7209C131.378 99.615 131.445 99.5194 131.528 99.4399L135.176 96.0039C135.34 95.8503 135.559 95.7679 135.783 95.7747C136.008 95.7814 136.221 95.8768 136.376 96.0399L139.576 99.4439C139.721 99.6024 139.802 99.809 139.804 100.024V147.024" fill="#8E969B"/>
<path d="M131.264 147.024V100.056C131.264 99.9407 131.287 99.8268 131.333 99.7209C131.378 99.615 131.445 99.5194 131.528 99.4399L135.176 96.0039C135.34 95.8503 135.559 95.7679 135.783 95.7747C136.008 95.7814 136.221 95.8768 136.376 96.0399L139.576 99.4439C139.721 99.6024 139.802 99.809 139.804 100.024V147.024" stroke="#8E969B" stroke-linecap="round" stroke-linejoin="round"/>
<path d="M130.4 147.424V100.056C130.4 99.9404 130.424 99.826 130.47 99.72C130.516 99.614 130.583 99.5187 130.668 99.44L134.316 96.004C134.397 95.9275 134.492 95.8677 134.597 95.828C134.701 95.7884 134.812 95.7697 134.923 95.7731C135.035 95.7764 135.145 95.8017 135.246 95.8475C135.348 95.8933 135.44 95.9587 135.516 96.04L138.716 99.444C138.863 99.6014 138.944 99.8087 138.944 100.024V147.424" fill="white"/>
<path d="M130.4 147.424V100.056C130.4 99.9404 130.424 99.826 130.47 99.72C130.516 99.614 130.583 99.5187 130.668 99.44L134.316 96.004C134.397 95.9275 134.492 95.8677 134.597 95.828C134.701 95.7884 134.812 95.7697 134.923 95.7731C135.035 95.7764 135.145 95.8017 135.246 95.8475C135.348 95.8933 135.44 95.9587 135.516 96.04L138.716 99.444C138.863 99.6014 138.944 99.8087 138.944 100.024V147.424" stroke="#8E969B" stroke-linecap="round" stroke-linejoin="round"/>
<path d="M162.196 147.024V100.056C162.196 99.9408 162.219 99.8268 162.265 99.7209C162.31 99.6151 162.376 99.5195 162.46 99.44L166.112 96.004C166.193 95.9275 166.288 95.8677 166.393 95.828C166.497 95.7884 166.608 95.7697 166.719 95.7731C166.831 95.7764 166.94 95.8017 167.042 95.8475C167.144 95.8933 167.235 95.9587 167.312 96.04L170.512 99.444C170.659 99.6014 170.74 99.8087 170.74 100.024V147.024" fill="#8E969B"/>
<path d="M162.196 147.024V100.056C162.196 99.9408 162.219 99.8268 162.265 99.7209C162.31 99.6151 162.376 99.5195 162.46 99.44L166.112 96.004C166.193 95.9275 166.288 95.8677 166.393 95.828C166.497 95.7884 166.608 95.7697 166.719 95.7731C166.831 95.7764 166.94 95.8017 167.042 95.8475C167.144 95.8933 167.235 95.9587 167.312 96.04L170.512 99.444C170.659 99.6014 170.74 99.8087 170.74 100.024V147.024" stroke="#8E969B" stroke-linecap="round" stroke-linejoin="round"/>
<path d="M161.332 147.424V100.056C161.332 99.9403 161.355 99.826 161.402 99.72C161.448 99.614 161.515 99.5186 161.6 99.4399L165.248 96.0039C165.412 95.8503 165.63 95.7679 165.855 95.7747C166.08 95.7814 166.293 95.8768 166.448 96.0399L169.648 99.4439C169.796 99.6009 169.879 99.8082 169.88 100.024V147.424" fill="white"/>
<path d="M161.332 147.424V100.056C161.332 99.9403 161.355 99.826 161.402 99.72C161.448 99.614 161.515 99.5186 161.6 99.4399L165.248 96.0039C165.412 95.8503 165.63 95.7679 165.855 95.7747C166.08 95.7814 166.293 95.8768 166.448 96.0399L169.648 99.4439C169.796 99.6009 169.879 99.8082 169.88 100.024V147.424" stroke="#8E969B" stroke-linecap="round" stroke-linejoin="round"/>
<path d="M42.7117 96.04V99.464" stroke="#8E969B" stroke-linecap="round" stroke-linejoin="round"/>
<path d="M44.084 97.808V105.912" stroke="#8E969B" stroke-linecap="round" stroke-linejoin="round"/>
<path d="M70.2158 98.4719V108.724" stroke="#8E969B" stroke-linecap="round" stroke-linejoin="round"/>
<path d="M71.5403 97.1479V101.612" stroke="#8E969B" stroke-linecap="round" stroke-linejoin="round"/>
<path d="M103.384 96.004V106.08" stroke="#8E969B" stroke-linecap="round" stroke-linejoin="round"/>
<path d="M105.284 96.816V111.704" stroke="#8E969B" stroke-linecap="round" stroke-linejoin="round"/>
<path d="M131.912 98.4719V109.716" stroke="#8E969B" stroke-linecap="round" stroke-linejoin="round"/>
<path d="M136.212 97.1479V99.96" stroke="#8E969B" stroke-linecap="round" stroke-linejoin="round"/>
<path d="M164.164 96.98V102.936" stroke="#8E969B" stroke-linecap="round" stroke-linejoin="round"/>
<path d="M167.804 97.6439V114.844" stroke="#8E969B" stroke-linecap="round" stroke-linejoin="round"/>
<path d="M161.188 122.784H157.548" stroke="#8E969B" stroke-linecap="round" stroke-linejoin="round"/>
<path d="M161.188 125.596H148.452" stroke="#8E969B" stroke-linecap="round" stroke-linejoin="round"/>
<path d="M113.716 125.596H107.928" stroke="#8E969B" stroke-linecap="round" stroke-linejoin="round"/>
<path d="M83.2838 125.596H77.4958" stroke="#8E969B" stroke-linecap="round" stroke-linejoin="round"/>
<path d="M37.4677 124.108H31.6797" stroke="#8E969B" stroke-linecap="round" stroke-linejoin="round"/>
<path d="M37.4681 126.752H35.1521" stroke="#8E969B" stroke-linecap="round" stroke-linejoin="round"/>
<path d="M110.74 124.108H107.928" stroke="#8E969B" stroke-linecap="round" stroke-linejoin="round"/>
<path d="M79.9758 127.248H77.1638" stroke="#8E969B" stroke-linecap="round" stroke-linejoin="round"/>
<path d="M68.2322 127.248H65.4202" stroke="#8E969B" stroke-linecap="round" stroke-linejoin="round"/>
<path d="M172.432 125.596H169.952" stroke="#8E969B" stroke-linecap="round" stroke-linejoin="round"/>
<path d="M175.74 125.596H174.252" stroke="#8E969B" stroke-linecap="round" stroke-linejoin="round"/>
<path d="M45.9998 108.4C45.9998 108.4 44.9998 116.996 43.7998 125.792C42.5998 134.588 44.7998 143.588 45.3998 144.388" stroke="#8E969B" stroke-linecap="round" stroke-linejoin="round"/>
<path d="M42.0437 125.8C42.2357 124.084 42.3957 123 42.3957 123" stroke="#8E969B" stroke-linecap="round" stroke-linejoin="round"/>
<path d="M44.9958 143.388C44.9958 143.388 41.3958 142.588 41.3958 136.188C41.3958 133.56 41.5638 130.868 41.7638 128.588" stroke="#8E969B" stroke-linecap="round" stroke-linejoin="round"/>
<path d="M75.1999 98.2001C75.1999 98.2001 75.9999 98.8001 74.5999 105.6C73.1999 112.4 73.3999 122.4 75.1999 128" stroke="#8E969B" stroke-linecap="round" stroke-linejoin="round"/>
<path d="M77.1997 110.8C77.1997 110.8 75.1997 116.8 76.5997 125.2" stroke="#8E969B" stroke-linecap="round" stroke-linejoin="round"/>
<path d="M100 114.596C100 114.596 101 120.396 102 126.392C103 132.388 102.2 140.792 101.4 142.988C100.6 145.184 99.8 146.988 99.8 146.988" stroke="#8E969B" stroke-linecap="round" stroke-linejoin="round"/>
<path d="M103.768 144.048C102.876 146.784 101.768 143.588 101.768 143.588" stroke="#8E969B" stroke-linecap="round" stroke-linejoin="round"/>
<path d="M103.732 123.6C103.732 123.6 105.616 133.324 104.552 140.644" stroke="#8E969B" stroke-linecap="round" stroke-linejoin="round"/>
<path d="M99.5999 126.8C99.5999 126.8 101.6 131 99.7999 135" stroke="#8E969B" stroke-linecap="round" stroke-linejoin="round"/>
<path d="M136.92 127.392C137.188 128.615 137.539 129.818 137.972 130.992" stroke="#8E969B" stroke-linecap="round" stroke-linejoin="round"/>
<path d="M138.572 106.6C137.302 110.629 136.497 114.789 136.172 119C136.052 121.131 136.172 123.268 136.528 125.372" stroke="#8E969B" stroke-linecap="round" stroke-linejoin="round"/>
<path d="M134.772 124.992C134.772 124.992 136.572 131.792 137.572 134.192C138.572 136.592 138.172 142.388 136.972 145.188" stroke="#8E969B" stroke-linecap="round" stroke-linejoin="round"/>
<path d="M161.764 109.6C161.764 109.6 165.764 116.8 161.964 128.596" stroke="#8E969B" stroke-linecap="round" stroke-linejoin="round"/>
<path d="M165.44 121.896C165.464 124.144 165.264 126.992 164.364 129.392C162.564 134.192 161.764 135.792 161.764 135.792" stroke="#8E969B" stroke-linecap="round" stroke-linejoin="round"/>
<path d="M165.164 118C165.164 118 165.296 118.86 165.376 120.184" stroke="#8E969B" stroke-linecap="round" stroke-linejoin="round"/>
</svg>
