<svg width="128" height="130" viewBox="0 0 128 130" fill="none" xmlns="http://www.w3.org/2000/svg">
<path d="M16.5489 100.47C16.5489 100.47 29.5925 118.931 51.8839 119.681C74.1752 120.431 94.1102 104.89 110.556 92.7971C127.002 80.7044 132.399 60.444 124.187 43.7336C115.975 27.0231 101.076 32.7484 83.1937 21.0056C65.3116 9.26281 62.1064 3.10462 41.3482 4.15804C20.5901 5.21146 3.43424 29.9885 4.18955 57.7455C4.94486 85.5025 16.5489 100.47 16.5489 100.47Z" fill="#B3ADCD"/>
<path opacity="0.7" d="M16.5489 100.47C16.5489 100.47 29.5925 118.931 51.8839 119.681C74.1752 120.431 94.1102 104.89 110.556 92.7971C127.002 80.7044 132.399 60.444 124.187 43.7336C115.975 27.0231 101.076 32.7484 83.1937 21.0056C65.3116 9.26281 62.1064 3.10462 41.3482 4.15804C20.5901 5.21146 3.43424 29.9886 4.18955 57.7455C4.94486 85.5025 16.5489 100.47 16.5489 100.47Z" fill="white"/>
<path d="M22.5364 9.12202C22.5147 9.12202 22.7889 7.77638 22.8142 7.67897C23.1244 6.71574 24.2933 5.04181 25.4224 5.04542C25.6105 5.05072 25.7954 5.09563 25.965 5.17721C26.1345 5.25879 26.285 5.37521 26.4065 5.51887C26.5281 5.66254 26.618 5.83021 26.6703 6.01095C26.7227 6.1917 26.7363 6.38145 26.7104 6.56783C26.6274 7.3615 25.9131 8.03973 25.2673 8.42936C24.5097 8.90195 22.5364 9.12202 22.5364 9.12202Z" fill="#B3ADCD"/>
<path d="M20.3469 0.0743841C21.4291 0.456791 21.9414 2.42655 21.9054 3.43668C21.9054 3.52326 21.7033 4.87972 21.6853 4.87972H21.6636C21.7466 5.18998 21.8368 5.52548 21.927 5.89346C22.0857 6.57169 22.2589 7.33651 22.3924 8.1879C22.5471 9.09993 22.6483 10.0202 22.6954 10.9441C22.753 11.9794 22.7179 13.0177 22.5908 14.0467C22.5891 14.0586 22.5891 14.0708 22.5908 14.0827C22.7315 13.7833 23.15 12.9536 23.1861 12.8958C23.7416 12.0517 25.3073 10.7313 26.4004 11.0451C26.5799 11.0999 26.7458 11.1918 26.8874 11.315C27.0289 11.4382 27.1429 11.5899 27.2219 11.7601C27.3008 11.9303 27.343 12.1152 27.3457 12.3028C27.3484 12.4905 27.3115 12.6765 27.2374 12.8489C26.9488 13.5921 26.083 14.0575 25.3578 14.2631C24.5389 14.4976 22.7135 14.2234 22.5691 14.1982C22.4149 15.2426 22.1907 16.2755 21.8981 17.2899C21.7298 17.8816 21.547 18.472 21.3498 19.0612C21.476 18.8051 21.5951 18.5778 21.6131 18.549C22.1687 17.7012 23.738 16.3844 24.8275 16.6983C25.007 16.753 25.1729 16.845 25.3145 16.9682C25.456 17.0913 25.57 17.243 25.6489 17.4132C25.7279 17.5834 25.7701 17.7684 25.7728 17.956C25.7755 18.1436 25.7386 18.3297 25.6645 18.5021C25.3759 19.2452 24.51 19.7106 23.7849 19.9163C23.0598 20.1219 21.4869 19.9163 21.0756 19.8621L20.8483 20.5404C20.4876 21.6227 20.0943 22.7049 19.766 23.7656C19.647 24.1263 19.5424 24.516 19.4377 24.8911C19.5532 24.6639 19.6506 24.4727 19.6686 24.4438C20.2206 23.5996 21.7899 22.2792 22.8794 22.5931C23.0585 22.6484 23.2241 22.7407 23.3654 22.8639C23.5067 22.9871 23.6207 23.1386 23.6999 23.3085C23.7791 23.4785 23.8218 23.6631 23.8252 23.8506C23.8287 24.038 23.7928 24.2241 23.72 24.3969C23.4314 25.1437 22.5619 25.6055 21.8368 25.8147C21.1117 26.0239 19.6939 25.8399 19.2032 25.7714C19.1058 26.1574 19.012 26.5434 18.9363 26.9222C18.8894 27.1856 18.8281 27.4309 18.7956 27.6943L18.6874 28.4699C18.6368 28.9641 18.5791 29.4728 18.5431 29.9562C18.5142 30.2917 18.4925 30.6128 18.4709 30.9375C18.5863 30.5767 18.8317 29.83 18.8317 29.7722C19.2312 28.9785 19.8273 28.3004 20.5633 27.8025C20.6025 27.7105 20.6522 27.6234 20.7112 27.5427C20.8134 27.3851 20.9476 27.2508 21.1052 27.1486C21.2628 27.0465 21.4402 26.9787 21.6257 26.9497C21.8113 26.9208 22.0009 26.9313 22.1821 26.9807C22.3633 27.03 22.5321 27.1171 22.6774 27.2361C23.536 27.9757 23.3195 30.0031 22.9263 30.9339C22.9047 30.988 22.5836 31.5544 22.3779 31.9116C22.5331 31.7204 22.6774 31.5328 22.8397 31.3416C23.1536 30.9555 23.4783 30.5804 23.8246 30.1763L24.3549 29.6027C24.5281 29.4079 24.7373 29.2419 24.9285 29.0291C25.3795 28.5926 25.8593 28.1705 26.3535 27.7556C26.018 27.4814 24.8347 26.4857 24.4956 25.8075C24.1565 25.1292 23.9148 24.1804 24.2683 23.4625C24.3461 23.2913 24.459 23.1384 24.5996 23.0136C24.7403 22.8888 24.9056 22.7949 25.0848 22.7381C25.2641 22.6813 25.4533 22.6628 25.6402 22.6838C25.827 22.7048 26.0074 22.7649 26.1695 22.8601C27.1256 23.4625 27.223 25.5008 26.974 26.4677C26.974 26.529 26.6999 27.2108 26.552 27.5824C26.8514 27.3371 27.1472 27.0918 27.4575 26.8609C28.3522 26.1718 29.2793 25.4972 30.1993 24.8226L31.0398 24.2021C30.9208 24.1047 29.4922 22.9503 29.1098 22.189C28.7742 21.5144 28.5289 20.562 28.8825 19.8477C28.9598 19.6761 29.0724 19.5227 29.213 19.3976C29.3536 19.2725 29.519 19.1785 29.6984 19.1216C29.8779 19.0648 30.0673 19.0464 30.2543 19.0677C30.4413 19.089 30.6217 19.1495 30.7837 19.2452C31.7433 19.8441 31.8371 21.8824 31.5882 22.8528C31.5702 22.925 31.1986 23.9063 31.0939 24.1516C31.7072 23.6934 32.3169 23.2316 32.8977 22.7482C33.688 22.104 34.4352 21.4086 35.1345 20.6666C35.0804 20.6197 33.5832 19.422 33.1936 18.6464C32.8545 17.9717 32.6127 17.0157 32.9663 16.3014C33.0437 16.1303 33.1562 15.9774 33.2965 15.8527C33.4368 15.7279 33.6018 15.634 33.7808 15.5772C33.9598 15.5204 34.1487 15.5019 34.3353 15.5228C34.5219 15.5438 34.702 15.6038 34.8639 15.699C35.8235 16.3014 35.9209 18.3397 35.672 19.3066C35.672 19.3715 35.3726 20.1183 35.2319 20.4718L35.286 20.5079C35.9694 19.7409 36.5839 18.9152 37.1223 18.0403C37.4253 17.5605 37.6851 17.0879 37.9304 16.6225C37.6273 16.4277 36.26 15.5222 35.8307 14.862C35.4014 14.2018 35.0768 13.3071 35.3473 12.5567C35.4053 12.3778 35.5003 12.2132 35.6262 12.0735C35.7521 11.9338 35.906 11.8222 36.0778 11.746C36.2497 11.6697 36.4358 11.6305 36.6238 11.631C36.8118 11.6315 36.9977 11.6715 37.1692 11.7486C38.1901 12.2429 38.5076 14.2739 38.3669 15.2588C38.3669 15.3129 38.2226 15.8577 38.118 16.2509C38.2226 16.0381 38.338 15.8216 38.4354 15.616C38.7962 14.8476 39.1028 14.1188 39.3554 13.4514C39.4997 13.0906 39.6187 12.7479 39.7161 12.4305C39.5177 12.0697 38.7457 10.6844 38.6699 9.90513C38.5942 9.12588 38.7168 8.18069 39.3049 7.63955C39.4388 7.50778 39.5989 7.40567 39.7748 7.33987C39.9508 7.27406 40.1386 7.24603 40.3261 7.2576C40.5136 7.26917 40.6966 7.32008 40.8631 7.40702C41.0296 7.49396 41.176 7.61498 41.2927 7.7622C41.9709 8.66772 41.3251 10.605 40.7407 11.4275C40.6902 11.4997 39.7703 12.5098 39.7594 12.5098V12.4882C39.6584 12.7948 39.5502 13.1231 39.4203 13.4767C39.1822 14.1332 38.9044 14.8692 38.5473 15.6412C38.1697 16.486 37.7445 17.3086 37.2738 18.1052C36.7485 18.9987 36.1448 19.8438 35.47 20.6306L35.4447 20.6594C35.7261 20.4863 36.527 20.0245 36.5956 19.9956C37.5263 19.5988 39.5538 19.3751 40.297 20.2265C40.4166 20.3714 40.5043 20.5399 40.5546 20.7209C40.6048 20.902 40.6163 21.0916 40.5884 21.2774C40.5605 21.4632 40.4938 21.641 40.3926 21.7993C40.2914 21.9577 40.158 22.0929 40.0011 22.1963C39.3482 22.658 38.3705 22.557 37.649 22.3406C36.8373 22.0808 35.4844 20.847 35.3617 20.746C34.6571 21.5321 33.9002 22.2697 33.0962 22.9539C32.6308 23.3543 32.1474 23.7439 31.6531 24.1299C31.902 23.9856 32.1257 23.8594 32.1582 23.8449C33.0853 23.4481 35.1128 23.2244 35.856 24.0758C35.9762 24.2205 36.0644 24.3889 36.1149 24.5701C36.1654 24.7512 36.1771 24.941 36.1492 25.127C36.1213 25.3129 36.0544 25.4909 35.9528 25.6492C35.8513 25.8075 35.7175 25.9426 35.5602 26.0456C34.9108 26.5074 33.9295 26.4063 33.2116 26.1899C32.4937 25.9734 31.2924 24.9272 30.9821 24.6494C30.7909 24.7937 30.6213 24.9417 30.4157 25.0896C29.5102 25.7822 28.6119 26.4713 27.728 27.1784C27.4214 27.4237 27.1292 27.6798 26.8334 27.936L27.2735 27.6907C28.2006 27.2938 30.2281 27.0665 30.9713 27.9179C31.091 28.0631 31.1788 28.2319 31.229 28.4132C31.2793 28.5945 31.2908 28.7844 31.2629 28.9705C31.235 29.1566 31.1683 29.3347 31.0671 29.4934C30.9659 29.652 30.8325 29.7876 30.6755 29.8913C30.0261 30.3531 29.0448 30.2521 28.3269 30.032C27.609 29.8119 26.5231 28.8703 26.1623 28.5421C25.8701 28.8126 25.5743 29.0832 25.3037 29.3574C25.1197 29.5486 24.943 29.7181 24.7626 29.9238L24.2431 30.5082C23.9292 30.8942 23.6009 31.2874 23.3015 31.6698C23.0923 31.9332 22.8974 32.1893 22.7026 32.4491C23.0021 32.1966 23.6081 31.7276 23.6623 31.6843C24.5173 31.1504 26.4906 30.602 27.3528 31.3524C27.4926 31.4779 27.6043 31.6314 27.6808 31.803C27.7573 31.9745 27.7969 32.1603 27.7969 32.3481C27.7969 32.5359 27.7573 32.7216 27.6808 32.8932C27.6043 33.0647 27.4926 33.2183 27.3528 33.3438C26.7756 33.8994 25.7944 33.9571 25.0512 33.8416C24.2287 33.7118 22.7423 32.7593 22.5583 32.6223C22.2336 33.0516 21.9234 33.4664 21.6348 33.8669C20.6355 35.2486 19.8562 36.4391 19.3223 37.2761L19.2682 37.3627L18.5755 37.0271L18.6838 36.8612C19.2429 36.0242 20.0582 34.8409 21.0972 33.4701C21.4255 33.0335 21.7827 32.5754 22.1543 32.11C21.7678 31.6877 21.4065 31.2432 21.072 30.7788C20.2747 31.0926 18.6224 31.1035 18.406 31.1035C18.3735 31.6374 18.3446 32.1605 18.323 32.6511C18.2508 34.3539 18.2581 35.7753 18.2761 36.771V36.8865L17.5149 36.5257C17.5149 35.5372 17.5546 34.2024 17.6556 32.6223C17.688 32.0811 17.7349 31.5003 17.7891 30.905C17.5762 30.8509 15.8554 30.4108 15.206 29.8913C14.618 29.4187 13.9975 28.6575 14.0191 27.8566C14.0177 27.6687 14.0558 27.4826 14.131 27.3105C14.2062 27.1383 14.3169 26.9839 14.4557 26.8573C14.5946 26.7307 14.7585 26.6348 14.9369 26.5757C15.1153 26.5167 15.3041 26.4958 15.491 26.5146C16.613 26.6589 17.5546 28.4699 17.7386 29.462C17.7386 29.5233 17.7963 30.1835 17.8179 30.5803C17.8432 30.3386 17.8612 30.1005 17.8901 29.8588C17.937 29.3646 18.0019 28.8739 18.0705 28.3436C18.1101 28.0875 18.1534 27.8314 18.1931 27.5716C18.2328 27.3119 18.3013 27.0449 18.3555 26.7779C18.4925 26.1646 18.6585 25.5477 18.8425 24.9308C18.4096 24.8875 16.8763 24.7072 16.2197 24.3284C15.5632 23.9496 14.8344 23.293 14.737 22.4993C14.7069 22.3137 14.7162 22.1237 14.7643 21.9419C14.8125 21.7601 14.8984 21.5905 15.0165 21.4441C15.1347 21.2978 15.2823 21.1779 15.4498 21.0925C15.6174 21.007 15.801 20.9578 15.9889 20.948C17.118 20.9228 18.323 22.5678 18.6549 23.5239C18.6765 23.5816 18.8389 24.2923 18.9219 24.6855C19.0337 24.3248 19.1419 23.946 19.2826 23.5744C19.6434 22.4921 20.051 21.4351 20.4479 20.3636C20.5705 20.0353 20.686 19.707 20.8086 19.3787C20.6535 19.3787 18.8244 19.1875 18.0885 18.7654C17.4355 18.4047 16.7068 17.73 16.6058 16.9364C16.5762 16.7508 16.5859 16.5611 16.6343 16.3795C16.6827 16.1979 16.7687 16.0285 16.8867 15.8823C17.0047 15.7361 17.1521 15.6163 17.3193 15.5306C17.4866 15.445 17.67 15.3954 17.8576 15.3851C18.9904 15.3598 20.1953 17.0049 20.5272 17.9609C20.5525 18.0331 20.7834 19.0432 20.8303 19.3174C21.09 18.5959 21.3462 17.8743 21.5518 17.1528C21.8569 16.1787 22.0979 15.1857 22.2733 14.1801C22.2012 14.1801 20.2927 13.9998 19.5388 13.5669C18.8822 13.2061 18.1534 12.5315 18.056 11.7378C18.0258 11.5523 18.0351 11.3626 18.0833 11.181C18.1315 10.9994 18.2175 10.83 18.3357 10.6839C18.4538 10.5378 18.6015 10.4183 18.7691 10.3332C18.9366 10.2481 19.1202 10.1994 19.3079 10.1901C20.437 10.1613 21.642 11.8063 21.9739 12.7624C21.9955 12.8237 22.1759 13.6029 22.2517 13.9781H22.313C22.462 12.962 22.52 11.9345 22.4862 10.908C22.4862 10.3416 22.4321 9.80411 22.3779 9.28101C22.0172 9.28101 20.3793 9.28101 19.6578 8.96715C18.9363 8.65329 18.1679 8.0905 17.9803 7.31486C17.9302 7.13317 17.9191 6.94295 17.9477 6.75667C17.9762 6.57039 18.0438 6.39224 18.146 6.23387C18.2481 6.07551 18.3826 5.94051 18.5405 5.83771C18.6985 5.73491 18.8764 5.66662 19.0625 5.63732C20.1845 5.48219 21.5626 6.99018 21.9991 7.8993C22.0208 7.9498 22.2084 8.48012 22.3347 8.86974C22.3094 8.63164 22.2841 8.38632 22.2517 8.14822C22.1398 7.30043 21.9811 6.53201 21.8368 5.85017C21.7502 5.46416 21.6672 5.12865 21.5843 4.79314C21.2235 4.61276 19.8093 3.86959 19.3259 3.27073C18.8425 2.67186 18.4096 1.80243 18.6044 1.0304C18.6475 0.848089 18.7284 0.676857 18.8419 0.527785C18.9553 0.378714 19.0988 0.255123 19.2631 0.165009C19.4273 0.0748955 19.6087 0.0202661 19.7954 0.00465506C19.982 -0.010956 20.1699 0.0127994 20.3469 0.0743841Z" fill="#B3ADCD"/>
<path d="M40.7942 17.4955C39.9103 17.4594 38.1426 16.5539 38.1426 16.5539C38.1426 16.5539 39.0914 15.569 39.1599 15.5149C39.95 14.8872 41.8476 14.1332 42.7892 14.7609C42.9431 14.8687 43.0725 15.0079 43.1689 15.1692C43.2654 15.3305 43.3267 15.5103 43.3488 15.6969C43.371 15.8835 43.3534 16.0727 43.2974 16.2521C43.2414 16.4315 43.1481 16.597 43.0237 16.7379C42.5186 17.3548 41.5482 17.528 40.7942 17.4955Z" fill="#B3ADCD"/>
<path opacity="0.5" d="M22.5364 9.12202C22.5147 9.12202 22.7889 7.77638 22.8142 7.67897C23.1244 6.71574 24.2933 5.04181 25.4224 5.04542C25.6105 5.05072 25.7954 5.09563 25.965 5.17721C26.1345 5.25879 26.285 5.37521 26.4065 5.51887C26.5281 5.66254 26.618 5.83021 26.6703 6.01095C26.7227 6.1917 26.7363 6.38145 26.7104 6.56783C26.6274 7.3615 25.9131 8.03973 25.2673 8.42936C24.5097 8.90195 22.5364 9.12202 22.5364 9.12202Z" fill="white"/>
<path opacity="0.5" d="M20.3469 0.0743841C21.4291 0.456791 21.9414 2.42655 21.9054 3.43668C21.9054 3.52326 21.7033 4.87972 21.6853 4.87972H21.6636C21.7466 5.18998 21.8368 5.52548 21.927 5.89346C22.0857 6.57169 22.2589 7.33651 22.3924 8.1879C22.5471 9.09993 22.6483 10.0202 22.6954 10.9441C22.753 11.9794 22.7179 13.0177 22.5908 14.0467C22.5891 14.0586 22.5891 14.0708 22.5908 14.0827C22.7315 13.7833 23.15 12.9536 23.1861 12.8958C23.7416 12.0517 25.3073 10.7313 26.4004 11.0451C26.5799 11.0999 26.7458 11.1918 26.8874 11.315C27.0289 11.4382 27.1429 11.5899 27.2219 11.7601C27.3008 11.9303 27.343 12.1152 27.3457 12.3028C27.3484 12.4905 27.3115 12.6765 27.2374 12.8489C26.9488 13.5921 26.083 14.0575 25.3578 14.2631C24.5389 14.4976 22.7135 14.2234 22.5691 14.1982C22.4149 15.2426 22.1907 16.2755 21.8981 17.2899C21.7298 17.8816 21.547 18.472 21.3498 19.0612C21.476 18.8051 21.5951 18.5778 21.6131 18.549C22.1687 17.7012 23.738 16.3844 24.8275 16.6983C25.007 16.753 25.1729 16.845 25.3145 16.9682C25.456 17.0913 25.57 17.243 25.6489 17.4132C25.7279 17.5834 25.7701 17.7684 25.7728 17.956C25.7755 18.1436 25.7386 18.3297 25.6645 18.5021C25.3759 19.2452 24.51 19.7106 23.7849 19.9163C23.0598 20.1219 21.4869 19.9163 21.0756 19.8621L20.8483 20.5404C20.4876 21.6227 20.0943 22.7049 19.766 23.7656C19.647 24.1263 19.5424 24.516 19.4377 24.8911C19.5532 24.6639 19.6506 24.4727 19.6686 24.4438C20.2206 23.5996 21.7899 22.2792 22.8794 22.5931C23.0585 22.6484 23.2241 22.7407 23.3654 22.8639C23.5067 22.9871 23.6207 23.1386 23.6999 23.3085C23.7791 23.4785 23.8218 23.6631 23.8252 23.8506C23.8287 24.038 23.7928 24.2241 23.72 24.3969C23.4314 25.1437 22.5619 25.6055 21.8368 25.8147C21.1117 26.0239 19.6939 25.8399 19.2032 25.7714C19.1058 26.1574 19.012 26.5434 18.9363 26.9222C18.8894 27.1856 18.8281 27.4309 18.7956 27.6943L18.6874 28.4699C18.6368 28.9641 18.5791 29.4728 18.5431 29.9562C18.5142 30.2917 18.4925 30.6128 18.4709 30.9375C18.5863 30.5767 18.8317 29.83 18.8317 29.7722C19.2312 28.9785 19.8273 28.3004 20.5633 27.8025C20.6025 27.7105 20.6522 27.6234 20.7112 27.5427C20.8134 27.3851 20.9476 27.2508 21.1052 27.1486C21.2628 27.0465 21.4402 26.9787 21.6257 26.9497C21.8113 26.9208 22.0009 26.9313 22.1821 26.9807C22.3633 27.03 22.5321 27.1171 22.6774 27.2361C23.536 27.9757 23.3195 30.0031 22.9263 30.9339C22.9047 30.988 22.5836 31.5544 22.3779 31.9116C22.5331 31.7204 22.6774 31.5328 22.8397 31.3416C23.1536 30.9555 23.4783 30.5804 23.8246 30.1763L24.3549 29.6027C24.5281 29.4079 24.7373 29.2419 24.9285 29.0291C25.3795 28.5926 25.8593 28.1705 26.3535 27.7556C26.018 27.4814 24.8347 26.4857 24.4956 25.8075C24.1565 25.1292 23.9148 24.1804 24.2683 23.4625C24.3461 23.2913 24.459 23.1384 24.5996 23.0136C24.7403 22.8888 24.9056 22.7949 25.0848 22.7381C25.2641 22.6813 25.4533 22.6628 25.6402 22.6838C25.827 22.7048 26.0074 22.7649 26.1695 22.8601C27.1256 23.4625 27.223 25.5008 26.974 26.4677C26.974 26.529 26.6999 27.2108 26.552 27.5824C26.8514 27.3371 27.1472 27.0918 27.4575 26.8609C28.3522 26.1718 29.2793 25.4972 30.1993 24.8226L31.0398 24.2021C30.9208 24.1047 29.4922 22.9503 29.1098 22.189C28.7742 21.5144 28.5289 20.562 28.8825 19.8477C28.9598 19.6761 29.0724 19.5227 29.213 19.3976C29.3536 19.2725 29.519 19.1785 29.6984 19.1216C29.8779 19.0648 30.0673 19.0464 30.2543 19.0677C30.4413 19.089 30.6217 19.1495 30.7837 19.2452C31.7433 19.8441 31.8371 21.8824 31.5882 22.8528C31.5702 22.925 31.1986 23.9063 31.0939 24.1516C31.7072 23.6934 32.3169 23.2316 32.8977 22.7482C33.688 22.104 34.4352 21.4086 35.1345 20.6666C35.0804 20.6197 33.5832 19.422 33.1936 18.6464C32.8545 17.9717 32.6127 17.0157 32.9663 16.3014C33.0437 16.1303 33.1562 15.9774 33.2965 15.8527C33.4368 15.7279 33.6018 15.634 33.7808 15.5772C33.9598 15.5204 34.1487 15.5019 34.3353 15.5228C34.5219 15.5438 34.702 15.6038 34.8639 15.699C35.8235 16.3014 35.9209 18.3397 35.672 19.3066C35.672 19.3715 35.3726 20.1183 35.2319 20.4718L35.286 20.5079C35.9694 19.7409 36.5839 18.9152 37.1223 18.0403C37.4253 17.5605 37.6851 17.0879 37.9304 16.6225C37.6273 16.4277 36.26 15.5222 35.8307 14.862C35.4014 14.2018 35.0768 13.3071 35.3473 12.5567C35.4053 12.3778 35.5003 12.2132 35.6262 12.0735C35.7521 11.9338 35.906 11.8222 36.0778 11.746C36.2497 11.6697 36.4358 11.6305 36.6238 11.631C36.8118 11.6315 36.9977 11.6715 37.1692 11.7486C38.1901 12.2429 38.5076 14.2739 38.3669 15.2588C38.3669 15.3129 38.2226 15.8577 38.118 16.2509C38.2226 16.0381 38.338 15.8216 38.4354 15.616C38.7962 14.8476 39.1028 14.1188 39.3554 13.4514C39.4997 13.0906 39.6187 12.7479 39.7161 12.4305C39.5177 12.0697 38.7457 10.6844 38.6699 9.90513C38.5942 9.12588 38.7168 8.18069 39.3049 7.63955C39.4388 7.50778 39.5989 7.40567 39.7748 7.33987C39.9508 7.27406 40.1386 7.24603 40.3261 7.2576C40.5136 7.26917 40.6966 7.32008 40.8631 7.40702C41.0296 7.49396 41.176 7.61498 41.2927 7.7622C41.9709 8.66772 41.3251 10.605 40.7407 11.4275C40.6902 11.4997 39.7703 12.5098 39.7594 12.5098V12.4882C39.6584 12.7948 39.5502 13.1231 39.4203 13.4767C39.1822 14.1332 38.9044 14.8692 38.5473 15.6412C38.1697 16.486 37.7445 17.3086 37.2738 18.1052C36.7485 18.9987 36.1448 19.8438 35.47 20.6306L35.4447 20.6594C35.7261 20.4863 36.527 20.0245 36.5956 19.9956C37.5263 19.5988 39.5538 19.3751 40.297 20.2265C40.4166 20.3714 40.5043 20.5399 40.5546 20.7209C40.6048 20.902 40.6163 21.0916 40.5884 21.2774C40.5605 21.4632 40.4938 21.641 40.3926 21.7993C40.2914 21.9577 40.158 22.0929 40.0011 22.1963C39.3482 22.658 38.3705 22.557 37.649 22.3406C36.8373 22.0808 35.4844 20.847 35.3617 20.746C34.6571 21.5321 33.9002 22.2697 33.0962 22.9539C32.6308 23.3543 32.1474 23.7439 31.6531 24.1299C31.902 23.9856 32.1257 23.8594 32.1582 23.8449C33.0853 23.4481 35.1128 23.2244 35.856 24.0758C35.9762 24.2205 36.0644 24.3889 36.1149 24.5701C36.1654 24.7512 36.1771 24.941 36.1492 25.127C36.1213 25.3129 36.0544 25.4909 35.9528 25.6492C35.8513 25.8075 35.7175 25.9426 35.5602 26.0456C34.9108 26.5074 33.9295 26.4063 33.2116 26.1899C32.4937 25.9734 31.2924 24.9272 30.9821 24.6494C30.7909 24.7937 30.6213 24.9417 30.4157 25.0896C29.5102 25.7822 28.6119 26.4713 27.728 27.1784C27.4214 27.4237 27.1292 27.6798 26.8334 27.936L27.2735 27.6907C28.2006 27.2938 30.2281 27.0665 30.9713 27.9179C31.091 28.0631 31.1788 28.2319 31.229 28.4132C31.2793 28.5945 31.2908 28.7844 31.2629 28.9705C31.235 29.1566 31.1683 29.3347 31.0671 29.4934C30.9659 29.652 30.8325 29.7876 30.6755 29.8913C30.0261 30.3531 29.0448 30.2521 28.3269 30.032C27.609 29.8119 26.5231 28.8703 26.1623 28.5421C25.8701 28.8126 25.5743 29.0832 25.3037 29.3574C25.1197 29.5486 24.943 29.7181 24.7626 29.9238L24.2431 30.5082C23.9292 30.8942 23.6009 31.2874 23.3015 31.6698C23.0923 31.9332 22.8974 32.1893 22.7026 32.4491C23.0021 32.1966 23.6081 31.7276 23.6623 31.6843C24.5173 31.1504 26.4906 30.602 27.3528 31.3524C27.4926 31.4779 27.6043 31.6314 27.6808 31.803C27.7573 31.9745 27.7969 32.1603 27.7969 32.3481C27.7969 32.5359 27.7573 32.7216 27.6808 32.8932C27.6043 33.0647 27.4926 33.2183 27.3528 33.3438C26.7756 33.8994 25.7944 33.9571 25.0512 33.8416C24.2287 33.7118 22.7423 32.7593 22.5583 32.6223C22.2336 33.0516 21.9234 33.4664 21.6348 33.8669C20.6355 35.2486 19.8562 36.4391 19.3223 37.2761L19.2682 37.3627L18.5755 37.0271L18.6838 36.8612C19.2429 36.0242 20.0582 34.8409 21.0972 33.4701C21.4255 33.0335 21.7827 32.5754 22.1543 32.11C21.7678 31.6877 21.4065 31.2432 21.072 30.7788C20.2747 31.0926 18.6224 31.1035 18.406 31.1035C18.3735 31.6374 18.3446 32.1605 18.323 32.6511C18.2508 34.3539 18.2581 35.7753 18.2761 36.771V36.8865L17.5149 36.5257C17.5149 35.5372 17.5546 34.2024 17.6556 32.6223C17.688 32.0811 17.7349 31.5003 17.7891 30.905C17.5762 30.8509 15.8554 30.4108 15.206 29.8913C14.618 29.4187 13.9975 28.6575 14.0191 27.8566C14.0177 27.6687 14.0558 27.4826 14.131 27.3105C14.2062 27.1383 14.3169 26.9839 14.4557 26.8573C14.5946 26.7307 14.7585 26.6348 14.9369 26.5757C15.1153 26.5167 15.3041 26.4958 15.491 26.5146C16.613 26.6589 17.5546 28.4699 17.7386 29.462C17.7386 29.5233 17.7963 30.1835 17.8179 30.5803C17.8432 30.3386 17.8612 30.1005 17.8901 29.8588C17.937 29.3646 18.0019 28.8739 18.0705 28.3436C18.1101 28.0875 18.1534 27.8314 18.1931 27.5716C18.2328 27.3119 18.3013 27.0449 18.3555 26.7779C18.4925 26.1646 18.6585 25.5477 18.8425 24.9308C18.4096 24.8875 16.8763 24.7072 16.2197 24.3284C15.5632 23.9496 14.8344 23.293 14.737 22.4993C14.7069 22.3137 14.7162 22.1237 14.7643 21.9419C14.8125 21.7601 14.8984 21.5905 15.0165 21.4441C15.1347 21.2978 15.2823 21.1779 15.4498 21.0925C15.6174 21.007 15.801 20.9578 15.9889 20.948C17.118 20.9228 18.323 22.5678 18.6549 23.5239C18.6765 23.5816 18.8389 24.2923 18.9219 24.6855C19.0337 24.3248 19.1419 23.946 19.2826 23.5744C19.6434 22.4921 20.051 21.4351 20.4479 20.3636C20.5705 20.0353 20.686 19.707 20.8086 19.3787C20.6535 19.3787 18.8244 19.1875 18.0885 18.7654C17.4355 18.4047 16.7068 17.73 16.6058 16.9364C16.5762 16.7508 16.5859 16.5611 16.6343 16.3795C16.6827 16.1979 16.7687 16.0285 16.8867 15.8823C17.0047 15.7361 17.1521 15.6163 17.3193 15.5306C17.4866 15.445 17.67 15.3954 17.8576 15.3851C18.9904 15.3598 20.1953 17.0049 20.5272 17.9609C20.5525 18.0331 20.7834 19.0432 20.8303 19.3174C21.09 18.5959 21.3462 17.8743 21.5518 17.1528C21.8569 16.1787 22.0979 15.1857 22.2733 14.1801C22.2012 14.1801 20.2927 13.9998 19.5388 13.5669C18.8822 13.2061 18.1534 12.5315 18.056 11.7378C18.0258 11.5523 18.0351 11.3626 18.0833 11.181C18.1315 10.9994 18.2175 10.83 18.3357 10.6839C18.4538 10.5378 18.6015 10.4183 18.7691 10.3332C18.9366 10.2481 19.1202 10.1994 19.3079 10.1901C20.437 10.1613 21.642 11.8063 21.9739 12.7624C21.9955 12.8237 22.1759 13.6029 22.2517 13.9781H22.313C22.462 12.962 22.52 11.9345 22.4862 10.908C22.4862 10.3416 22.4321 9.80411 22.3779 9.28101C22.0172 9.28101 20.3793 9.28101 19.6578 8.96715C18.9363 8.65329 18.1679 8.0905 17.9803 7.31486C17.9302 7.13317 17.9191 6.94295 17.9477 6.75667C17.9762 6.57039 18.0438 6.39224 18.146 6.23387C18.2481 6.07551 18.3826 5.94051 18.5405 5.83771C18.6985 5.73491 18.8764 5.66662 19.0625 5.63732C20.1845 5.48219 21.5626 6.99018 21.9991 7.8993C22.0208 7.9498 22.2084 8.48012 22.3347 8.86974C22.3094 8.63164 22.2841 8.38632 22.2517 8.14822C22.1398 7.30043 21.9811 6.53201 21.8368 5.85017C21.7502 5.46416 21.6672 5.12865 21.5843 4.79314C21.2235 4.61276 19.8093 3.86959 19.3259 3.27073C18.8425 2.67186 18.4096 1.80243 18.6044 1.0304C18.6475 0.848089 18.7284 0.676857 18.8419 0.527785C18.9553 0.378714 19.0988 0.255123 19.2631 0.165009C19.4273 0.0748955 19.6087 0.0202661 19.7954 0.00465506C19.982 -0.010956 20.1699 0.0127994 20.3469 0.0743841Z" fill="white"/>
<path opacity="0.5" d="M40.7956 17.4955C39.9118 17.4594 38.144 16.5539 38.144 16.5539C38.144 16.5539 39.0928 15.569 39.1614 15.5149C39.9514 14.8872 41.849 14.1332 42.7906 14.7609C42.9445 14.8687 43.074 15.0079 43.1704 15.1692C43.2668 15.3305 43.3281 15.5103 43.3503 15.6969C43.3724 15.8835 43.3549 16.0727 43.2989 16.2521C43.2428 16.4315 43.1496 16.597 43.0251 16.7379C42.5201 17.3548 41.5496 17.528 40.7956 17.4955Z" fill="white"/>
<path d="M30.4734 39.6316C30.4734 39.6316 25.1089 26.7019 22.1073 27.2647C19.1058 27.8275 27.2554 47.8786 27.2554 47.8786C27.2554 47.8786 17.8179 30.075 11.3819 30.075C4.94593 30.075 13.7413 49.7509 21.9125 56.3096C21.9125 56.3096 9.04057 42.4419 1.53313 45.4398C-5.97431 48.4378 16.53 62.4858 16.53 62.4858C16.53 62.4858 3.44517 58.3695 4.95676 61.5586C6.46835 64.7478 10.5341 65.3033 10.5341 65.3033L16.1404 66.0537H31.2923L35.6215 64.9318C35.6215 64.9318 47.6348 58.9323 44.4168 56.4972C41.1988 54.062 34.1207 59.3075 34.1207 59.3075C34.1207 59.3075 46.3469 45.815 43.9875 40.7572C41.6281 35.6993 31.1156 49.9385 31.1156 49.9385C31.1156 49.9385 39.6981 31.7598 37.97 28.5742C36.242 25.3887 30.4734 39.6316 30.4734 39.6316Z" fill="#B3ADCD"/>
<path opacity="0.5" d="M30.4734 39.6316C30.4734 39.6316 25.1089 26.7019 22.1073 27.2647C19.1058 27.8275 27.2554 47.8786 27.2554 47.8786C27.2554 47.8786 17.8179 30.075 11.3819 30.075C4.94593 30.075 13.7413 49.7509 21.9125 56.3096C21.9125 56.3096 9.04057 42.4419 1.53313 45.4398C-5.97431 48.4378 16.53 62.4858 16.53 62.4858C16.53 62.4858 3.44517 58.3695 4.95676 61.5586C6.46835 64.7478 10.5341 65.3033 10.5341 65.3033L16.1404 66.0537H31.2923L35.6215 64.9318C35.6215 64.9318 47.6348 58.9323 44.4168 56.4972C41.1988 54.062 34.1207 59.3075 34.1207 59.3075C34.1207 59.3075 46.3469 45.815 43.9875 40.7572C41.6281 35.6993 31.1156 49.9385 31.1156 49.9385C31.1156 49.9385 39.6981 31.7598 37.97 28.5742C36.242 25.3887 30.4734 39.6316 30.4734 39.6316Z" fill="white"/>
<path d="M32.1909 40.314C27.4722 54.2574 27.4722 64.1242 27.4722 64.1242C27.4722 64.1242 33.0495 64.3407 38.8398 60.0476" stroke="white" stroke-linecap="round" stroke-linejoin="round"/>
<path d="M29.8496 47.8214C28.8759 43.6533 27.5842 39.5659 25.9858 35.5952" stroke="white" stroke-linecap="round" stroke-linejoin="round"/>
<path d="M15.8882 39.668L27.8979 57.4751C27.8979 57.4751 36.0511 50.6207 38.8398 46.7497" stroke="white" stroke-linecap="round" stroke-linejoin="round"/>
<path d="M27.6849 61.7644C27.6849 61.7644 15.0294 55.7577 9.88135 52.3269" stroke="white" stroke-linecap="round" stroke-linejoin="round"/>
<path d="M65.7841 10.7637H63.1758V119.457H65.7841V10.7637Z" fill="#D9D6E6" stroke="#D9D6E6" stroke-linecap="round" stroke-linejoin="round"/>
<path d="M18.5028 10.7637H15.8945V119.457H18.5028V10.7637Z" fill="#D9D6E6" stroke="#D9D6E6" stroke-linecap="round" stroke-linejoin="round"/>
<path d="M42.3246 10.7637H39.7163V119.457H42.3246V10.7637Z" fill="#D9D6E6" stroke="#D9D6E6" stroke-linecap="round" stroke-linejoin="round"/>
<path d="M89.2416 10.7637H86.6333V119.457H89.2416V10.7637Z" fill="#D9D6E6" stroke="#D9D6E6" stroke-linecap="round" stroke-linejoin="round"/>
<path d="M88.4584 14.1514H15.415V19.1046H88.4584V14.1514Z" fill="#D9D6E6" stroke="#D9D6E6" stroke-linecap="round" stroke-linejoin="round"/>
<path d="M88.4584 14.1514H41.4512V19.1046H88.4584V14.1514Z" fill="#D9D6E6" stroke="#D9D6E6" stroke-linecap="round" stroke-linejoin="round"/>
<path d="M88.4584 64.0266H15.415V68.9799H88.4584V64.0266Z" fill="#D9D6E6" stroke="#D9D6E6" stroke-linecap="round" stroke-linejoin="round"/>
<path d="M88.4584 64.0266H41.4512V68.9799H88.4584V64.0266Z" fill="#D9D6E6" stroke="#D9D6E6" stroke-linecap="round" stroke-linejoin="round"/>
<path d="M88.4584 113.898H15.415V118.851H88.4584V113.898Z" fill="#D9D6E6" stroke="#D9D6E6" stroke-linecap="round" stroke-linejoin="round"/>
<path d="M88.4584 113.898H41.4512V118.851H88.4584V113.898Z" fill="#D9D6E6" stroke="#D9D6E6" stroke-linecap="round" stroke-linejoin="round"/>
<path d="M49.9047 129.88C64.298 129.88 75.966 128.462 75.966 126.713C75.966 124.964 64.298 123.545 49.9047 123.545C35.5113 123.545 23.8433 124.964 23.8433 126.713C23.8433 128.462 35.5113 129.88 49.9047 129.88Z" fill="#9A95B2"/>
<path opacity="0.5" d="M49.9047 129.88C64.298 129.88 75.966 128.462 75.966 126.713C75.966 124.964 64.298 123.545 49.9047 123.545C35.5113 123.545 23.8433 124.964 23.8433 126.713C23.8433 128.462 35.5113 129.88 49.9047 129.88Z" fill="white"/>
<path d="M103.835 126.702C103.835 127.575 98.0156 128.282 90.8473 128.282C83.6789 128.282 77.8599 127.56 77.8599 126.702C77.8599 125.843 83.6753 125.125 90.8473 125.125C98.0192 125.125 103.835 125.843 103.835 126.702Z" fill="#9A95B2"/>
<path opacity="0.5" d="M103.835 126.702C103.835 127.575 98.0156 128.282 90.8473 128.282C83.6789 128.282 77.8599 127.56 77.8599 126.702C77.8599 125.843 83.6753 125.125 90.8473 125.125C98.0192 125.125 103.835 125.843 103.835 126.702Z" fill="white"/>
<path d="M55.1027 22.3661C55.1027 22.3661 53.0861 20.7823 50.7736 21.5724C48.4611 22.3625 46.7078 26.2154 46.0837 29.3468C45.4596 32.4782 43.0605 34.852 43.6377 38.5246C44.2149 42.1971 48.3889 42.7707 53.4288 43.3119C58.4686 43.853 61.2032 43.2397 63.577 39.9279C65.9508 36.6162 64.9443 32.5865 63.5409 29.0221C62.1376 25.4578 59.7998 22.1496 57.8553 21.5363C55.9108 20.923 55.1027 22.3661 55.1027 22.3661Z" fill="#9A95B2" stroke="#9A95B2" stroke-linecap="round" stroke-linejoin="round"/>
<path d="M46.77 41.2017C47.1103 41.3547 47.4642 41.4755 47.827 41.5624" stroke="white" stroke-linecap="round" stroke-linejoin="round"/>
<path d="M54.5984 24.9309C53.7765 26.7673 52.7347 28.4972 51.4959 30.0826C49.4323 32.7342 44.8687 35.2379 44.5765 38.0193C44.5295 38.3917 44.5622 38.7698 44.6723 39.1287C44.7823 39.4875 44.9673 39.8189 45.215 40.1009" stroke="white" stroke-linecap="round" stroke-linejoin="round"/>
<path d="M62.9718 38.2322C62.8227 38.5814 62.6313 38.9109 62.4019 39.2134" stroke="white" stroke-linecap="round" stroke-linejoin="round"/>
<path d="M61.2358 31.2625C61.2358 31.2625 63.5555 33.9393 63.3319 36.7965" stroke="white" stroke-linecap="round" stroke-linejoin="round"/>
<path d="M54.1582 23.4555C53.2541 23.3635 52.3411 23.4894 51.4956 23.8227C50.6502 24.156 49.8969 24.6869 49.2988 25.3712C49.2158 25.465 49.14 25.5588 49.0679 25.6525" stroke="white" stroke-linecap="round" stroke-linejoin="round"/>
<path d="M40.8494 91.4557L40.3985 98.3967C40.3985 98.3967 38.4792 107.708 37.8731 111.546C37.2671 115.385 36.1559 121.222 35.9539 121.222C35.7519 121.222 32.4401 123.224 31.3794 124.859C30.3188 126.493 31.6644 127.185 33.1363 126.662C34.6082 126.139 36.6069 124.66 37.2598 122.903C37.9128 121.146 38.2375 120.493 38.2808 120.208C38.3241 119.923 45.3048 101.182 45.9975 99.1796C46.6901 97.1773 48.162 91.2969 48.162 91.2969L51.5929 79.6588C51.5929 79.6588 55.2654 91.6252 55.3087 92.1555C55.352 92.6859 59.1039 123.271 59.2771 124.415C59.4503 125.558 59.3998 126.374 60.0924 126.619C60.7851 126.864 62.4193 126.864 63.2779 126.864C64.1365 126.864 67.1164 127.315 68.5847 126.947C70.053 126.579 70.219 126.334 69.198 125.598C68.1771 124.862 62.5059 124.393 61.9828 122.25C61.9395 122.088 61.8998 90.6043 61.8998 90.6043C61.8998 90.6043 61.4092 80.1927 60.5939 77.2561H41.7261L40.8494 91.4557Z" fill="white" stroke="#9A95B2" stroke-linecap="round" stroke-linejoin="round"/>
<path d="M33.1327 126.655C34.601 126.121 36.6032 124.653 37.2562 122.896L37.3933 122.535C36.5599 123.423 35.2287 124.657 35.2287 124.657C35.1471 124.238 34.9652 123.846 34.6984 123.513C34.582 123.385 34.4329 123.29 34.2671 123.24C34.1012 123.19 33.9249 123.186 33.7568 123.228L35.1999 121.641C34.1176 122.312 32.1695 123.683 31.4047 124.862C30.3116 126.489 31.6536 127.185 33.1327 126.655Z" fill="#9A95B2" stroke="#9A95B2" stroke-linecap="round" stroke-linejoin="round"/>
<path d="M69.1728 125.59C68.4729 125.089 65.5977 124.71 63.6784 123.833C63.5992 123.901 63.5374 123.986 63.498 124.082C63.3762 124.428 63.2809 124.783 63.213 125.143L59.2446 124.295V124.407C59.407 125.551 59.3673 126.366 60.06 126.611C60.7526 126.857 62.3869 126.857 63.2455 126.857C64.1041 126.857 67.084 127.308 68.5523 126.94C70.0206 126.572 70.2082 126.341 69.1728 125.59Z" fill="#9A95B2" stroke="#9A95B2" stroke-linecap="round" stroke-linejoin="round"/>
<path d="M46.3481 60.3215C46.3481 60.3215 44.4757 61.1838 42.2102 65.2531C39.7317 69.6941 40.1574 72.1617 40.1214 77.5191C40.0853 82.8764 39.9771 91.7691 39.9771 91.7691C39.9771 91.7691 46.8315 93.6054 51.7487 93.3168C56.6658 93.0282 62.9034 91.9134 62.9034 91.9134C62.9034 91.9134 61.5722 73.7743 60.3131 68.5577C59.0541 63.3411 58.2965 60.9817 58.2965 60.9817C55.8631 61.3195 53.3973 61.3558 50.955 61.09C46.781 60.6823 46.3481 60.3215 46.3481 60.3215Z" fill="#9A95B2" stroke="#9A95B2" stroke-linecap="round" stroke-linejoin="round"/>
<path d="M54.2339 76.3647C54.4215 76.9816 54.5947 77.6058 54.7462 78.2299" stroke="white" stroke-linecap="round" stroke-linejoin="round"/>
<path d="M49.8872 66.1553C51.3405 68.8369 52.5875 71.6252 53.6175 74.4961" stroke="white" stroke-linecap="round" stroke-linejoin="round"/>
<path d="M92.3051 56.8726C92.0886 56.7283 88.5424 56.1727 88.5424 56.1727L87.8497 55.8877C87.8497 55.8877 92.1427 56.2304 92.1788 56.05C92.2149 55.8697 92.3592 55.6532 92.0706 55.6171C91.782 55.5811 86.2587 54.4591 86.2587 54.4591C86.2587 54.4591 87.6621 53.1315 87.8425 52.8429C88.0229 52.5543 88.2718 51.977 87.9832 51.977C87.6946 51.977 87.6224 52.1574 87.2292 52.41C86.836 52.6625 85.2847 53.2758 84.8518 53.6329C84.4189 53.9901 83.1273 54.9281 83.1273 54.9281L68.1269 52.8645C68.1269 52.8645 62.8598 46.3708 61.7162 44.9855C60.9212 44.061 60.0162 43.2372 59.0213 42.5323C57.9173 42.0453 57.939 42.8606 57.939 42.8606L60.2443 53.1062C60.2443 53.1062 66.2076 56.6597 66.5756 56.6597C66.9436 56.6597 83.0552 57.1937 83.0552 57.1937C83.0552 57.1937 84.1375 57.6987 84.8157 58.128C85.4939 58.5573 89.8195 59.9318 89.8195 59.9318C89.8195 59.9318 90.1081 59.7875 89.7834 59.535C89.4587 59.2825 87.3735 58.2759 87.3735 58.2759L91.7026 59.2139C91.7026 59.2139 91.9552 59.0335 91.8469 58.8532C91.7387 58.6728 87.8786 57.1973 87.8786 57.1973L92.2077 57.4137C92.2077 57.4137 92.5179 57.0169 92.3051 56.8726Z" fill="white" stroke="#9A95B2" stroke-linecap="round" stroke-linejoin="round"/>
<path d="M67.2214 51.7498C65.6665 49.8341 62.5603 46.0101 61.7162 44.9855C60.9212 44.061 60.0162 43.2372 59.0213 42.5323C57.9173 42.0453 57.939 42.8606 57.939 42.8606L60.2443 53.1062C60.2443 53.1062 62.9355 54.708 64.8115 55.7614L67.2214 51.7498Z" fill="white" stroke="#9A95B2" stroke-linecap="round" stroke-linejoin="round"/>
<path d="M51.2797 41.6563C51.2797 41.6563 48.1483 41.8006 46.229 43.9255C44.3098 46.0503 44.5371 50.7258 45.3307 53.5325C46.1244 56.3393 47.1345 57.8869 46.9145 58.861C46.6944 59.835 45.908 60.1561 46.3373 61.0544C46.7666 61.9527 49.2522 62.9268 53.6427 62.7825C58.0332 62.6382 58.8629 61.7002 58.899 60.8776C58.9351 60.0551 58.6104 59.366 58.7186 58.861C58.8268 58.3559 61.9943 55.5492 61.9943 52.4539C61.9943 49.3585 60.627 48.2798 60.3024 46.0467C59.9777 43.8136 60.0859 43.4925 58.7547 42.5185C57.4235 41.5444 53.0438 41.043 51.2797 41.6563Z" fill="white" stroke="#9A95B2" stroke-linecap="round" stroke-linejoin="round"/>
<path d="M49.8578 52.3853C48.8112 53.261 47.6495 53.9893 46.4053 54.5498" stroke="#9A95B2" stroke-linecap="round" stroke-linejoin="round"/>
<path d="M50.2037 52.7458C50.2037 52.7458 49.4281 55.2495 47.5269 56.6313" stroke="#9A95B2" stroke-linecap="round" stroke-linejoin="round"/>
<path d="M57.9752 43.9214L58.336 47.3775L56.8208 45.6134L57.9752 43.9214Z" fill="white" stroke="#9A95B2" stroke-linecap="round" stroke-linejoin="round"/>
<path d="M55.9575 47.6665L57.9742 43.9218L56.1379 41.9448L55.9575 47.6665Z" fill="white" stroke="#9A95B2" stroke-linecap="round" stroke-linejoin="round"/>
<path d="M52.0723 35.5374C52.3867 36.7851 52.5431 38.0675 52.5376 39.3542C52.5271 40.1874 52.4426 41.018 52.2851 41.8363L55.9577 47.6662L57.0003 42.2547L57.6857 38.51C57.6857 38.51 53.5117 38.2719 52.0723 35.5374Z" fill="white" stroke="#9A95B2" stroke-linecap="round" stroke-linejoin="round"/>
<path d="M55.7416 44.5347L55.9581 47.6661L54.8794 45.9741L55.7416 44.5347Z" fill="white" stroke="#9A95B2" stroke-linecap="round" stroke-linejoin="round"/>
<path d="M51.062 41.6919L54.4099 47.7022L55.7411 44.5347L52.1804 39.6392L51.062 41.6919Z" fill="white" stroke="#9A95B2" stroke-linecap="round" stroke-linejoin="round"/>
<path d="M109.716 44.4951H79.3359V69.4237H109.716V44.4951Z" fill="#9A95B2"/>
<path opacity="0.2" d="M109.716 44.4951H79.3359V69.4237H109.716V44.4951Z" fill="#9A95B2"/>
<path d="M109.716 44.4951H79.3359V69.4237H109.716V44.4951Z" stroke="#9A95B2" stroke-linecap="round" stroke-linejoin="round"/>
<path d="M103.283 44.4951H72.9028V69.4237H103.283V44.4951Z" fill="#9A95B2" stroke="#9A95B2" stroke-linecap="round" stroke-linejoin="round"/>
<path d="M114.719 77.8154C113.745 76.2713 109.715 69.4241 109.715 69.4241H103.286L106.594 77.8154H114.719Z" fill="#9A95B2"/>
<path opacity="0.2" d="M114.718 77.8154C113.744 76.2713 109.714 69.4241 109.714 69.4241H103.286L106.594 77.8154H114.718Z" fill="#9A95B2"/>
<path d="M114.719 77.8154C113.745 76.2713 109.715 69.4241 109.715 69.4241H103.286L106.594 77.8154H114.719Z" stroke="#9A95B2" stroke-linecap="round" stroke-linejoin="round"/>
<path d="M67.8813 77.8154C68.8554 76.2713 72.8815 69.4241 72.8815 69.4241H79.3139L76.0057 77.8154H67.8813Z" fill="#9A95B2" stroke="#9A95B2" stroke-linecap="round" stroke-linejoin="round"/>
<path d="M72.8814 69.4241L70.0854 77.8154H101.814L103.286 69.4241H72.8814Z" fill="#9A95B2" stroke="#9A95B2" stroke-linecap="round" stroke-linejoin="round"/>
<path d="M113.625 53.5139V61.8619" stroke="white" stroke-linecap="round" stroke-linejoin="round"/>
<path d="M115.207 57.1257V63.8936" stroke="white" stroke-linecap="round" stroke-linejoin="round"/>
<path d="M69.6387 61.8623V67.0501" stroke="white" stroke-linecap="round" stroke-linejoin="round"/>
<path d="M68.2852 64.7949V68.8535" stroke="white" stroke-linecap="round" stroke-linejoin="round"/>
<path d="M46.0586 50.6175C47.1352 51.8369 48.3847 52.8919 49.7672 53.7489C51.9318 55.0441 59.8685 59.5428 60.4927 59.7953C61.1168 60.0478 80.0712 56.9525 80.0712 56.9525C80.0712 56.9525 81.1535 57.4576 81.8353 57.8869C82.5171 58.3162 86.8391 59.6907 86.8391 59.6907C86.8391 59.6907 87.1277 59.5464 86.803 59.2974C86.4783 59.0485 84.3931 58.0348 84.3931 58.0348L88.7222 58.9728C88.7222 58.9728 88.9748 58.7924 88.8665 58.612C88.7583 58.4316 84.8982 56.9561 84.8982 56.9561L89.2273 57.1726C89.2273 57.1726 89.552 56.7757 89.3355 56.6314C89.1191 56.4871 84.6853 55.477 84.6853 55.477C84.6853 55.477 89.4005 55.0801 89.4366 54.8998C89.4726 54.7194 89.6169 54.5065 89.3283 54.4705C89.0397 54.4344 83.1376 53.8572 83.1376 53.8572C83.1376 53.8572 84.6853 52.8867 84.8657 52.5981C85.0461 52.3095 85.2986 51.7323 85.01 51.7323C84.7214 51.7323 84.6492 51.9127 84.256 52.1652C83.8628 52.4177 82.3115 53.031 81.8786 53.3882C81.4457 53.7453 80.1505 54.6869 80.1505 54.6869L62.8051 54.723L52.0364 46.2271" fill="white"/>
<path d="M46.0586 50.6175C47.1352 51.8369 48.3847 52.8919 49.7672 53.7489C51.9318 55.0441 59.8685 59.5428 60.4927 59.7953C61.1168 60.0478 80.0712 56.9525 80.0712 56.9525C80.0712 56.9525 81.1535 57.4576 81.8353 57.8869C82.5171 58.3162 86.8391 59.6907 86.8391 59.6907C86.8391 59.6907 87.1277 59.5464 86.803 59.2974C86.4783 59.0485 84.3931 58.0348 84.3931 58.0348L88.7222 58.9728C88.7222 58.9728 88.9748 58.7924 88.8665 58.612C88.7583 58.4316 84.8982 56.9561 84.8982 56.9561L89.2273 57.1726C89.2273 57.1726 89.552 56.7757 89.3355 56.6314C89.1191 56.4871 84.6853 55.477 84.6853 55.477C84.6853 55.477 89.4005 55.0801 89.4366 54.8998C89.4726 54.7194 89.6169 54.5065 89.3283 54.4705C89.0397 54.4344 83.1377 53.8572 83.1377 53.8572C83.1377 53.8572 84.6853 52.8867 84.8657 52.5981C85.0461 52.3095 85.2986 51.7323 85.01 51.7323C84.7214 51.7323 84.6492 51.9127 84.256 52.1652C83.8628 52.4177 82.3115 53.031 81.8786 53.3882C81.4457 53.7453 80.1505 54.6869 80.1505 54.6869L62.8051 54.723L52.0364 46.2271" stroke="#9A95B2" stroke-linecap="round" stroke-linejoin="round"/>
<path d="M89.3212 54.4701C89.0362 54.434 83.1305 53.8568 83.1305 53.8568C83.1305 53.8568 84.6782 52.8864 84.8586 52.5978C85.039 52.3092 85.2915 51.7319 85.0029 51.7319C84.7143 51.7319 84.6421 51.9123 84.2489 52.1648C83.8557 52.4174 82.3044 53.0307 81.8715 53.3878C81.4386 53.745 80.1434 54.6866 80.1434 54.6866L62.798 54.7226L60.8752 53.1966C60.1536 54.4629 58.8044 56.8367 57.9277 58.4024C59.277 59.1528 60.2979 59.712 60.5036 59.795C61.1169 60.0475 80.0821 56.9522 80.0821 56.9522C80.0821 56.9522 81.1644 57.4572 81.8462 57.8865C82.5281 58.3158 86.85 59.6903 86.85 59.6903C86.85 59.6903 87.1386 59.546 86.8139 59.2971C86.4892 59.0482 84.404 58.0344 84.404 58.0344L88.7332 58.9724C88.7332 58.9724 88.9857 58.792 88.8775 58.6117C88.7692 58.4313 84.9091 56.9558 84.9091 56.9558L89.2382 57.1722C89.2382 57.1722 89.5629 56.7754 89.3465 56.6311C89.13 56.4868 84.6854 55.4766 84.6854 55.4766C84.6854 55.4766 89.4006 55.0798 89.4366 54.8994C89.4727 54.719 89.6098 54.5062 89.3212 54.4701Z" fill="white" stroke="#9A95B2" stroke-linecap="round" stroke-linejoin="round"/>
<path d="M60.2762 32.5146C60.3377 32.4399 60.4189 32.3841 60.5106 32.3534C60.6023 32.3227 60.7008 32.3183 60.7948 32.3409C60.8888 32.3635 60.9746 32.412 61.0424 32.481C61.1102 32.55 61.1572 32.6366 61.1781 32.731C61.2383 33.1224 61.2182 33.5219 61.119 33.9052C61.0198 34.2885 60.8435 34.6476 60.6009 34.9605C60.204 35.3574 59.8433 35.4656 59.8433 34.9605C59.9435 34.138 60.088 33.3215 60.2762 32.5146Z" fill="white" stroke="#9A95B2" stroke-linecap="round" stroke-linejoin="round"/>
<path d="M55.8466 26.208C55.7201 27.9637 54.9689 29.616 53.729 30.8654C52.5738 32.0013 51.2676 32.9725 49.8472 33.7515C49.8472 33.7515 50.0564 34.8807 50.4821 35.2343C50.9078 35.5878 51.752 35.5193 51.752 35.5193C52.2428 36.8611 53.0409 38.0695 54.0825 39.0475C55.7745 40.5988 57.7515 40.4581 58.8806 38.1312C60.0098 35.8043 60.5762 33.4701 60.4355 32.1281L60.2948 30.7861C60.2948 30.7861 56.6223 28.7478 55.8466 26.208Z" fill="white" stroke="#9A95B2" stroke-linecap="round" stroke-linejoin="round"/>
<path d="M55.6338 33.1854C55.8131 33.1854 55.9585 32.927 55.9585 32.6082C55.9585 32.2894 55.8131 32.031 55.6338 32.031C55.4544 32.031 55.3091 32.2894 55.3091 32.6082C55.3091 32.927 55.4544 33.1854 55.6338 33.1854Z" fill="#9A95B2"/>
<path d="M57.3974 37.7924C57.5768 37.7924 57.7221 37.5339 57.7221 37.2152C57.7221 36.8964 57.5768 36.6379 57.3974 36.6379C57.2181 36.6379 57.0728 36.8964 57.0728 37.2152C57.0728 37.5339 57.2181 37.7924 57.3974 37.7924Z" fill="#9A95B2"/>
<path d="M58.7651 33.1854C58.9444 33.1854 59.0898 32.927 59.0898 32.6082C59.0898 32.2894 58.9444 32.031 58.7651 32.031C58.5858 32.031 58.4404 32.2894 58.4404 32.6082C58.4404 32.927 58.5858 33.1854 58.7651 33.1854Z" fill="#9A95B2"/>
<path d="M58.1152 31.9949C57.9912 32.427 57.9544 32.8796 58.0069 33.3261C58.1152 33.9394 58.6202 34.982 58.1873 35.1623C57.9898 35.2525 57.7713 35.2867 57.5557 35.2612C57.34 35.2358 57.1355 35.1517 56.9644 35.018" stroke="#9A95B2" stroke-linecap="round" stroke-linejoin="round"/>
<path d="M54.6958 31.5656C54.6958 31.5656 54.869 30.4617 56.3156 30.5879" stroke="#9A95B2" stroke-linecap="round" stroke-linejoin="round"/>
<path d="M58.5698 30.927C58.5698 30.927 59.9191 29.8447 60.3556 31.8253" stroke="#9A95B2" stroke-linecap="round" stroke-linejoin="round"/>
</svg>
