<svg width="500" height="500" viewBox="0 0 500 500" fill="none" xmlns="http://www.w3.org/2000/svg">
<path d="M81.91 305.64C81.91 305.64 106.91 362.64 170.12 381.28C233.33 399.92 300.83 375.08 355.99 356.41C411.15 337.74 440.16 290 427.87 241.05C415.58 192.1 369.11 195.62 325.77 152.15C282.43 108.68 277.49 90.54 217.43 77.7C157.37 64.86 91.63 115.41 75.19 187C58.75 258.59 81.91 305.64 81.91 305.64Z" fill="#D5D8DA"/>
<path opacity="0.8" d="M81.91 305.64C81.91 305.64 106.91 362.64 170.12 381.28C233.33 399.92 300.83 375.08 355.99 356.41C411.15 337.74 440.16 290 427.87 241.05C415.58 192.1 369.11 195.62 325.77 152.15C282.43 108.68 277.49 90.54 217.43 77.7C157.37 64.86 91.63 115.41 75.19 187C58.75 258.59 81.91 305.64 81.91 305.64Z" fill="white"/>
<path d="M403 228.6C403 228.6 425.92 230.87 437.53 245.08C437.53 245.08 449.81 228.62 471.85 228.96C477.236 222.462 480.666 214.568 481.739 206.197C482.813 197.825 481.487 189.321 477.915 181.674C474.343 174.027 468.672 167.553 461.563 163.004C454.453 158.455 446.198 156.019 437.758 155.98C429.319 155.941 421.041 158.3 413.89 162.782C406.739 167.265 401.008 173.687 397.365 181.3C393.722 188.913 392.317 197.405 393.313 205.786C394.308 214.167 397.664 222.092 402.99 228.64L403 228.6Z" fill="#D5D8DA"/>
<path opacity="0.5" d="M403 228.6C403 228.6 425.92 230.87 437.53 245.08C437.53 245.08 449.81 228.62 471.85 228.96C477.236 222.462 480.666 214.568 481.739 206.197C482.813 197.825 481.487 189.321 477.915 181.674C474.343 174.027 468.672 167.553 461.563 163.004C454.453 158.455 446.198 156.019 437.758 155.98C429.319 155.941 421.041 158.3 413.89 162.782C406.739 167.265 401.008 173.687 397.365 181.3C393.722 188.913 392.317 197.405 393.313 205.786C394.308 214.167 397.664 222.092 402.99 228.64L403 228.6Z" fill="white"/>
<path d="M436.76 159.12L435.99 307.66H439.86L436.76 159.12Z" fill="#B1B7BB"/>
<path d="M437.93 240.75C437.93 240.75 445.66 226.82 459.59 222.56C459.59 222.56 444.89 226.05 437.59 238.04L437.93 240.75Z" fill="#B1B7BB"/>
<path d="M437.93 201.29C437.93 201.29 445.66 187.36 459.59 183.1C459.59 183.1 444.89 186.58 437.59 198.58L437.93 201.29Z" fill="#B1B7BB"/>
<path d="M437.93 221C437.93 221 445.66 207.07 459.59 202.81C459.59 202.81 444.89 206.3 437.59 218.29L437.93 221Z" fill="#B1B7BB"/>
<path d="M436.78 211.34C436.78 211.34 429.31 197.42 415.87 193.16C415.87 193.16 430.06 196.64 437.15 208.64L436.78 211.34Z" fill="#B1B7BB"/>
<path d="M436.78 230.69C436.78 230.69 429.31 216.76 415.87 212.51C415.87 212.51 430.06 215.99 437.15 227.98L436.78 230.69Z" fill="#B1B7BB"/>
<path d="M27.87 228.6C27.87 228.6 50.79 230.87 62.4 245.08C62.4 245.08 74.68 228.62 96.72 228.96C102.106 222.462 105.536 214.568 106.609 206.197C107.683 197.825 106.357 189.321 102.785 181.674C99.2125 174.027 93.5418 167.553 86.4326 163.004C79.3234 158.455 71.0683 156.019 62.6284 155.98C54.1885 155.941 45.9111 158.3 38.76 162.782C31.6088 167.265 25.8781 173.687 22.2351 181.3C18.5921 188.913 17.1867 197.405 18.1826 205.786C19.1784 214.167 22.5344 222.092 27.86 228.64L27.87 228.6Z" fill="#D5D8DA"/>
<path opacity="0.5" d="M27.87 228.6C27.87 228.6 50.79 230.87 62.4 245.08C62.4 245.08 74.68 228.62 96.72 228.96C102.106 222.462 105.536 214.568 106.609 206.197C107.683 197.825 106.357 189.321 102.785 181.674C99.2125 174.027 93.5418 167.553 86.4326 163.004C79.3234 158.455 71.0683 156.019 62.6284 155.98C54.1885 155.941 45.9111 158.3 38.76 162.782C31.6088 167.265 25.8781 173.687 22.2351 181.3C18.5921 188.913 17.1867 197.405 18.1826 205.786C19.1784 214.167 22.5344 222.092 27.86 228.64L27.87 228.6Z" fill="white"/>
<path d="M61.65 159.12L60.87 307.66H64.74L61.65 159.12Z" fill="#B1B7BB"/>
<path d="M62.81 240.75C62.81 240.75 70.54 226.82 84.47 222.56C84.47 222.56 69.77 226.05 62.47 238.04L62.81 240.75Z" fill="#B1B7BB"/>
<path d="M62.81 201.29C62.81 201.29 70.54 187.36 84.47 183.1C84.47 183.1 69.77 186.58 62.47 198.58L62.81 201.29Z" fill="#B1B7BB"/>
<path d="M62.81 221C62.81 221 70.54 207.07 84.47 202.81C84.47 202.81 69.77 206.3 62.47 218.29L62.81 221Z" fill="#B1B7BB"/>
<path d="M61.66 211.34C61.66 211.34 54.19 197.42 40.75 193.16C40.75 193.16 54.94 196.64 62.03 208.64L61.66 211.34Z" fill="#B1B7BB"/>
<path d="M61.66 230.69C61.66 230.69 54.19 216.76 40.75 212.51C40.75 212.51 54.94 215.99 62.03 227.98L61.66 230.69Z" fill="#B1B7BB"/>
<path d="M309.87 243C309.87 243 328.63 244.85 338.13 256.48C338.13 256.48 348.18 243.01 366.22 243.28C370.626 237.961 373.431 231.5 374.308 224.649C375.184 217.797 374.097 210.838 371.172 204.581C368.247 198.324 363.605 193.026 357.786 189.305C351.967 185.584 345.211 183.592 338.304 183.561C331.397 183.53 324.624 185.462 318.772 189.132C312.921 192.801 308.232 198.058 305.251 204.289C302.271 210.52 301.122 217.469 301.938 224.328C302.754 231.186 305.501 237.672 309.86 243.03L309.87 243Z" fill="#D5D8DA"/>
<path opacity="0.5" d="M309.87 243C309.87 243 328.63 244.85 338.13 256.48C338.13 256.48 348.18 243.01 366.22 243.28C370.626 237.961 373.431 231.5 374.308 224.649C375.184 217.797 374.097 210.838 371.172 204.581C368.247 198.324 363.605 193.026 357.786 189.305C351.967 185.584 345.211 183.592 338.304 183.561C331.397 183.53 324.624 185.462 318.772 189.132C312.921 192.801 308.232 198.058 305.251 204.289C302.271 210.52 301.122 217.469 301.938 224.328C302.754 231.186 305.501 237.672 309.86 243.03L309.87 243Z" fill="white"/>
<path d="M337.51 186.08L336.88 307.66H340.05L337.51 186.08Z" fill="#B1B7BB"/>
<path d="M338.46 252.9C338.46 252.9 344.8 241.5 356.19 238.01C356.19 238.01 344.19 240.86 338.19 250.68L338.46 252.9Z" fill="#B1B7BB"/>
<path d="M338.46 220.6C338.46 220.6 344.8 209.2 356.19 205.72C356.19 205.72 344.19 208.57 338.19 218.38L338.46 220.6Z" fill="#B1B7BB"/>
<path d="M338.46 236.75C338.46 236.75 344.8 225.35 356.19 221.86C356.19 221.86 344.19 224.71 338.19 234.53L338.46 236.75Z" fill="#B1B7BB"/>
<path d="M337.52 228.83C337.52 228.83 331.41 217.43 320.41 213.95C320.41 213.95 332.02 216.8 337.83 226.61L337.52 228.83Z" fill="#B1B7BB"/>
<path d="M337.52 244.66C337.52 244.66 331.41 233.26 320.41 229.78C320.41 229.78 332.02 232.63 337.83 242.45L337.52 244.66Z" fill="#B1B7BB"/>
<path d="M128.36 243C128.36 243 147.12 244.85 156.62 256.48C156.62 256.48 166.62 243.01 184.71 243.28C189.116 237.961 191.921 231.5 192.798 224.649C193.674 217.797 192.587 210.838 189.662 204.581C186.737 198.324 182.095 193.026 176.276 189.305C170.457 185.584 163.701 183.592 156.794 183.561C149.887 183.53 143.114 185.462 137.262 189.132C131.411 192.801 126.722 198.058 123.741 204.289C120.761 210.52 119.612 217.469 120.428 224.328C121.244 231.186 123.991 237.672 128.35 243.03L128.36 243Z" fill="#D5D8DA"/>
<path opacity="0.5" d="M128.36 243C128.36 243 147.12 244.85 156.62 256.48C156.62 256.48 166.62 243.01 184.71 243.28C189.116 237.961 191.921 231.5 192.798 224.649C193.674 217.797 192.587 210.838 189.662 204.581C186.737 198.324 182.095 193.026 176.276 189.305C170.457 185.584 163.701 183.592 156.794 183.561C149.887 183.53 143.114 185.462 137.262 189.132C131.411 192.801 126.722 198.058 123.741 204.289C120.761 210.52 119.612 217.469 120.428 224.328C121.244 231.186 123.991 237.672 128.35 243.03L128.36 243Z" fill="white"/>
<path d="M156 186.08L155.37 307.66H158.54L156 186.08Z" fill="#B1B7BB"/>
<path d="M157 252.9C157 252.9 163.34 241.5 174.73 238.01C174.73 238.01 162.73 240.86 156.73 250.68L157 252.9Z" fill="#B1B7BB"/>
<path d="M157 220.6C157 220.6 163.34 209.2 174.73 205.72C174.73 205.72 162.73 208.57 156.73 218.38L157 220.6Z" fill="#B1B7BB"/>
<path d="M157 236.75C157 236.75 163.34 225.35 174.73 221.86C174.73 221.86 162.73 224.71 156.73 234.53L157 236.75Z" fill="#B1B7BB"/>
<path d="M156 228.83C156 228.83 149.9 217.43 138.9 214C138.9 214 150.51 216.85 156.32 226.66L156 228.83Z" fill="#B1B7BB"/>
<path d="M156 244.66C156 244.66 149.89 233.26 138.89 229.78C138.89 229.78 150.5 232.63 156.31 242.45L156 244.66Z" fill="#B1B7BB"/>
<path d="M34.77 308.19H466.31" stroke="#8E969B" stroke-width="1.04742" stroke-miterlimit="10"/>
<path d="M188.51 120.72C188.51 112.99 192.59 108.57 200.04 108.57C207.49 108.57 211.58 112.99 211.58 120.72V145.86C211.58 153.59 207.5 158.01 200.04 158.01C192.58 158.01 188.51 153.59 188.51 145.86V120.72ZM196.11 146.34C196.11 149.79 197.63 151.1 200.04 151.1C202.45 151.1 203.98 149.79 203.98 146.34V120.24C203.98 116.79 202.46 115.48 200.04 115.48C197.62 115.48 196.11 116.79 196.11 120.24V146.34Z" fill="#8E969B"/>
<path d="M217.31 120.72C217.31 112.99 221.38 108.57 228.84 108.57C236.3 108.57 240.37 112.99 240.37 120.72V145.86C240.37 153.59 236.29 158.01 228.84 158.01C221.39 158.01 217.31 153.59 217.31 145.86V120.72ZM224.9 146.34C224.9 149.79 226.42 151.1 228.84 151.1C231.26 151.1 232.77 149.79 232.77 146.34V120.24C232.77 116.79 231.25 115.48 228.84 115.48C226.43 115.48 224.9 116.79 224.9 120.24V146.34Z" fill="#8E969B"/>
<path d="M269.23 121.07V127.35C269.23 135.09 265.5 139.35 257.91 139.35H254.32V157.51H246.72V109.13H257.91C265.5 109.13 269.23 113.34 269.23 121.07ZM254.32 116.07V132.43H257.91C260.32 132.43 261.63 131.33 261.63 127.88V120.63C261.63 117.17 260.32 116.07 257.91 116.07H254.32Z" fill="#8E969B"/>
<path d="M284.77 108.57C292.15 108.57 295.95 112.99 295.95 120.72V122.24H288.77V120.24C288.77 116.79 287.39 115.48 284.97 115.48C282.55 115.48 281.17 116.79 281.17 120.24C281.17 130.18 296.02 132.05 296.02 145.86C296.02 153.59 292.15 158.01 284.7 158.01C277.25 158.01 273.37 153.59 273.37 145.86V142.86H280.55V146.31C280.55 149.76 282.07 151.01 284.49 151.01C286.91 151.01 288.42 149.76 288.42 146.31C288.42 136.37 273.58 134.5 273.58 120.69C273.58 113 277.38 108.57 284.77 108.57Z" fill="#8E969B"/>
<path d="M302.79 146.75L301.79 129.29V109.13H309.39V129.29L308.39 146.75H302.79ZM309.28 150.14V157.46H302V150.14H309.28Z" fill="#8E969B"/>
<path d="M172.12 412.17C175.68 412.17 177.2 414.28 177.2 417.71V420.43C177.2 424.02 175.52 425.9 171.93 425.9H169.69V434.83H167.17V412.17H172.12ZM171.93 423.63C173.8 423.63 174.71 422.76 174.71 420.63V417.63C174.71 415.56 173.96 414.52 172.12 414.52H169.69V423.68L171.93 423.63Z" fill="#8E969B"/>
<path d="M182.06 430.26L181.18 434.83H178.85L183.19 412.17H186.85L191.19 434.83H188.66L187.79 430.26H182.06ZM182.38 428.1H187.43L184.87 415L182.38 428.1Z" fill="#8E969B"/>
<path d="M203.81 417.64V419.58H201.41V417.51C201.41 415.51 200.6 414.25 198.76 414.25C196.92 414.25 196.11 415.47 196.11 417.51V429.51C196.11 431.51 196.95 432.78 198.76 432.78C200.57 432.78 201.41 431.55 201.41 429.51V425H199.08V422.73H203.81V429.4C203.81 432.83 202.19 435.09 198.7 435.09C195.21 435.09 193.61 432.83 193.61 429.4V417.64C193.61 414.21 195.23 411.95 198.7 411.95C202.17 411.95 203.81 414.21 203.81 417.64Z" fill="#8E969B"/>
<path d="M214.91 422.21V424.47H209.38V432.53H216.17V434.83H206.85V412.17H216.17V414.47H209.38V422.21H214.91Z" fill="#8E969B"/>
<path d="M227.05 434.83H224.79V412.17H228L233.24 428.55V412.17H235.48V434.83H232.85L227.06 416.51L227.05 434.83Z" fill="#8E969B"/>
<path d="M238.51 417.64C238.51 414.18 240.22 411.95 243.69 411.95C247.16 411.95 248.9 414.18 248.9 417.64V429.36C248.9 432.79 247.18 435.05 243.69 435.05C240.2 435.05 238.51 432.79 238.51 429.36V417.64ZM241 429.49C241 431.56 241.88 432.76 243.69 432.76C245.5 432.76 246.37 431.56 246.37 429.49V417.49C246.37 415.49 245.53 414.23 243.69 414.23C241.85 414.23 241 415.45 241 417.49V429.49Z" fill="#8E969B"/>
<path d="M255.24 434.83V414.47H251.07V412.17H261.94V414.47H257.77V434.83H255.24Z" fill="#8E969B"/>
<path d="M277.74 422.72V425H272.53V434.81H270V412.17H279V414.47H272.53V422.72H277.74Z" fill="#8E969B"/>
<path d="M281.46 417.64C281.46 414.18 283.18 411.95 286.64 411.95C290.1 411.95 291.85 414.18 291.85 417.64V429.36C291.85 432.79 290.14 435.05 286.64 435.05C283.14 435.05 281.46 432.79 281.46 429.36V417.64ZM283.96 429.49C283.96 431.56 284.83 432.76 286.64 432.76C288.45 432.76 289.33 431.56 289.33 429.49V417.49C289.33 415.49 288.49 414.23 286.64 414.23C284.79 414.23 283.96 415.45 283.96 417.49V429.49Z" fill="#8E969B"/>
<path d="M297.29 429.49C297.29 431.49 298.1 432.76 299.94 432.76C301.78 432.76 302.57 431.53 302.57 429.49V412.17H304.93V429.36C304.93 432.79 303.34 435.09 299.85 435.09C296.36 435.09 294.8 432.79 294.8 429.36V412.17H297.29V429.49Z" fill="#8E969B"/>
<path d="M310.3 434.83H308V412.17H311.2L316.44 428.55V412.17H318.68V434.83H316.1L310.3 416.51V434.83Z" fill="#8E969B"/>
<path d="M327.26 412.17C330.79 412.17 332.41 414.31 332.41 417.8V429.23C332.41 432.69 330.79 434.83 327.26 434.83H322V412.17H327.26ZM327.26 432.53C329.07 432.53 329.95 431.4 329.95 429.33V417.67C329.95 415.6 329.07 414.47 327.23 414.47H324.51V432.53H327.26Z" fill="#8E969B"/>
<path opacity="0.3" d="M152.59 356.45C152.59 359.45 134.16 361.84 111.41 361.84C88.66 361.84 70.23 359.43 70.23 356.45C70.23 353.47 88.67 351.06 111.41 351.06C134.15 351.06 152.59 353.48 152.59 356.45Z" fill="#8E969B"/>
<path opacity="0.3" d="M238.8 356.45C238.8 359.45 220.36 361.84 197.62 361.84C174.88 361.84 156.44 359.43 156.44 356.45C156.44 353.47 174.88 351.06 197.62 351.06C220.36 351.06 238.8 353.48 238.8 356.45Z" fill="#8E969B"/>
<path opacity="0.3" d="M353 356.45C353 359.45 334.57 361.84 311.83 361.84C289.09 361.84 270.65 359.43 270.65 356.45C270.65 353.47 289.08 351.06 311.83 351.06C334.58 351.06 353 353.48 353 356.45Z" fill="#8E969B"/>
<path opacity="0.3" d="M448.4 356.45C448.4 359.45 429.96 361.84 407.22 361.84C384.48 361.84 366 359.43 366 356.45C366 353.47 384.44 351.06 407.18 351.06C429.92 351.06 448.4 353.48 448.4 356.45Z" fill="#8E969B"/>
<path d="M316.28 198.77C316.28 198.77 314.59 205.77 314.59 206.95C314.589 207.68 314.508 208.408 314.35 209.12C314.35 209.12 310.74 213.45 311.22 214.65C311.803 215.583 312.639 216.332 313.63 216.81C313.63 216.81 315.55 223.81 317.48 224.27C319.462 224.64 321.466 224.881 323.48 224.99L324.2 230.76L333.82 229.32L331.42 220.66L332.42 213.2C332.42 213.2 334.1 210.08 332.42 205.03C330.74 199.98 327.13 199.74 324.72 199.74C321.892 199.561 319.075 199.237 316.28 198.77V198.77Z" fill="white" stroke="#8E969B" stroke-width="1.04742" stroke-linecap="round" stroke-linejoin="round"/>
<path d="M320.61 195.17C320.61 195.17 312.19 194.92 312.43 197.09C312.67 199.26 321.33 202.09 321.33 202.09C321.33 202.09 318.44 204.01 319.88 205.94C321.32 207.87 324.69 209.55 324.69 209.55C324.69 209.55 323.69 213.64 325.18 213.88C326.67 214.12 327.58 211.95 327.82 211.23C328.06 210.51 330.71 210.75 331.43 212.67C331.837 213.668 332.08 214.725 332.15 215.8C332.15 215.8 335.04 207.14 335.52 203.29C336 199.44 325.18 195.17 320.61 195.17Z" fill="#8E969B" stroke="#8E969B" stroke-width="1.04742" stroke-linecap="round" stroke-linejoin="round"/>
<path d="M325.94 214C325.94 214 328.85 207.6 330.59 210.75C332.33 213.9 331.59 217.18 329.88 217.53C328.17 217.88 326.74 218.22 326.74 218.22" fill="white"/>
<path d="M325.94 214C325.94 214 328.85 207.6 330.59 210.75C332.33 213.9 331.59 217.18 329.88 217.53C328.17 217.88 326.74 218.22 326.74 218.22" stroke="#8E969B" stroke-width="1.04742" stroke-linecap="round" stroke-linejoin="round"/>
<path d="M314.11 280.79C313.64 281.34 305.93 297.87 304.97 303.4C304.01 308.93 297.76 341.89 297.51 343.33C297.26 344.77 284.05 347.66 283.08 347.9C282.11 348.14 284.08 350.79 286.93 351.51C289.78 352.23 298 355.6 299.93 353.67C301.86 351.74 304.5 340.92 305.22 339.72C305.94 338.52 319.48 306.62 319.48 306.62C319.48 306.62 326.42 291.31 327.86 289.86C329.3 288.41 326.15 282 324.94 280.07C323.73 278.14 317.48 276.94 314.11 280.79Z" fill="#8E969B" stroke="#8E969B" stroke-width="1.04742" stroke-linecap="round" stroke-linejoin="round"/>
<path d="M312.67 281C312.67 281 316.04 297.12 317.72 302.89C319.292 307.736 321.658 312.288 324.72 316.36C326.65 319.01 336.03 342.36 336.03 342.36L337.47 345.97C337.47 345.97 336.99 347.41 334.35 349.33C331.71 351.25 324.24 354.38 326.17 355.11C328.1 355.84 335.79 355.83 339.4 355.59C342.508 355.37 345.422 353.997 347.57 351.74C349.02 350.05 345.17 345.24 345.17 344.28C345.17 343.32 336.75 313.98 336.27 312.53C335.79 311.08 333.38 300.75 333.38 300.75V289C333.38 289 334.59 286.84 334.59 282C334.59 277.16 330.98 276.22 330.98 276.22L311.25 278.15L312.67 281Z" fill="#8E969B" stroke="#8E969B" stroke-width="1.04742" stroke-linecap="round" stroke-linejoin="round"/>
<path d="M311 279.59C311 279.59 311.49 283.68 312.93 283.92C314.37 284.16 329.28 288.25 335.78 283.44C335.78 283.44 336.98 279.83 336.26 278.87C335.54 277.91 333.85 278.39 325.2 278.39C316.55 278.39 311 278.39 311 279.59Z" fill="#D5D8DA" stroke="#8E969B" stroke-width="1.04742" stroke-linecap="round" stroke-linejoin="round"/>
<path d="M333.11 225.71C333.11 225.71 324.21 226.91 320.36 230.71C316.51 234.51 313.15 241.54 311.47 248.03C309.79 254.52 308.58 278.34 310.98 279.54C313.38 280.74 333.59 281.95 336.98 280.54C340.37 279.13 336.74 267.79 336.74 263.46C336.74 259.13 340.59 244.46 339.87 236.29C339.15 228.12 333.11 225.71 333.11 225.71Z" fill="#D5D8DA" stroke="#8E969B" stroke-width="1.04742" stroke-linecap="round" stroke-linejoin="round"/>
<path d="M301 250.71C300.89 240.81 296.85 232.36 291.48 228.71V226.71L276.68 226.86C268.35 226.95 261.68 237.86 261.85 251.16C262.02 264.46 268.85 275.23 277.19 275.16L291.99 275.01V273.01C297.19 269.14 301.05 260.61 301 250.71Z" fill="#8E969B" stroke="#8E969B" stroke-width="1.04742" stroke-linecap="round" stroke-linejoin="round"/>
<path d="M307.64 250.64C307.53 240.24 303.52 231.36 297.88 227.5V225.37L291.54 225.44C282.78 225.53 275.81 236.96 275.96 250.97C276.11 264.98 283.32 276.26 292.08 276.17L298.42 276.1V273.98C303.93 270 307.75 261 307.64 250.64Z" fill="white" stroke="#8E969B" stroke-width="1.04742" stroke-linecap="round" stroke-linejoin="round"/>
<path d="M314 250.57C314.15 264.57 307.17 276.01 298.42 276.1C289.67 276.19 282.42 264.91 282.3 250.91C282.18 236.91 289.13 225.47 297.88 225.37C306.63 225.27 313.83 236.56 314 250.57Z" fill="#8E969B" stroke="#8E969B" stroke-width="1.04742" stroke-linecap="round" stroke-linejoin="round"/>
<path d="M310.36 250.14C310.43 256.77 307.12 262.19 302.97 262.24C298.82 262.29 295.4 256.93 295.33 250.24C295.26 243.55 298.57 238.24 302.72 238.14C306.87 238.04 310.29 243.5 310.36 250.14Z" fill="#8E969B" stroke="#8E969B" stroke-width="1.04742" stroke-linecap="round" stroke-linejoin="round"/>
<path d="M428.2 300C429.026 293.836 429.377 287.618 429.25 281.4C426 282.9 407.04 283.45 405.3 283.49C403.56 283.53 384.6 282.9 381.35 281.4C381.207 287.616 381.541 293.835 382.35 300C383.66 308.11 395.18 340.58 395.44 342.15C395.777 343.664 396.215 345.154 396.75 346.61C396.75 346.61 390.2 351.32 387.32 353.15C384.44 354.98 386.54 355.77 389.42 355.77C392.3 355.77 398.32 354.98 400.15 354.98C401.77 354.98 404.59 353.57 405.25 353.23C405.91 353.57 408.73 354.98 410.34 354.98C412.18 354.98 418.2 355.77 421.08 355.77C423.96 355.77 426.08 354.98 423.18 353.15C420.28 351.32 413.75 346.61 413.75 346.61C414.285 345.154 414.723 343.664 415.06 342.15C415.37 340.55 426.89 308.08 428.2 300Z" fill="#8E969B" stroke="#8E969B" stroke-width="1.04742" stroke-linecap="round" stroke-linejoin="round"/>
<path d="M401.34 230.49C401.34 230.49 391.21 233.8 385.98 237.12C380.75 240.44 375.5 258.42 375.5 259.12C375.199 260.373 374.791 261.597 374.28 262.78C374.28 262.78 369.04 261.56 368 265.92C366.96 270.28 373.23 275.87 376.55 276.05C379.87 276.23 380.91 275.18 380.91 275.18C380.91 275.18 378.82 279.37 379.69 281.11C380.56 282.85 387.9 289.32 402.39 289.11C416.88 288.9 427.39 286.49 428.92 284.4C430.45 282.31 430.67 277.94 430.67 277.94C430.67 277.94 436.08 276.54 438 273.05C439.92 269.56 439.57 265.89 438.52 262.23C437.47 258.57 432.06 247.94 428.4 242C424.74 236.06 417.05 232.75 413.4 231.7C409.75 230.65 403.78 230.49 401.34 230.49Z" fill="#D5D8DA" stroke="#8E969B" stroke-width="1.04742" stroke-linecap="round" stroke-linejoin="round"/>
<path d="M404.41 245.19C405.86 244.71 410.41 240.67 412.16 236.63C412.852 235.083 413.34 233.453 413.61 231.78L413.38 231.71C409.72 230.66 403.78 230.49 401.38 230.49C401.38 230.49 399.26 231.18 396.46 232.25C396.477 234.412 396.884 236.553 397.66 238.57C399.24 242.61 403 245.68 404.41 245.19Z" fill="white" stroke="#8E969B" stroke-width="1.04742" stroke-linecap="round" stroke-linejoin="round"/>
<path d="M421.06 253.35C421.06 253.35 425.25 275.7 430 278" stroke="#8E969B" stroke-width="1.04742" stroke-linecap="round" stroke-linejoin="round"/>
<path d="M380.91 275.18C380.91 275.18 386.15 255.45 386.5 253.53" stroke="#8E969B" stroke-width="1.04742" stroke-linecap="round" stroke-linejoin="round"/>
<path d="M427.83 263.45C427.83 263.45 424.93 264.1 424.93 266.2" stroke="#8E969B" stroke-width="1.04742" stroke-linecap="round" stroke-linejoin="round"/>
<path d="M378.56 263.77C378.56 263.77 381.79 265.87 381.47 269.1" stroke="#8E969B" stroke-width="1.04742" stroke-linecap="round" stroke-linejoin="round"/>
<path d="M400.2 355C401.82 355 404.64 353.59 405.3 353.25C405.96 353.59 408.78 355 410.39 355C412.23 355 418.25 355.79 421.13 355.79C424.01 355.79 426.13 355 423.23 353.17C420.72 351.58 415.46 347.82 414.12 346.86C411.03 349.68 404.92 348.98 404.92 348.98C403.682 348.793 402.457 348.533 401.25 348.2C399.42 347.67 396.8 346.63 396.8 346.63C396.8 346.63 390.25 351.34 387.37 353.17C384.49 355 386.59 355.79 389.47 355.79C392.35 355.79 398.37 355 400.2 355Z" fill="#D5D8DA" stroke="#8E969B" stroke-width="1.04742" stroke-linecap="round" stroke-linejoin="round"/>
<path d="M404.92 346.67V301.01" stroke="white" stroke-width="1.04742" stroke-linecap="round" stroke-linejoin="round"/>
<path d="M405.3 353.2L404.92 348.93V346.67" stroke="#8E969B" stroke-width="1.04742" stroke-linecap="round" stroke-linejoin="round"/>
<path d="M401.25 299.44H408.84" stroke="white" stroke-width="1.04742" stroke-linecap="round" stroke-linejoin="round"/>
<path d="M391.33 204.29C391.33 204.29 385.89 207.55 386.7 210.41C387.51 213.27 389.97 213.82 389.43 215.41C388.89 217 387 218 389.15 219C390.375 219.548 391.656 219.961 392.97 220.23C392.97 220.23 394.97 227.17 398.41 228.39C401.85 229.61 407.81 228.8 412.03 228.26C413.456 228.121 414.805 227.55 415.898 226.625C416.991 225.699 417.777 224.463 418.15 223.08C418.56 221.59 416.38 223.36 415.29 221.72C414.2 220.08 415.84 215.87 417.06 212.19C418.28 208.51 414.61 201.57 409.85 199.26C405.09 196.95 396 198.16 391.33 204.29Z" fill="#8E969B" stroke="#8E969B" stroke-width="1.04742" stroke-linecap="round" stroke-linejoin="round"/>
<path d="M400.47 228C399.778 230.283 399.309 232.627 399.07 235C398.89 238 401.34 241.29 403.96 241.11C406.58 240.93 408.84 235.7 409.19 233.11C409.54 230.52 408.32 223.51 408.32 223.51C408.32 223.51 404.32 223.69 402.73 225.08C401.796 225.899 401.029 226.891 400.47 228V228Z" fill="white" stroke="#8E969B" stroke-width="1.04742" stroke-linecap="round" stroke-linejoin="round"/>
<path d="M396.92 208.1C396.92 208.1 397.05 212.18 401.14 216.1C403.599 218.478 406.514 220.332 409.71 221.55C409.639 222.444 409.408 223.317 409.03 224.13C408.852 224.47 408.575 224.747 408.236 224.926C407.896 225.105 407.511 225.176 407.13 225.13H405.76C405.76 225.13 403.76 229.82 401.34 230.5C398.92 231.18 392.97 230.71 392.15 224.72C391.33 218.73 391.2 213.83 391.88 212.6C392.56 211.37 396.92 208.1 396.92 208.1Z" fill="white" stroke="#8E969B" stroke-width="1.04742" stroke-linecap="round" stroke-linejoin="round"/>
<path d="M439.71 260.8C440.33 259.549 440.707 258.192 440.82 256.8C440.82 254.98 437.44 252.37 436.82 251.72C436.2 251.07 435.58 251.14 435.45 252.05C435.448 252.561 435.551 253.067 435.752 253.536C435.954 254.006 436.249 254.429 436.62 254.78C437.127 255.18 437.494 255.729 437.67 256.35C437.73 256.8 436.55 259.01 437.14 260.44C437.73 261.87 439.39 262.3 439.71 260.8Z" fill="white" stroke="#8E969B" stroke-width="1.04742" stroke-linecap="round" stroke-linejoin="round"/>
<path d="M304.28 250.59C304.28 250.59 319 255.3 327.85 266.3C336.7 277.3 342.51 275.72 353.51 272.06C364.51 268.4 368.7 255.3 383.89 266.3C399.08 277.3 402.22 281.48 414.79 275.2C427.36 268.92 434.16 253.73 445.69 258.96C457.22 264.19 451.97 290.96 453.02 303.96C454.07 316.96 452.49 349.53 455.11 353.72C457.73 357.91 484.44 354.72 484.44 354.72" stroke="#8E969B" stroke-width="3.14226" stroke-linecap="round" stroke-linejoin="round"/>
<path d="M331.85 233.11C331.85 233.11 328.92 228.33 324.6 229.58C320.03 230.9 317.67 237.43 316.6 241.5C315.53 245.57 314.81 249.97 312.85 253.76C312.85 253.76 304.19 253.61 299.36 252.21C295.675 251.061 292.05 249.726 288.5 248.21C288.5 248.21 286.79 245.82 285.58 245.35C284.37 244.88 281.23 243.96 281 244.68C280.77 245.4 284.64 247.77 284.64 247.77C284.64 247.77 277.44 248.77 276.72 249.54C276 250.31 281.81 252.61 281.81 252.61C281.81 252.61 283.98 253.31 289.26 252.05C289.26 252.05 308.63 264.35 312.49 265.76C316.35 267.17 318.49 267.62 321.12 262.54C323.75 257.46 332.48 244.86 333.87 239.79" fill="#D5D8DA"/>
<path d="M331.85 233.11C331.85 233.11 328.92 228.33 324.6 229.58C320.03 230.9 317.67 237.43 316.6 241.5C315.53 245.57 314.81 249.97 312.85 253.76C312.85 253.76 304.19 253.61 299.36 252.21C295.675 251.061 292.05 249.726 288.5 248.21C288.5 248.21 286.79 245.82 285.58 245.35C284.37 244.88 281.23 243.96 281 244.68C280.77 245.4 284.64 247.77 284.64 247.77C284.64 247.77 277.44 248.77 276.72 249.54C276 250.31 281.81 252.61 281.81 252.61C281.81 252.61 283.98 253.31 289.26 252.05C289.26 252.05 308.63 264.35 312.49 265.76C316.35 267.17 318.49 267.62 321.12 262.54C323.75 257.46 332.48 244.86 333.87 239.79" stroke="#8E969B" stroke-width="1.04742" stroke-linecap="round" stroke-linejoin="round"/>
<path d="M293.53 250.25C290.7 249.19 288.53 248.25 288.53 248.25C288.53 248.25 286.82 245.86 285.61 245.39C284.4 244.92 281.26 244 281.03 244.72C280.8 245.44 284.67 247.81 284.67 247.81C284.67 247.81 277.47 248.81 276.75 249.58C276.03 250.35 281.84 252.65 281.84 252.65C281.84 252.65 284.01 253.35 289.29 252.09L292 253.8L293.53 250.25Z" fill="white" stroke="#8E969B" stroke-width="1.04742" stroke-linecap="round" stroke-linejoin="round"/>
<path d="M368.19 262.64C367.569 261.389 367.193 260.032 367.08 258.64C367.08 256.82 370.47 254.22 371.08 253.57C371.69 252.92 372.31 252.99 372.44 253.9C372.442 254.411 372.339 254.917 372.138 255.386C371.936 255.856 371.641 256.279 371.27 256.63C370.763 257.03 370.396 257.579 370.22 258.2C370.16 258.64 371.34 260.86 370.75 262.29C370.16 263.72 368.51 264.13 368.19 262.64Z" fill="white" stroke="#8E969B" stroke-width="1.04742" stroke-linecap="round" stroke-linejoin="round"/>
<path d="M370.52 257.15C370.52 257.15 367.73 262.3 369.35 264.15C370.97 266 372.54 259.99 372.84 258.33C373.14 256.67 371.55 255 370.52 257.15Z" fill="white" stroke="#8E969B" stroke-width="1.04742" stroke-linecap="round" stroke-linejoin="round"/>
<path d="M372.82 259C372.82 259 370.03 264.15 371.65 266C373.27 267.85 374.84 261.84 375.14 260.18C375.44 258.52 373.85 256.79 372.82 259Z" fill="white" stroke="#8E969B" stroke-width="1.04742" stroke-linecap="round" stroke-linejoin="round"/>
<path d="M375.35 259.43C375.35 259.43 372.56 264.58 374.18 266.43C375.8 268.28 377.37 262.27 377.67 260.61C377.97 258.95 376.38 257.27 375.35 259.43Z" fill="white" stroke="#8E969B" stroke-width="1.04742" stroke-linecap="round" stroke-linejoin="round"/>
<path d="M378.59 259.47C378.59 259.47 375.99 263.47 377.41 264.98C378.83 266.49 380.36 261.74 380.66 260.37C380.96 259 379.55 257.67 378.59 259.47Z" fill="white" stroke="#8E969B" stroke-width="1.04742" stroke-linecap="round" stroke-linejoin="round"/>
<path d="M437.85 257.35C437.85 257.35 440.64 262.5 439.02 264.35C437.4 266.2 435.83 260.18 435.53 258.52C435.23 256.86 436.82 255.19 437.85 257.35Z" fill="white" stroke="#8E969B" stroke-width="1.04742" stroke-linecap="round" stroke-linejoin="round"/>
<path d="M435.55 259.15C435.55 259.15 438.34 264.3 436.72 266.15C435.1 268 433.53 261.98 433.23 260.32C432.93 258.66 434.52 257 435.55 259.15Z" fill="white" stroke="#8E969B" stroke-width="1.04742" stroke-linecap="round" stroke-linejoin="round"/>
<path d="M433 259.63C433 259.63 435.79 264.78 434.17 266.63C432.55 268.48 430.98 262.47 430.69 260.8C430.4 259.13 432 257.47 433 259.63Z" fill="white" stroke="#8E969B" stroke-width="1.04742" stroke-linecap="round" stroke-linejoin="round"/>
<path d="M429.78 259.67C429.78 259.67 432.38 263.72 430.96 265.18C429.54 266.64 428.01 261.94 427.72 260.57C427.43 259.2 428.82 257.87 429.78 259.67Z" fill="white" stroke="#8E969B" stroke-width="1.04742" stroke-linecap="round" stroke-linejoin="round"/>
<path d="M85.72 316.65V322.33C83.7489 324.484 82.3315 327.086 81.59 329.91C80.38 334.55 76.59 354.52 77.59 355.04C78.59 355.56 88 357.71 91 357.26C94.44 356.74 97.37 356.92 95.64 355.02C93.91 353.12 84.82 347.81 84.82 347.81C84.82 347.81 94.82 333.35 97.04 328.01C99.26 322.67 99.62 314.41 99.62 314.41L86.2 313.9L85.72 316.65Z" fill="white" stroke="#8E969B" stroke-width="1.04742" stroke-linecap="round" stroke-linejoin="round"/>
<path d="M91 357.26C94.44 356.74 97.37 356.92 95.64 355.02C93.91 353.12 84.82 347.81 84.82 347.81L84.48 349.87L77.93 349.07C77.45 352.41 77.24 354.86 77.59 355.07C78.66 355.55 88 357.71 91 357.26Z" fill="#8E969B" stroke="#8E969B" stroke-width="1.04742" stroke-linecap="round" stroke-linejoin="round"/>
<path d="M118.6 319.59L120.15 322.35C119.507 323.589 119.129 324.948 119.04 326.34C118.95 327.733 119.151 329.129 119.63 330.44C121.18 335.26 124.8 352.99 124.8 354.02C124.8 355.05 127.03 355.74 128.8 355.74C130.57 355.74 135.47 356.08 136.16 356.08C136.85 356.08 141.84 356.94 143.56 355.91C145.28 354.88 141.37 352.81 138.79 351.61C136.21 350.41 130.53 347.31 130.53 347.31C130.53 347.31 131.9 333.19 131.9 326.99C131.9 320.79 133.28 318.73 131.39 314.94C129.5 311.15 117.62 316.67 117.62 316.67L118.6 319.59Z" fill="white" stroke="#8E969B" stroke-width="1.04742" stroke-linecap="round" stroke-linejoin="round"/>
<path d="M138.74 351.61C136.16 350.4 130.48 347.31 130.48 347.31L129.79 349.89L124.26 350.89C124.59 352.61 124.8 353.79 124.8 354.03C124.8 355.03 127.03 355.75 128.8 355.75C130.57 355.75 135.47 356.09 136.16 356.09C136.85 356.09 141.84 356.95 143.56 355.92C145.28 354.89 141.32 352.81 138.74 351.61Z" fill="#8E969B" stroke="#8E969B" stroke-width="1.04742" stroke-linecap="round" stroke-linejoin="round"/>
<path d="M109.33 205C107.981 202.694 106.438 200.506 104.72 198.46C102.35 195.79 94.92 195.94 91.66 199.46C88.4 202.98 89.43 209.26 90.66 211.04C91.89 212.82 94.37 221.14 94.37 221.14L94.96 227.08L108.77 231.98L105.95 222.33C105.95 222.33 111.3 221.33 111.74 219.66C112.18 217.99 110.85 212.38 110.85 212.38C110.85 212.38 112.63 211.19 112.48 210.15C112.33 209.11 109.33 205 109.33 205Z" fill="white" stroke="#8E969B" stroke-width="1.04742" stroke-linecap="round" stroke-linejoin="round"/>
<path d="M93.44 211.4C93.44 211.4 95.8 213.4 97.09 211.11C98.38 208.82 99.36 206.58 99.36 204.64C99.36 202.7 94.51 201.09 97.74 199.79C100.97 198.49 103.3 201.38 104.74 198.48C106.18 195.58 104.87 195.27 97.11 195.27C89.35 195.27 85.47 199.15 87.11 204C88.4216 207.582 90.0445 211.042 91.96 214.34L93.44 211.4Z" fill="#8E969B" stroke="#8E969B" stroke-width="1.04742" stroke-linecap="round" stroke-linejoin="round"/>
<path d="M109.77 208.43C109.77 209.164 109.552 209.881 109.145 210.491C108.737 211.101 108.158 211.577 107.48 211.858C106.802 212.138 106.056 212.212 105.336 212.069C104.617 211.926 103.955 211.572 103.437 211.053C102.918 210.535 102.564 209.873 102.421 209.154C102.278 208.434 102.352 207.688 102.632 207.01C102.913 206.332 103.389 205.753 103.999 205.345C104.609 204.938 105.326 204.72 106.06 204.72C107.044 204.72 107.988 205.111 108.683 205.807C109.379 206.502 109.77 207.446 109.77 208.43V208.43Z" stroke="#8E969B" stroke-width="1.04742" stroke-linecap="round" stroke-linejoin="round"/>
<path d="M109.23 205.14C109.662 204.963 110.123 204.872 110.59 204.87C111.362 204.871 112.113 205.129 112.723 205.603C113.333 206.076 113.769 206.739 113.963 207.487C114.156 208.235 114.096 209.026 113.791 209.736C113.487 210.446 112.955 211.035 112.28 211.41" stroke="#8E969B" stroke-width="1.04742" stroke-linecap="round" stroke-linejoin="round"/>
<path d="M102.35 208.43L93.44 211.4" stroke="#8E969B" stroke-width="1.04742" stroke-linecap="round" stroke-linejoin="round"/>
<path d="M96 213.33C96 213.33 94.22 209.62 92.44 210.33C90.66 211.04 91.55 216.87 93.33 217.46C93.9281 217.595 94.5498 217.584 95.1431 217.429C95.7364 217.274 96.2839 216.98 96.74 216.57C96.74 216.57 98.23 219.69 100.01 220.57" fill="white"/>
<path d="M96 213.33C96 213.33 94.22 209.62 92.44 210.33C90.66 211.04 91.55 216.87 93.33 217.46C93.9281 217.595 94.5498 217.584 95.1431 217.429C95.7364 217.274 96.2839 216.98 96.74 216.57C96.74 216.57 98.23 219.69 100.01 220.57" stroke="#8E969B" stroke-width="1.04742" stroke-linecap="round" stroke-linejoin="round"/>
<path d="M84.32 280L83.21 294.22L79.89 315.27C79.89 315.27 87.65 321.36 94.89 321.36C102.13 321.36 104.12 320.44 104.12 320.44L108.18 298.84L112.24 321.55C112.24 321.55 120.24 320.26 125.54 318.96C129.225 317.934 132.718 316.313 135.88 314.16L125.17 286.28L122.85 271.9C122.85 271.9 110.85 273.01 103.64 273.38C96.43 273.75 86.84 271.9 86.84 271.9L84.32 280Z" fill="#D5D8DA" stroke="#8E969B" stroke-width="1.04742" stroke-linecap="round" stroke-linejoin="round"/>
<path d="M91.93 223.18C91.93 223.18 108.93 229.11 114.18 234.87C117.08 238.07 120.33 259.97 121.5 265.32C122.67 270.67 124.71 281.32 124.71 281.32C124.71 281.32 114.34 286 106.32 286.17C98.3 286.34 82.91 282.66 82.91 282.66C82.91 282.66 84.74 258.93 84.74 247.9C84.74 236.87 84.91 229.67 86.74 226.16C86.75 226.19 89.76 222.84 91.93 223.18Z" fill="#8E969B" stroke="#8E969B" stroke-width="1.04742" stroke-linecap="round" stroke-linejoin="round"/>
<path d="M87.46 284.38C87.46 284.38 88.38 299.89 87.46 305.62C86.8139 309.317 85.6983 312.916 84.14 316.33" stroke="#8E969B" stroke-width="1.04742" stroke-linecap="round" stroke-linejoin="round"/>
<path d="M87.83 291.77C89.2185 291.293 90.4592 290.464 91.4304 289.363C92.4016 288.262 93.07 286.927 93.37 285.49" stroke="#8E969B" stroke-width="1.04742" stroke-linecap="round" stroke-linejoin="round"/>
<path d="M80.81 312.27C80.81 312.27 90.05 320.21 104.45 317.27" stroke="#8E969B" stroke-width="1.04742" stroke-linecap="round" stroke-linejoin="round"/>
<path d="M111.84 316.88C111.84 316.88 126.98 315.22 133.63 310.79" stroke="#8E969B" stroke-width="1.04742" stroke-linecap="round" stroke-linejoin="round"/>
<path d="M179.56 216C179.56 216 178.1 217.08 173.01 220.8C167.92 224.52 171.93 230.14 171.93 230.14C171.93 230.14 168.29 230.71 163.43 235.82C158.57 240.93 165.6 249.7 172.17 251.07C178.74 252.44 186.42 244.31 188.72 236.77C191.02 229.23 187.98 217.86 186.45 215.51C184.92 213.16 179.56 216 179.56 216Z" fill="#8E969B" stroke="#8E969B" stroke-width="1.04742" stroke-linecap="round" stroke-linejoin="round"/>
<path d="M198.84 215C198.84 215 201.37 211.09 199.08 205.42C196.79 199.75 189.95 197.16 183.29 201.27C181.07 202.591 179.348 204.607 178.392 207.007C177.435 209.406 177.298 212.054 178 214.54C178.65 217.16 181.93 221.19 182.62 221.25C183.31 221.31 189.3 223.49 193.39 221.58C197.48 219.67 198.84 215 198.84 215Z" fill="#8E969B" stroke="#8E969B" stroke-width="1.04742" stroke-linecap="round" stroke-linejoin="round"/>
<path d="M169.41 347C169.41 347 174.16 354.39 182.41 355.65C190.66 356.91 183.24 349.51 181.85 348.39C180.46 347.27 170.53 344.85 169.41 347Z" fill="#8E969B" stroke="#8E969B" stroke-width="1.04742" stroke-linecap="round" stroke-linejoin="round"/>
<path d="M213.36 348.9C213.36 348.9 222.43 351.13 221.73 353.09C221.03 355.05 213.64 354.9 209.32 353.78C205 352.66 200.94 350.99 201.5 349.18C202.06 347.37 213.36 348.9 213.36 348.9Z" fill="#8E969B" stroke="#8E969B" stroke-width="1.04742" stroke-linecap="round" stroke-linejoin="round"/>
<path d="M187.57 229.7C187.57 229.7 175.43 231.48 173.21 235.77C170.99 240.06 174.12 263.43 174.12 263.43C174.12 263.43 168.94 274.86 168.87 282.22C168.8 289.58 172.08 302.53 171.82 305.76C171.56 308.99 168.24 345.76 168.24 346.76C168.24 347.76 175.24 350 185.33 351.2C195.42 352.4 214.72 348.81 214.72 348.81C214.72 348.81 214.34 327.11 215.35 314.17C216.36 301.23 214.92 289.6 212.35 284.77C209.78 279.94 197.81 262.55 197.81 262.55C197.81 262.55 203.61 252.03 203.97 247.43C204.33 242.83 202.46 240.43 198.08 235.14C196.778 233.58 195.178 232.295 193.373 231.36C191.569 230.426 189.596 229.862 187.57 229.7V229.7Z" fill="#D5D8DA" stroke="#8E969B" stroke-width="1.04742" stroke-linecap="round" stroke-linejoin="round"/>
<path d="M197.84 262.56C197.84 262.56 203.64 252.04 204 247.44C204.36 242.84 202.49 240.44 198.11 235.15C197.9 234.89 197.68 234.66 197.46 234.42L197.3 234.57C192.8 241.92 177.92 254.48 173.49 258.14C173.83 261.27 174.12 263.43 174.12 263.43C174.12 263.43 168.94 274.86 168.87 282.22C168.953 285.574 169.287 288.916 169.87 292.22C180.38 286.22 194.44 274.99 202.05 268.73C199.67 265.21 197.84 262.56 197.84 262.56Z" fill="#8E969B" stroke="#8E969B" stroke-width="1.04742" stroke-linecap="round" stroke-linejoin="round"/>
<path d="M185.33 221.12C185.666 223.864 185.849 226.625 185.88 229.39C185.72 231.44 186.38 236.12 189.88 237.59C193.38 239.06 195.58 237.01 195.57 234.95C195.443 233.249 195.107 231.569 194.57 229.95L194.67 224.3C194.67 224.3 188.63 220.52 185.33 221.12Z" fill="white" stroke="#8E969B" stroke-width="1.04742" stroke-linecap="round" stroke-linejoin="round"/>
<path d="M182.19 217.45C182.19 217.45 179.62 215.19 179.54 218.45C179.46 221.71 182.46 222.79 183.12 223.01C183.677 223.086 184.242 222.946 184.7 222.62C184.7 222.62 189.36 226.62 193.1 226.88C196.84 227.14 198.36 225.41 199.24 218.62C200.12 211.83 193.11 204.94 193.11 204.94C193.11 204.94 187.11 216 182.19 217.45Z" fill="white" stroke="#8E969B" stroke-width="1.04742" stroke-linecap="round" stroke-linejoin="round"/>
<path d="M125 281.18C124.966 280.021 125.156 278.867 125.56 277.78C126.18 276.42 129.56 275.64 130.31 275.38C131.06 275.12 131.44 275.38 131.22 276.09C131.045 276.472 130.794 276.814 130.483 277.096C130.172 277.378 129.807 277.593 129.41 277.73C128.893 277.854 128.428 278.137 128.08 278.54C127.89 278.86 128.01 280.91 127.08 281.78C126.15 282.65 124.69 282.41 125 281.18Z" fill="white" stroke="#8E969B" stroke-width="1.04742" stroke-linecap="round" stroke-linejoin="round"/>
<path d="M201.64 251.11C201.64 251.11 189.64 249.54 184.35 257.92C179.06 266.3 169.17 295.62 150.84 300.34C132.51 305.06 127.27 267.34 116.27 268.39C105.79 269.39 98.47 268.39 92.18 279.91C88.82 286.08 72.02 353.45 64.08 354.14C38.79 356.35 22.51 354.91 22.51 354.91" stroke="#8E969B" stroke-width="3.14226" stroke-linecap="round" stroke-linejoin="round"/>
<path d="M92.71 223.66C92.71 223.66 89.94 222.55 86.24 224.76C82.54 226.97 72.58 251.17 73.32 253.76C74.06 256.35 84.58 261.15 90.49 262.81C96.4 264.47 107.11 266.51 107.11 266.51C107.11 266.51 110.43 271.68 111.54 271.86C113.154 271.838 114.763 271.654 116.34 271.31C116.34 271.31 118.34 272.97 119.11 271.12C119.88 269.27 118.37 266.88 116.71 265.03C115.05 263.18 108.03 262.26 108.03 262.26L89 249.14L97 234.37" fill="#8E969B"/>
<path d="M92.71 223.66C92.71 223.66 89.94 222.55 86.24 224.76C82.54 226.97 72.58 251.17 73.32 253.76C74.06 256.35 84.58 261.15 90.49 262.81C96.4 264.47 107.11 266.51 107.11 266.51C107.11 266.51 110.43 271.68 111.54 271.86C113.154 271.838 114.763 271.654 116.34 271.31C116.34 271.31 118.34 272.97 119.11 271.12C119.88 269.27 118.37 266.88 116.71 265.03C115.05 263.18 108.03 262.26 108.03 262.26L89 249.14L97 234.37" stroke="#8E969B" stroke-width="1.04742" stroke-linecap="round" stroke-linejoin="round"/>
<path d="M111.54 271.85C113.154 271.828 114.762 271.644 116.34 271.3C116.34 271.3 118.34 272.96 119.11 271.11C119.88 269.26 118.37 266.87 116.71 265.02C115.05 263.17 108.03 262.25 108.03 262.25L89 249.14L91.84 243.85C84.73 239.42 80.01 239.75 77.46 240.64C74.91 246.76 72.97 252.56 73.31 253.75C74.05 256.34 84.57 261.14 90.48 262.8C96.39 264.46 107.1 266.5 107.1 266.5C107.1 266.5 110.43 271.67 111.54 271.85Z" fill="white" stroke="#8E969B" stroke-width="1.04742" stroke-linecap="round" stroke-linejoin="round"/>
<path d="M230.49 251.52C229.68 242.79 225.49 235.62 220.49 232.77L220.33 230.99L207.27 232.2C199.92 232.88 194.85 242.97 195.94 254.73C197.03 266.49 203.87 275.46 211.22 274.73L224.28 273.52L224.11 271.74C228.51 268.06 231.3 260.25 230.49 251.52Z" fill="#8E969B" stroke="#8E969B" stroke-width="1.04742" stroke-linecap="round" stroke-linejoin="round"/>
<path d="M236.4 251C235.55 241.83 231.4 234.28 226.11 231.28L225.93 229.41L220.34 229.93C212.62 230.65 207.29 241.24 208.43 253.6C209.57 265.96 216.77 275.39 224.49 274.67L230.08 274.15L229.91 272.28C234.53 268.34 237.25 260.14 236.4 251Z" fill="white" stroke="#8E969B" stroke-width="1.04742" stroke-linecap="round" stroke-linejoin="round"/>
<path d="M242 250.45C243.15 262.81 237.82 273.4 230.09 274.12C222.36 274.84 215.17 265.4 214 253.05C212.83 240.7 218.18 230.05 225.9 229.38C233.62 228.71 240.84 238.1 242 250.45Z" fill="white" stroke="#8E969B" stroke-width="1.04742" stroke-linecap="round" stroke-linejoin="round"/>
<path d="M248 243.23L226.31 245.23C226.006 245.259 225.699 245.227 225.407 245.137C225.115 245.047 224.844 244.901 224.609 244.706C224.374 244.51 224.179 244.271 224.037 244C223.895 243.73 223.808 243.434 223.78 243.13V243.13C223.751 242.826 223.783 242.519 223.873 242.227C223.963 241.935 224.109 241.664 224.304 241.429C224.5 241.194 224.739 240.999 225.01 240.857C225.28 240.715 225.576 240.628 225.88 240.6L247.57 238.6C247.874 238.571 248.181 238.603 248.473 238.693C248.765 238.783 249.036 238.929 249.271 239.124C249.506 239.32 249.701 239.559 249.843 239.83C249.985 240.1 250.072 240.396 250.1 240.7V240.7C250.129 241.004 250.097 241.311 250.007 241.603C249.917 241.895 249.771 242.166 249.576 242.401C249.38 242.636 249.141 242.831 248.87 242.973C248.6 243.115 248.304 243.202 248 243.23V243.23Z" fill="#8E969B" stroke="#8E969B" stroke-width="1.04742" stroke-linecap="round" stroke-linejoin="round"/>
<path d="M249.61 260.42L227.92 262.42C227.616 262.449 227.309 262.417 227.017 262.327C226.725 262.237 226.454 262.091 226.219 261.896C225.984 261.7 225.789 261.461 225.647 261.19C225.505 260.92 225.418 260.624 225.39 260.32V260.32C225.361 260.016 225.393 259.709 225.483 259.417C225.573 259.125 225.719 258.854 225.914 258.619C226.11 258.384 226.349 258.189 226.62 258.047C226.89 257.905 227.186 257.818 227.49 257.79L249.18 255.79C249.793 255.737 250.402 255.928 250.876 256.321C251.35 256.714 251.649 257.278 251.71 257.89V257.89C251.739 258.194 251.707 258.501 251.617 258.793C251.527 259.085 251.381 259.356 251.186 259.591C250.99 259.826 250.751 260.021 250.48 260.163C250.21 260.305 249.914 260.392 249.61 260.42V260.42Z" fill="#8E969B" stroke="#8E969B" stroke-width="1.04742" stroke-linecap="round" stroke-linejoin="round"/>
<path d="M180.07 231.33C180.07 231.33 174.85 232.33 172.38 235.33C169.91 238.33 164.84 261.48 166.01 264.14C167.18 266.8 185.93 270.14 191.72 270.62C196.376 270.804 201.039 270.597 205.66 270C205.66 270 210.66 269.87 212.03 269.64C213.4 269.41 215.92 268.06 215.96 267.55C216 267.04 215.75 265.82 213.88 265.67C212.01 265.52 208 264.18 207.49 264.14C208.692 263.824 209.91 263.577 211.14 263.4C211.14 263.4 211.4 262.4 209.34 262.4C207.28 262.4 205.41 262.26 204.63 263.4C204.072 264.288 203.597 265.225 203.21 266.2C203.21 266.2 191.66 267.01 185.39 263.95C179.12 260.89 177.14 259.87 177.14 259.87L181.64 241.87" fill="#D5D8DA"/>
<path d="M180.07 231.33C180.07 231.33 174.85 232.33 172.38 235.33C169.91 238.33 164.84 261.48 166.01 264.14C167.18 266.8 185.93 270.14 191.72 270.62C196.376 270.804 201.039 270.597 205.66 270C205.66 270 210.66 269.87 212.03 269.64C213.4 269.41 215.92 268.06 215.96 267.55C216 267.04 215.75 265.82 213.88 265.67C212.01 265.52 208 264.18 207.49 264.14C208.692 263.824 209.91 263.577 211.14 263.4C211.14 263.4 211.4 262.4 209.34 262.4C207.28 262.4 205.41 262.26 204.63 263.4C204.072 264.288 203.597 265.225 203.21 266.2C203.21 266.2 191.66 267.01 185.39 263.95C179.12 260.89 177.14 259.87 177.14 259.87L181.64 241.87" stroke="#8E969B" stroke-width="1.04742" stroke-linecap="round" stroke-linejoin="round"/>
<path d="M212 269.67C213.39 269.44 215.89 268.09 215.93 267.58C215.97 267.07 215.72 265.85 213.85 265.7C211.98 265.55 207.97 264.21 207.46 264.17C208.662 263.854 209.88 263.607 211.11 263.43C211.11 263.43 211.37 262.43 209.31 262.43C207.25 262.43 205.38 262.29 204.6 263.43C204.042 264.318 203.567 265.255 203.18 266.23C203.18 266.23 191.63 267.04 185.36 263.98C179.09 260.92 177.11 259.9 177.11 259.9L179.85 248.9C176.283 247.432 172.519 246.499 168.68 246.13C166.81 253.67 165.28 262.55 165.98 264.13C167.14 266.79 185.9 270.13 191.69 270.61C196.346 270.794 201.009 270.587 205.63 269.99C205.63 269.99 210.64 269.9 212 269.67Z" fill="white" stroke="#8E969B" stroke-width="1.04742" stroke-linecap="round" stroke-linejoin="round"/>
<path d="M127.54 279.24C127.54 279.24 123.68 282.13 124.27 284.04C124.86 285.95 128.08 282.04 128.88 280.89C129.68 279.74 129.05 278 127.54 279.24Z" fill="white" stroke="#8E969B" stroke-width="1.04742" stroke-linecap="round" stroke-linejoin="round"/>
<path d="M128.3 281.83C128.3 281.83 124.45 284.72 125.03 286.63C125.61 288.54 128.85 284.63 129.64 283.48C130.43 282.33 129.81 280.57 128.3 281.83Z" fill="white" stroke="#8E969B" stroke-width="1.04742" stroke-linecap="round" stroke-linejoin="round"/>
<path d="M130.13 283.51C130.13 283.51 126.28 286.4 126.87 288.31C127.46 290.22 130.68 286.31 131.48 285.16C132.28 284.01 131.65 282.25 130.13 283.51Z" fill="white" stroke="#8E969B" stroke-width="1.04742" stroke-linecap="round" stroke-linejoin="round"/>
<path d="M131.64 284.87C131.64 284.87 128.31 287.01 128.87 288.59C129.43 290.17 132.18 287.18 132.87 286.26C133.56 285.34 133 283.86 131.64 284.87Z" fill="white" stroke="#8E969B" stroke-width="1.04742" stroke-linecap="round" stroke-linejoin="round"/>
</svg>
